<?xml version="1.0" standalone="no"?>
<!DOCTYPE svg PUBLIC "-//W3C//DTD SVG 1.1//EN" "http://www.w3.org/Graphics/SVG/1.1/DTD/svg11.dtd" >
<svg xmlns="http://www.w3.org/2000/svg" xmlns:xlink="http://www.w3.org/1999/xlink" version="1.1">
<metadata>
Created by FontForge 20201107 at Tue Mar 18 00:04:08 2025
 By 
Copyright 2017-2021 Indian Type Foundry. All rights reserved.
</metadata>
<defs>
<font id="CabinetGrotesk-Black" horiz-adv-x="1228" >
  <font-face 
    font-family="Cabinet Grotesk Black"
    font-weight="900"
    font-stretch="normal"
    units-per-em="2048"
    panose-1="0 0 0 0 0 0 0 0 0 0"
    ascent="1638"
    descent="-410"
    x-height="1012"
    cap-height="1372"
    bbox="-274 -557 3234 1772"
    underline-thickness="266"
    underline-position="-419"
    unicode-range="U+000D-FB04"
  />
<missing-glyph 
d="M1128 0h-1028v1331h1028v-1331zM279 1219l335 -463l336 463h-671zM213 1128v-925l336 463zM680 666l336 -463v925zM279 113h671l-336 462z" />
    <glyph glyph-name="f_f" unicode="ff" horiz-adv-x="1341" 
d="M512 0h-369v733h-123v279h123v35q0 154 78 250t225 96q74 0 130 -26.5t89.5 -72.5t52.5 -97.5t27 -113.5q24 142 124.5 226t271.5 84q145 0 270 -66l-100 -264q-62 55 -127 55q-78 0 -78 -80v-26h205v-279h-205v-733h-369v733h-225v-733zM512 1022v-10h223
q-18 127 -129 127q-94 0 -94 -117z" />
    <glyph glyph-name="fi" unicode="fi" horiz-adv-x="1187" 
d="M512 0h-369v733h-123v279h123v12q0 120 60 205t158 124.5t225 39.5q106 0 212 -21.5t183 -58.5l-100 -254q-40 26 -110 44.5t-142 18.5q-117 0 -117 -100v-10h594v-1012h-369v733h-225v-733z" />
    <glyph glyph-name="fl" unicode="fl" horiz-adv-x="1187" 
d="M512 0h-369v733h-123v279h123v35q0 154 78 250t225 96q127 0 196.5 -74t94.5 -191v244h369v-1372h-369v963q0 176 -131 176q-94 0 -94 -117v-10h113v-279h-113v-733z" />
    <glyph glyph-name="f_f_i" unicode="ffi" horiz-adv-x="1740" 
d="M512 0h-369v733h-123v279h123v35q0 154 78 250t225 96q248 0 297 -297q17 97 79 165t153 100t205 32q106 0 212 -21.5t183 -58.5l-100 -254q-40 26 -110 44.5t-142 18.5q-117 0 -117 -100v-10h594v-1012h-369v733h-225v-733h-369v733h-225v-733zM512 1022v-10h223
q-18 127 -129 127q-94 0 -94 -117z" />
    <glyph glyph-name="f_f_l" unicode="ffl" horiz-adv-x="1740" 
d="M512 0h-369v733h-123v279h123v35q0 154 78 250t225 96q243 0 295 -285q14 129 91 207t208 78q127 0 196.5 -74t94.5 -191v244h369v-1372h-369v963q0 176 -131 176q-94 0 -94 -117v-10h113v-279h-113v-733h-369v733h-225v-733zM512 1022v-10h223q-18 127 -129 127
q-94 0 -94 -117z" />
    <glyph glyph-name="f_b" unicode="fb" horiz-adv-x="1837" 
d="M512 0h-369v733h-123v279h123v35q0 154 73.5 250t213.5 96q71 0 126.5 -22.5t90.5 -63t56.5 -87.5t33.5 -104v256h369v-659q11 68 31.5 121.5t56 100t94.5 72t137 25.5q170 0 270.5 -136t100.5 -390q0 -256 -103.5 -391t-287.5 -135q-63 0 -112 17.5t-80 45t-53.5 70.5
t-34 85t-19.5 97v-295h-369v963q0 176 -131 176q-94 0 -94 -117v-10h133v-279h-133v-733zM1106 461q0 -114 38.5 -158.5t104.5 -44.5q87 0 129.5 65.5t42.5 182.5t-42.5 182.5t-129.5 65.5q-66 0 -104.5 -44.5t-38.5 -158.5v-90z" />
    <glyph glyph-name="f_h" unicode="fh" horiz-adv-x="1816" 
d="M512 0h-369v733h-123v279h123v35q0 154 78 250t225 96q127 0 196.5 -74t94.5 -191v244h369v-661q11 67 35 122t62.5 101t98.5 72t136 26q142 0 222.5 -84.5t80.5 -238.5v-709h-369v565q0 100 -27 144.5t-106 44.5q-80 0 -106.5 -40t-26.5 -163v-551h-369v963
q0 176 -131 176q-94 0 -94 -117v-10h113v-279h-113v-733z" />
    <glyph glyph-name="f_j" unicode="fj" horiz-adv-x="1187" 
d="M512 0h-369v733h-123v279h123v12q0 120 60 205t158 124.5t225 39.5q106 0 212 -21.5t183 -58.5l-100 -254q-40 26 -110 44.5t-142 18.5q-117 0 -117 -100v-10h594v-1012q0 -77 -22.5 -146.5t-66.5 -127.5t-120 -92.5t-174 -34.5q-216 0 -342 122l182 240q38 -57 101 -57
q73 0 73 80v749h-225v-733z" />
    <glyph glyph-name="f_k" unicode="fk" horiz-adv-x="1873" 
d="M512 0h-369v733h-123v279h123v35q0 154 78 250t225 96q127 0 196.5 -74t94.5 -191v244h369v-444l-21 -346l209 274l138 156h426l-385 -410l376 -602h-411l-207 381l-125 -139v-242h-369v963q0 176 -131 176q-94 0 -94 -117v-10h113v-279h-113v-733z" />
    <glyph glyph-name="f_t" unicode="ft" horiz-adv-x="1431" 
d="M512 0h-369v733h-123v279h123v49q0 158 95 245t260 87q137 0 233 -56l-100 -256q-43 19 -72 19q-47 0 -47 -53v-35h225v114l369 164v-278h246v-279h-246v-354q0 -80 74 -80q34 0 70 23t61 61l100 -277q-42 -48 -123.5 -87t-191.5 -39q-186 0 -272.5 93.5t-86.5 252.5v407
h-225v-733z" />
    <glyph glyph-name="f_f_b" unicode="ffb" horiz-adv-x="2390" 
d="M512 0h-369v733h-123v279h123v35q0 154 78 250t225 96q68 0 121.5 -23t87.5 -64.5t54.5 -89.5t31.5 -106q14 129 86.5 206t196.5 77q71 0 126.5 -22.5t90.5 -63t56.5 -87.5t33.5 -104v256h369v-659q11 68 31.5 121.5t56 100t94.5 72t137 25.5q170 0 270.5 -136
t100.5 -390q0 -256 -103.5 -391t-287.5 -135q-63 0 -112 17.5t-80 45t-53.5 70.5t-34 85t-19.5 97v-295h-369v963q0 176 -131 176q-94 0 -94 -117v-10h133v-279h-133v-733h-369v733h-225v-733zM512 1022v-10h223q-18 127 -129 127q-94 0 -94 -117zM1700 461
q0 -114 38.5 -158.5t104.5 -44.5q87 0 129.5 65.5t42.5 182.5t-42.5 182.5t-129.5 65.5q-66 0 -104.5 -44.5t-38.5 -158.5v-90z" />
    <glyph glyph-name="f_f_h" unicode="ffh" horiz-adv-x="2369" 
d="M512 0h-369v733h-123v279h123v35q0 154 78 250t225 96q243 0 295 -285q14 129 91 207t208 78q127 0 196.5 -74t94.5 -191v244h369v-661q11 67 35 122t62.5 101t98.5 72t136 26q142 0 222.5 -84.5t80.5 -238.5v-709h-369v565q0 100 -27 144.5t-106 44.5q-80 0 -106.5 -40
t-26.5 -163v-551h-369v963q0 176 -131 176q-94 0 -94 -117v-10h113v-279h-113v-733h-369v733h-225v-733zM512 1022v-10h223q-18 127 -129 127q-94 0 -94 -117z" />
    <glyph glyph-name="f_f_j" unicode="ffj" horiz-adv-x="1740" 
d="M512 0h-369v733h-123v279h123v35q0 154 78 250t225 96q248 0 297 -297q17 97 79 165t153 100t205 32q106 0 212 -21.5t183 -58.5l-100 -254q-40 26 -110 44.5t-142 18.5q-117 0 -117 -100v-10h594v-1012q0 -77 -22.5 -146.5t-66.5 -127.5t-120 -92.5t-174 -34.5
q-216 0 -342 122l182 240q38 -57 100 -57q74 0 74 80v749h-225v-733h-369v733h-225v-733zM512 1022v-10h223q-18 127 -129 127q-94 0 -94 -117z" />
    <glyph glyph-name="f_f_k" unicode="ffk" horiz-adv-x="2406" 
d="M512 0h-369v733h-123v279h123v35q0 154 78 250t225 96q218 0 283 -232q26 107 100 169.5t191 62.5q127 0 196.5 -74t94.5 -191v244h368v-444l-20 -346l209 274l137 156h426l-385 -410l377 -602h-412l-207 381l-125 -139v-242h-368v963q0 176 -131 176q-95 0 -95 -117v-10
h113v-279h-113v-733h-368v733h-205v-733zM512 1022v-10h205v35v26q-30 66 -111 66q-94 0 -94 -117z" />
    <glyph glyph-name="f_f_t" unicode="fft" horiz-adv-x="1984" 
d="M512 0h-369v733h-123v279h123v35q0 154 78 250t225 96q69 0 122 -23t87 -64t54 -88.5t30 -105.5q17 134 110 207.5t243 73.5q137 0 233 -56l-100 -256q-43 19 -72 19q-47 0 -47 -53v-35h225v114l369 164v-278h246v-279h-246v-354q0 -80 74 -80q34 0 70 23t61 61l100 -277
q-42 -48 -123.5 -87t-191.5 -39q-186 0 -272.5 93.5t-86.5 252.5v407h-225v-733h-369v733h-225v-733zM512 1022v-10h223q-18 127 -129 127q-94 0 -94 -117z" />
    <glyph glyph-name=".notdef" 
d="M1128 0h-1028v1331h1028v-1331zM279 1219l335 -463l336 463h-671zM213 1128v-925l336 463zM680 666l336 -463v925zM279 113h671l-336 462z" />
    <glyph glyph-name=".null" horiz-adv-x="0" 
 />
    <glyph glyph-name="nonmarkingreturn" horiz-adv-x="682" 
 />
    <glyph glyph-name="CR" unicode="&#xd;" horiz-adv-x="614" 
 />
    <glyph glyph-name="space" unicode=" " horiz-adv-x="348" 
 />
    <glyph glyph-name="exclam" unicode="!" horiz-adv-x="614" 
d="M471 477h-328q0 117 -41 418t-41 477h492q0 -174 -41 -476t-41 -419zM492 0h-369v350h369v-350z" />
    <glyph glyph-name="quotedbl" unicode="&#x22;" horiz-adv-x="901" 
d="M799 838h-246l-61 534h368zM348 838h-246l-61 534h369z" />
    <glyph glyph-name="numbersign" unicode="#" horiz-adv-x="1830" 
d="M573 0h-348l76 283h-168v315h252l49 176h-219v316h303l76 282h348l-76 -282h246l76 282h348l-76 -282h170v-316h-254l-49 -176h221v-315h-305l-76 -283h-348l76 283h-246zM762 793l-60 -213h297l60 213h-297z" />
    <glyph glyph-name="dollar" unicode="$" horiz-adv-x="1372" 
d="M778 -205h-143v187q-182 11 -335 71t-255 168l229 297q65 -80 160.5 -131.5t200.5 -69.5v209l-133 27q-95 18 -168.5 47t-135 76.5t-95 120t-33.5 166.5q0 135 73 233t194.5 145.5t276.5 47.5h21v188h143v-201q276 -45 453 -217l-227 -293q-91 97 -226 150v-189l47 -10
q228 -52 336.5 -152t108.5 -268q0 -189 -135 -296t-357 -119v-187zM449 987q0 -49 44.5 -76t141.5 -51v197q-46 4 -64 4q-56 0 -89 -19t-33 -55zM891 387q0 36 -27 61.5t-86 45.5v-185q113 10 113 78z" />
    <glyph glyph-name="percent" unicode="%" horiz-adv-x="1976" 
d="M584 -109h-297l1091 1590h297zM434 551q-182 0 -298 115t-116 305t116 305t298 115q181 0 296.5 -115t115.5 -305t-115.5 -305t-296.5 -115zM434 823q50 0 75.5 33.5t25.5 114.5q0 82 -25.5 115.5t-75.5 33.5q-49 0 -73.5 -33.5t-24.5 -115.5q0 -81 24.5 -114.5
t73.5 -33.5zM1542 0q-181 0 -296.5 115t-115.5 305t115.5 305t296.5 115q182 0 298 -115t116 -305t-116 -305t-298 -115zM1542 272q52 0 77.5 33.5t25.5 114.5q0 84 -25 116.5t-78 32.5q-49 0 -73.5 -33t-24.5 -116q0 -81 24.5 -114.5t73.5 -33.5z" />
    <glyph glyph-name="ampersand" unicode="&#x26;" horiz-adv-x="1572" 
d="M461 -25q-195 0 -307.5 96t-112.5 263q0 127 79 224.5t238 156.5q-72 83 -108.5 156.5t-36.5 170.5q0 148 121.5 250.5t322.5 102.5q202 0 319.5 -97.5t117.5 -246.5q0 -125 -76 -212t-207 -132l180 -203q41 47 57 112.5t3 165.5h325q18 -264 -213 -456q48 -37 101 -37
q74 0 123 48.5t63 100.5l123 -325q-54 -60 -139.5 -96.5t-182.5 -36.5q-181 0 -342 139q-184 -144 -448 -144zM569 1036q0 -35 25 -74t94 -116q98 81 98 180q0 51 -29.5 76.5t-80.5 25.5q-46 0 -76.5 -24t-30.5 -68zM410 410q0 -56 42.5 -91.5t108.5 -35.5q84 0 160 36
l-215 234q-96 -66 -96 -143z" />
    <glyph glyph-name="quotesingle" unicode="'" horiz-adv-x="450" 
d="M348 838h-246l-61 534h369z" />
    <glyph glyph-name="parenleft" unicode="(" horiz-adv-x="704" 
d="M684 -61h-309q-47 44 -96.5 113.5t-97.5 165t-78.5 219.5t-30.5 249t30.5 249.5t78.5 219.5t97.5 165.5t96.5 113.5h309q-98 -122 -176 -324t-78 -424t78 -423.5t176 -323.5z" />
    <glyph glyph-name="parenright" unicode=")" horiz-adv-x="704" 
d="M330 -61h-310q98 122 176 323.5t78 423.5t-78 424t-176 324h310q47 -43 96.5 -113.5t97.5 -165.5t78.5 -219.5t30.5 -249.5t-30.5 -249t-78.5 -219.5t-97.5 -165t-96.5 -113.5z" />
    <glyph glyph-name="asterisk" unicode="*" horiz-adv-x="712" 
d="M602 971l-135 -99l-113 125l-110 -123l-135 99l84 145l-152 68l51 157l166 -34l16 166h166l19 -168l162 34l51 -157l-152 -70z" />
    <glyph glyph-name="plus" unicode="+" horiz-adv-x="856" 
d="M575 319h-292v222h-222v293h222v219h292v-219h220v-293h-220v-222z" />
    <glyph glyph-name="comma" unicode="," horiz-adv-x="450" 
d="M115 -309l-68 178q34 0 60 4t50 15t37 33t13 54v25h-166v350h369v-362q0 -136 -77.5 -211t-217.5 -86z" />
    <glyph glyph-name="hyphen" unicode="-" horiz-adv-x="677" 
d="M637 348h-596v316h596v-316z" />
    <glyph glyph-name="period" unicode="." horiz-adv-x="450" 
d="M410 0h-369v350h369v-350z" />
    <glyph glyph-name="slash" unicode="/" horiz-adv-x="921" 
d="M369 -82h-349l533 1536h348z" />
    <glyph glyph-name="zero" unicode="0" horiz-adv-x="1433" 
d="M717 -16q-297 0 -471 194t-174 510q0 208 77 367t224 248.5t344 89.5t344 -89.5t224 -248.5t77 -367q0 -316 -174 -510t-471 -194zM717 342q127 0 191.5 89.5t64.5 256.5t-64.5 256.5t-191.5 89.5t-191.5 -89.5t-64.5 -256.5t64.5 -256.5t191.5 -89.5z" />
    <glyph glyph-name="one" unicode="1" horiz-adv-x="737" 
d="M655 0h-368v961h-267v288q100 0 167 28t120 95h348v-1372z" />
    <glyph glyph-name="two" unicode="2" horiz-adv-x="1308" 
d="M1247 0h-1104v274l557 490q60 52 83.5 88.5t23.5 79.5q0 52 -37 80t-98 28q-225 0 -301 -321l-269 233q29 140 116 240.5t215 150.5t284 50q226 0 355.5 -118.5t129.5 -322.5q0 -145 -86.5 -255.5t-257.5 -219.5l-147 -94l-195 -104l320 49h411v-328z" />
    <glyph glyph-name="three" unicode="3" horiz-adv-x="1286" 
d="M666 -20q-234 0 -399.5 97.5t-217.5 252.5l262 233q31 -114 118.5 -174.5t205.5 -60.5q87 0 134.5 32t47.5 91q0 30 -13 49t-40 28.5t-58 13t-77 3.5h-203v289h225q164 0 164 98q0 52 -42 80t-111 28q-115 0 -198.5 -57t-113.5 -168l-262 234q50 150 204.5 247t383.5 97
q232 0 370 -108.5t138 -272.5q0 -90 -34.5 -155t-95 -100t-129 -51t-149.5 -16q210 0 326.5 -92.5t116.5 -247.5q0 -117 -76 -202.5t-199.5 -126.5t-277.5 -41z" />
    <glyph glyph-name="four" unicode="4" horiz-adv-x="1300" 
d="M1073 0h-368v250h-685v287l625 835h428v-805h187v-317h-187v-250zM401 567h304v406z" />
    <glyph glyph-name="five" unicode="5" horiz-adv-x="1296" 
d="M655 -20q-228 0 -384.5 93t-209.5 240l293 242q29 -105 106.5 -157t180.5 -52q89 0 138.5 44.5t49.5 131.5q0 80 -47.5 125t-140.5 45q-142 0 -178 -108l-2 -6l-348 34l53 760h979v-328h-643l-27 -364q38 98 129 159.5t227 61.5q178 0 291 -106.5t113 -315.5
q0 -149 -75 -263t-206.5 -175t-298.5 -61z" />
    <glyph glyph-name="six" unicode="6" horiz-adv-x="1310" 
d="M672 -20q-153 0 -267 49.5t-182.5 141t-101.5 214t-33 277.5v36q0 329 162.5 512t484.5 183q132 0 252 -35t201 -90l-152 -371q-73 65 -145.5 94t-159.5 29q-117 0 -172 -63t-55 -209v-86q33 101 118.5 158t213.5 57q195 0 296 -111.5t101 -302.5q0 -223 -154 -353
t-407 -130zM657 330q86 0 129 46.5t43 123.5q0 73 -43.5 120.5t-128.5 47.5q-81 0 -120 -47t-39 -121q0 -78 38.5 -124t120.5 -46z" />
    <glyph glyph-name="seven" unicode="7" horiz-adv-x="1077" 
d="M625 0h-410q0 107 17.5 210.5t43 185.5t69 167.5t80.5 144t93 129.5t90.5 109.5t89.5 97.5h-678v328h1037v-317q-41 -48 -65 -76.5t-65 -81.5t-66.5 -92t-60.5 -99.5t-57 -113.5t-47 -123.5t-39 -140.5t-23 -154.5t-9 -173.5z" />
    <glyph glyph-name="eight" unicode="8" horiz-adv-x="1255" 
d="M618 -20q-287 0 -437 107.5t-150 283.5q0 118 81.5 205.5t258.5 119.5q-143 24 -217 108.5t-74 205.5q0 165 142.5 274t395.5 109q252 0 395.5 -109.5t143.5 -273.5q0 -122 -77.5 -206t-223.5 -108q91 -16 160.5 -48.5t109.5 -77t60 -94.5t20 -105q0 -176 -150.5 -283.5
t-437.5 -107.5zM618 811q62 0 101 36t39 89q0 52 -35.5 85.5t-104.5 33.5t-104 -33t-35 -86q0 -56 35 -90.5t104 -34.5zM618 317q86 0 127 39t41 101t-43.5 103.5t-124.5 41.5t-124 -41.5t-43 -103.5t40.5 -101t126.5 -39z" />
    <glyph glyph-name="nine" unicode="9" horiz-adv-x="1310" 
d="M580 -20q-133 0 -253 34.5t-200 89.5l152 371q73 -65 145.5 -94t159.5 -29q117 0 172 63.5t55 209.5v86q-33 -101 -118.5 -158t-213.5 -57q-195 0 -296 111t-101 302q0 223 154 353.5t407 130.5q153 0 267 -49.5t182.5 -141t101.5 -214t33 -277.5v-37q0 -329 -162 -511.5
t-485 -182.5zM657 705q81 0 120.5 47t39.5 120q0 78 -39 124t-121 46q-86 0 -129 -46.5t-43 -123.5q0 -72 43.5 -119.5t128.5 -47.5z" />
    <glyph glyph-name="colon" unicode=":" horiz-adv-x="450" 
d="M410 641h-369v350h369v-350zM410 0h-369v350h369v-350z" />
    <glyph glyph-name="semicolon" unicode=";" horiz-adv-x="450" 
d="M410 641h-369v350h369v-350zM115 -309l-68 178q34 0 60 4t50 15t37 33t13 54v25h-166v350h369v-362q0 -136 -77.5 -211t-217.5 -86z" />
    <glyph glyph-name="less" unicode="&#x3c;" horiz-adv-x="917" 
d="M856 571v-333l-795 262v374l795 263v-334l-477 -115z" />
    <glyph glyph-name="equal" unicode="=" horiz-adv-x="856" 
d="M795 762h-734v293h734v-293zM795 319h-734v293h734v-293z" />
    <glyph glyph-name="greater" unicode="&#x3e;" horiz-adv-x="958" 
d="M856 500l-795 -262v333l478 117l-478 115v334l795 -263v-374z" />
    <glyph glyph-name="question" unicode="?" horiz-adv-x="1138" 
d="M737 459h-342v26q0 61 22.5 117t57 96.5t74 80t74 69t57 61t22.5 58.5q0 73 -104 73q-94 0 -184.5 -71t-124.5 -203l-269 233q26 113 116 203t218 138.5t267 48.5q234 0 355.5 -95t121.5 -260q0 -61 -20 -113.5t-51.5 -91t-70 -73.5t-77.5 -66.5t-70.5 -62.5t-51.5 -70
t-20 -82v-16zM748 0h-369v350h369v-350z" />
    <glyph glyph-name="at" unicode="@" horiz-adv-x="1783" 
d="M676 -266q-98 0 -187.5 20.5t-174.5 68t-146.5 119t-99 181t-37.5 246.5q0 215 76 394t211 301t324 189.5t411 67.5q317 0 503.5 -163.5t186.5 -469.5q0 -123 -28 -224t-76 -170.5t-114 -117t-139.5 -69t-154.5 -21.5q-83 0 -144 23.5t-92.5 62t-45 82t-9.5 90.5
q-27 -103 -95.5 -169t-172.5 -66q-109 0 -173.5 71t-64.5 215q0 228 106.5 378.5t268.5 150.5q198 0 186 -252l41 235h312l-91 -506q-7 -40 3.5 -55.5t35.5 -15.5q66 0 116 99t50 257q0 379 -446 379q-171 0 -304.5 -50t-217 -139.5t-126 -207t-42.5 -258.5
q0 -110 30.5 -191.5t85.5 -128.5t125 -69.5t156 -22.5q195 0 381 63l-88 -286q-138 -41 -340 -41zM854 315q80 0 98 109l27 158q23 137 -70 137q-64 0 -104.5 -81.5t-40.5 -201.5q0 -121 90 -121z" />
    <glyph glyph-name="A" unicode="A" horiz-adv-x="1505" 
d="M403 0h-393l486 1372h514l485 -1372h-403l-84 256h-521zM655 764l-65 -201h315l-65 201l-92 344z" />
    <glyph glyph-name="B" unicode="B" horiz-adv-x="1337" 
d="M809 0h-727v1372h733q121 0 209 -28t137 -77.5t71.5 -109.5t22.5 -133q0 -84 -32 -146t-79.5 -96t-117.5 -54.5t-128.5 -26t-129.5 -5.5q143 0 246.5 -24.5t164.5 -71.5t89 -108.5t28 -141.5q0 -79 -23.5 -139.5t-64.5 -100.5t-103 -64.5t-134 -35t-162 -10.5zM727 1044
h-276v-204h276q139 0 139 100q0 104 -139 104zM758 553h-307v-225h307q85 0 123.5 27.5t38.5 84.5q0 58 -38.5 85.5t-123.5 27.5z" />
    <glyph glyph-name="C" unicode="C" horiz-adv-x="1398" 
d="M758 -16q-161 0 -295 54.5t-223.5 149.5t-139 223.5t-49.5 276.5t49.5 277t139 224t223.5 149.5t295 54.5q213 0 372 -95t248 -260l-307 -264q-31 110 -113 186t-204 76q-141 0 -222 -95.5t-81 -252.5t81 -252.5t222 -95.5q122 0 204 76t113 186l307 -264
q-89 -165 -247.5 -259.5t-372.5 -94.5z" />
    <glyph glyph-name="D" unicode="D" horiz-adv-x="1398" 
d="M680 0h-598v1372h592q199 0 353 -89t236.5 -244.5t82.5 -352.5t-81 -352.5t-233.5 -244.5t-351.5 -89zM653 1044h-202v-716h208q153 0 225 97.5t72 260.5q0 162 -74.5 260t-228.5 98z" />
    <glyph glyph-name="E" unicode="E" horiz-adv-x="1193" 
d="M1133 0h-1051v1372h1051v-328h-682v-194h579v-328h-579v-194h682v-328z" />
    <glyph glyph-name="F" unicode="F" horiz-adv-x="1153" 
d="M451 0h-369v1372h1040v-328h-671v-239h569v-328h-569v-477z" />
    <glyph glyph-name="G" unicode="G" horiz-adv-x="1490" 
d="M623 -16q-93 0 -176 25t-156 80t-126 135.5t-83.5 199.5t-30.5 264q0 207 84 365.5t249 249t390 90.5q217 0 381 -90t240 -244l-308 -244q-22 98 -105.5 159.5t-207.5 61.5q-158 0 -240.5 -93t-82.5 -255q0 -171 87.5 -264.5t233.5 -93.5q199 0 291 151h-346v287h692
v-768h-250l-78 481q-13 -251 -130 -374t-328 -123z" />
    <glyph glyph-name="H" unicode="H" horiz-adv-x="1392" 
d="M451 0h-369v1372h369v-522h491v522h369v-1372h-369v522h-491v-522z" />
    <glyph glyph-name="I" unicode="I" horiz-adv-x="532" 
d="M451 0h-369v1372h369v-1372z" />
    <glyph glyph-name="J" unicode="J" horiz-adv-x="1224" 
d="M623 -20q-439 0 -603 399l308 264q32 -139 101.5 -223t182.5 -84q80 0 126 45t46 154v837h369v-878q0 -136 -39 -236.5t-111 -160.5t-166.5 -88.5t-213.5 -28.5z" />
    <glyph glyph-name="K" unicode="K" horiz-adv-x="1376" 
d="M451 0h-369v1372h369v-358l-11 -242l181 242l292 358h424l-442 -534l453 -838h-412l-299 559l-186 -213v-346z" />
    <glyph glyph-name="L" unicode="L" horiz-adv-x="1132" 
d="M1112 0h-1030v1372h369v-1044h661v-328z" />
    <glyph glyph-name="M" unicode="M" horiz-adv-x="1699" 
d="M451 0h-369v1372h512l135 -399l121 -475l121 475l135 399h512v-1372h-369v356l60 674l-172 -532l-88 -252h-398l-88 252l-172 532l60 -674v-356z" />
    <glyph glyph-name="N" unicode="N" horiz-adv-x="1392" 
d="M451 0h-369v1372h369l403 -618l115 -215l-27 403v430h369v-1372h-357l-417 616l-119 211l33 -444v-383z" />
    <glyph glyph-name="O" unicode="O" horiz-adv-x="1515" 
d="M758 -16q-205 0 -367.5 93.5t-251 254t-88.5 356.5q0 147 52 276.5t144 224t224.5 149.5t286.5 55q205 0 367 -93.5t250.5 -254.5t88.5 -357t-88.5 -356.5t-250.5 -254t-367 -93.5zM758 342q154 0 235.5 95t81.5 251t-81.5 251t-235.5 95t-236 -95.5t-82 -250.5
t82 -250.5t236 -95.5z" />
    <glyph glyph-name="P" unicode="P" horiz-adv-x="1310" 
d="M451 0h-369v1372h580q134 0 242.5 -28.5t191.5 -88t128.5 -159.5t45.5 -234q0 -135 -45 -235t-127.5 -160t-191 -88.5t-244.5 -28.5h-211v-350zM666 1044h-215v-366h215q107 0 161 47t54 137q0 182 -215 182z" />
    <glyph glyph-name="Q" unicode="Q" horiz-adv-x="1515" 
d="M1016 -403q-189 0 -292.5 107t-94.5 290q-259 43 -418.5 235.5t-159.5 458.5q0 147 52 276.5t144 224t224.5 149.5t286.5 55q205 0 367 -93.5t250.5 -254.5t88.5 -357q0 -270 -163 -464t-427 -232q19 -98 121 -98q89 0 175 65.5t135 151.5l102 -349q-165 -165 -391 -165z
M758 352q103 0 176 46.5t107 121t34 168.5t-34 168.5t-107 121t-176 46.5q-153 0 -235.5 -95.5t-82.5 -240.5t82.5 -240.5t235.5 -95.5z" />
    <glyph glyph-name="R" unicode="R" horiz-adv-x="1366" 
d="M451 0h-369v1372h657q122 0 220.5 -25t173 -76t115 -134.5t40.5 -194.5q0 -188 -112 -286.5t-299 -114.5q51 -13 91 -34t73 -55.5t54.5 -63.5t53.5 -79l197 -309h-420l-228 367q-42 69 -89 97t-130 28h-28v-492zM743 1044h-292v-258h292q156 0 156 129t-156 129z" />
    <glyph glyph-name="S" unicode="S" horiz-adv-x="1314" 
d="M717 -20q-206 0 -382 60.5t-290 180.5l229 297q83 -100 210 -155.5t253 -55.5q154 0 154 80q0 52 -56.5 82t-195.5 57l-137 27q-95 18 -168.5 47t-135 76.5t-95 120t-33.5 166.5q0 135 73 233t194.5 145.5t276.5 47.5q193 0 351 -62t266 -168l-227 -293
q-82 86 -202.5 140.5t-230.5 54.5q-56 0 -89 -19t-33 -55q0 -53 50 -80t165 -53l161 -37q228 -52 336.5 -152t108.5 -268q0 -136 -73.5 -231.5t-196 -140.5t-283.5 -45z" />
    <glyph glyph-name="T" unicode="T" horiz-adv-x="1200" 
d="M784 0h-368v1044h-396v328h1160v-328h-396v-1044z" />
    <glyph glyph-name="U" unicode="U" horiz-adv-x="1376" 
d="M686 -20q-305 0 -459.5 156t-154.5 485v751h368v-756q0 -144 62 -211t186 -67q126 0 187 66.5t61 211.5v756h369v-751q0 -330 -154 -485.5t-465 -155.5z" />
    <glyph glyph-name="V" unicode="V" horiz-adv-x="1468" 
d="M987 0h-506l-471 1372h441l190 -665l100 -492l101 492l188 665h428z" />
    <glyph glyph-name="W" unicode="W" horiz-adv-x="2064" 
d="M838 0h-521l-297 1372h426l107 -692l37 -449l59 398l137 743h492l137 -743l58 -398l38 449l107 692h426l-297 -1372h-520l-127 606l-68 518l-65 -518z" />
    <glyph glyph-name="X" unicode="X" horiz-adv-x="1441" 
d="M471 0h-461l449 713l-449 659h467l258 -442l236 442h461l-445 -708l445 -664h-467l-258 442z" />
    <glyph glyph-name="Y" unicode="Y" horiz-adv-x="1452" 
d="M907 0h-368v442l-529 930h467l133 -303l121 -315l121 315l135 303h455l-535 -934v-438z" />
    <glyph glyph-name="Z" unicode="Z" horiz-adv-x="1241" 
d="M1221 0h-1201v287l496 579l195 189l-195 -11h-455v328h1119v-287l-492 -563l-211 -205l211 11h533v-328z" />
    <glyph glyph-name="bracketleft" unicode="[" horiz-adv-x="684" 
d="M643 -61h-551v1495h551v-279h-203v-938h203v-278z" />
    <glyph glyph-name="backslash" unicode="\" horiz-adv-x="921" 
d="M901 -82h-348l-533 1536h349z" />
    <glyph glyph-name="bracketright" unicode="]" horiz-adv-x="684" 
d="M592 -61h-551v278h203v938h-203v279h551v-1495z" />
    <glyph glyph-name="asciicircum" unicode="^" horiz-adv-x="933" 
d="M360 782h-319l246 590h360l246 -590h-320l-106 308z" />
    <glyph glyph-name="underscore" unicode="_" horiz-adv-x="860" 
d="M860 -233h-860v233h860v-233z" />
    <glyph glyph-name="grave" unicode="`" 
d="M881 1120h-281l-252 252h408z" />
    <glyph glyph-name="a" unicode="a" horiz-adv-x="1067" 
d="M305 -23q-118 0 -191 63t-73 193q0 122 73.5 196.5t243.5 127.5l273 84q-8 44 -35.5 63t-87.5 19q-87 0 -178 -43.5t-154 -114.5l-164 271q100 91 232 143.5t284 52.5q199 0 309.5 -98t110.5 -289v-305q0 -34 10.5 -46.5t38.5 -12.5h60v-281h-209q-45 0 -84 10.5t-72 32
t-52 60t-19 90.5v77q-13 -55 -34 -102t-57 -92.5t-93.5 -72t-131.5 -26.5zM369 285q0 -52 77 -52q91 0 133 37t42 115v31l-166 -60q-50 -18 -68 -34t-18 -37z" />
    <glyph glyph-name="b" unicode="b" horiz-adv-x="1181" 
d="M451 0h-369v1372h369v-659q11 68 31.5 121.5t56 100t94.5 72t137 25.5q170 0 270.5 -136t100.5 -390q0 -256 -103.5 -391t-287.5 -135q-63 0 -112 17.5t-80 45t-53.5 70.5t-34 85t-19.5 97v-295zM451 461q0 -114 38.5 -158.5t104.5 -44.5q87 0 129.5 65.5t42.5 182.5
t-42.5 182.5t-129.5 65.5q-66 0 -104.5 -44.5t-38.5 -158.5v-90z" />
    <glyph glyph-name="c" unicode="c" horiz-adv-x="1050" 
d="M567 -20q-239 0 -382.5 148t-143.5 378t143.5 378t382.5 148q164 0 290.5 -75.5t182.5 -196.5l-286 -189q-44 156 -170 156q-76 0 -122 -55t-46 -166t46 -166t122 -55q127 0 170 155l286 -188q-56 -121 -182.5 -196.5t-290.5 -75.5z" />
    <glyph glyph-name="d" unicode="d" horiz-adv-x="1169" 
d="M420 -20q-184 0 -287.5 135t-103.5 391q0 254 100 390t270 136q78 0 137 -25.5t95 -72t56.5 -100t31.5 -121.5v659h368v-1372h-368v295q-8 -55 -19.5 -97t-34 -85t-53.5 -70.5t-80 -45t-112 -17.5zM403 506q0 -117 42.5 -182.5t129.5 -65.5q67 0 105.5 44.5t38.5 158.5
v90q0 114 -41 158.5t-111 44.5q-82 0 -123 -66t-41 -182z" />
    <glyph glyph-name="e" unicode="e" horiz-adv-x="1097" 
d="M582 -20q-255 0 -398 145t-143 381q0 233 138.5 379.5t367.5 146.5q125 0 222.5 -39.5t155.5 -107t87.5 -151t29.5 -177.5q0 -107 -10 -149h-649q31 -134 205 -134q161 0 213 117l223 -213q-154 -198 -442 -198zM549 758q-76 0 -121 -41t-51 -119h336q-9 160 -164 160z
" />
    <glyph glyph-name="f" unicode="f" horiz-adv-x="747" 
d="M512 0h-369v733h-123v279h123q6 172 109 276.5t295 104.5q145 0 270 -66l-100 -264q-62 55 -127 55q-78 0 -78 -80v-26h205v-279h-205v-733z" />
    <glyph glyph-name="g" unicode="g" horiz-adv-x="1118" 
d="M561 283q-145 0 -256 51q-14 -28 -14 -55q0 -70 90 -70h389q180 0 262 -67t82 -183q0 -73 -36.5 -136.5t-109.5 -114.5t-196 -80t-283 -29q-250 0 -379.5 59t-129.5 149q0 72 72.5 110t193.5 40q-189 30 -189 164q0 78 59.5 141t141.5 98q-80 50 -124 126.5t-44 170.5
q0 168 129.5 271.5t341.5 103.5q85 0 158 -18l37 246l307 -103l-199 -201q168 -105 168 -299q0 -168 -129.5 -271t-341.5 -103zM561 516q59 0 95 35.5t36 105.5t-36 106t-95 36t-95 -36t-36 -106t36 -105.5t95 -35.5zM530 -154q275 0 275 70q0 24 -22 32.5t-70 8.5h-437
q-4 -12 -4 -25q0 -43 58.5 -64.5t199.5 -21.5z" />
    <glyph glyph-name="h" unicode="h" horiz-adv-x="1161" 
d="M451 0h-369v1372h369v-661q12 67 35 122t61.5 101t98.5 72t136 26q142 0 222.5 -84.5t80.5 -238.5v-709h-368v565q0 100 -27 144.5t-106 44.5q-80 0 -106.5 -40t-26.5 -163v-551z" />
    <glyph glyph-name="i" unicode="i" horiz-adv-x="532" 
d="M451 1104h-369v268h369v-268zM451 0h-369v1012h369v-1012z" />
    <glyph glyph-name="j" unicode="j" horiz-adv-x="532" 
d="M451 1104h-369v268h369v-268zM68 -401q-216 0 -342 122l182 240q38 -57 100 -57q74 0 74 80v1028h369v-1012q0 -77 -22.5 -146.5t-66.5 -127.5t-120 -92.5t-174 -34.5z" />
    <glyph glyph-name="k" unicode="k" horiz-adv-x="1218" 
d="M451 0h-369v1372h369v-444l-21 -346l209 274l137 156h426l-385 -410l377 -602h-412l-207 381l-124 -139v-242z" />
    <glyph glyph-name="l" unicode="l" horiz-adv-x="532" 
d="M451 0h-369v1372h369v-1372z" />
    <glyph glyph-name="m" unicode="m" horiz-adv-x="1755" 
d="M451 0h-369v1012h369v-299q51 319 331 319q133 0 208 -84t75 -235q51 319 332 319q133 0 207.5 -84.5t74.5 -238.5v-709h-368v565q0 99 -26 144t-97 45q-73 0 -98 -40.5t-25 -162.5v-551h-369v565q0 99 -26 144t-97 45q-73 0 -97.5 -40.5t-24.5 -162.5v-551z" />
    <glyph glyph-name="n" unicode="n" horiz-adv-x="1161" 
d="M451 0h-369v1012h369v-301q12 67 35 122t61.5 101t98.5 72t136 26q142 0 222.5 -84.5t80.5 -238.5v-709h-368v565q0 100 -27 144.5t-106 44.5q-80 0 -106.5 -40t-26.5 -163v-551z" />
    <glyph glyph-name="o" unicode="o" horiz-adv-x="1150" 
d="M567 -20q-239 0 -382.5 148t-143.5 378t143.5 378t382.5 148q250 0 396.5 -147.5t146.5 -378.5t-146.5 -378.5t-396.5 -147.5zM575 274q160 0 160 232q0 125 -42 178t-118 53t-117.5 -53t-41.5 -178t41.5 -178.5t117.5 -53.5z" />
    <glyph glyph-name="p" unicode="p" horiz-adv-x="1181" 
d="M451 -381h-369v1393h369v-299q11 68 31.5 121.5t56 100t94.5 72t137 25.5q170 0 270.5 -136t100.5 -390q0 -256 -103.5 -391t-287.5 -135q-63 0 -112 17.5t-80 45t-53.5 70.5t-34 85t-19.5 97v-676zM451 461q0 -114 38.5 -158.5t104.5 -44.5q87 0 129.5 65.5t42.5 182.5
t-42.5 182.5t-129.5 65.5q-66 0 -104.5 -44.5t-38.5 -158.5v-90z" />
    <glyph glyph-name="q" unicode="q" horiz-adv-x="1181" 
d="M432 -20q-184 0 -287.5 135t-103.5 391q0 254 100.5 390t270.5 136q78 0 137 -25.5t94.5 -72t56 -100t31.5 -121.5v299h369v-1393h-369v676q-8 -55 -19.5 -97t-34 -85t-53.5 -70.5t-80 -45t-112 -17.5zM416 506q0 -117 42.5 -182.5t129.5 -65.5q66 0 104.5 44.5
t38.5 158.5v90q0 114 -38.5 158.5t-104.5 44.5q-87 0 -129.5 -65.5t-42.5 -182.5z" />
    <glyph glyph-name="r" unicode="r" horiz-adv-x="1036" 
d="M451 0h-369v1012h369v-342q12 70 36.5 131t63.5 114.5t99 85t134 31.5q242 0 242 -278q0 -83 -21.5 -157t-48.5 -122h-338q31 36 54.5 87.5t23.5 94.5q0 97 -84 97q-68 0 -114.5 -63.5t-46.5 -180.5v-510z" />
    <glyph glyph-name="s" unicode="s" horiz-adv-x="1019" 
d="M569 -20q-165 0 -311 45t-227 108l137 266q91 -62 207.5 -105.5t204.5 -43.5q82 0 82 41q0 22 -28 35.5t-110 35.5l-139 37q-165 44 -243.5 111.5t-78.5 189.5q0 155 120 242.5t323 87.5q150 0 269 -43t196 -100l-125 -262q-93 68 -193.5 102.5t-181.5 34.5
q-76 0 -76 -41q0 -23 30.5 -38.5t129.5 -45.5l104 -31q171 -49 250.5 -119.5t79.5 -189.5q0 -144 -113 -230.5t-307 -86.5z" />
    <glyph glyph-name="t" unicode="t" horiz-adv-x="858" 
d="M522 -20q-186 0 -272 93.5t-86 252.5v407h-144v279h144v114l368 164v-278h246v-279h-246v-354q0 -80 74 -80q34 0 70 23t61 61l101 -277q-42 -47 -124 -86.5t-192 -39.5z" />
    <glyph glyph-name="u" unicode="u" horiz-adv-x="1161" 
d="M379 -20q-142 0 -222.5 84.5t-80.5 238.5v709h368v-566q0 -99 27.5 -143.5t106.5 -44.5q80 0 106.5 40t26.5 163v551h368v-1012h-368v301q-11 -67 -35 -122t-62.5 -101t-98.5 -72t-136 -26z" />
    <glyph glyph-name="v" unicode="v" horiz-adv-x="1181" 
d="M823 0h-465l-348 1012h410l100 -408l74 -411l72 411l100 408h405z" />
    <glyph glyph-name="w" unicode="w" horiz-adv-x="1679" 
d="M711 0h-451l-250 1012h402l45 -432l32 -357l62 355l84 434h405l93 -434l57 -355l33 357l45 432h401l-250 -1012h-450l-72 360l-57 426l-58 -426z" />
    <glyph glyph-name="x" unicode="x" horiz-adv-x="1196" 
d="M420 0h-410l342 498l-334 514h410l72 -119l106 -229l88 206l74 142h410l-334 -514l342 -498h-412l-98 164l-90 184l-78 -178z" />
    <glyph glyph-name="y" unicode="y" horiz-adv-x="1208" 
d="M403 -401q-110 0 -215.5 34t-173.5 84l127 322q127 -117 250 -117q57 0 89 20.5t55 77.5l18 50h-219l-324 942h414l96 -363l78 -420l80 420l98 363h422l-352 -1061q-63 -186 -168 -269t-275 -83z" />
    <glyph glyph-name="z" unicode="z" horiz-adv-x="1044" 
d="M1004 0h-963v258l227 240l295 243l-370 -18h-132v289h922v-258l-240 -217l-313 -265l375 17h199v-289z" />
    <glyph glyph-name="braceleft" unicode="{" horiz-adv-x="714" 
d="M408 -61q-142 0 -224 61.5t-82 169.5q0 52 24 111.5t47.5 110.5t23.5 83q0 64 -107 64h-49v295h49q107 0 107 63q0 32 -23.5 83t-47.5 110.5t-24 111.5q0 108 82 170t224 62q143 0 245 -54v-299q-31 22 -76 38t-81 16q-58 0 -58 -43q0 -27 21 -65.5t42 -83.5t21 -87
q0 -72 -65 -121t-191 -49q126 0 191 -49t65 -121q0 -42 -21 -86.5t-42 -83t-21 -65.5q0 -43 58 -43q37 0 81.5 16t75.5 37v-299q-101 -53 -245 -53z" />
    <glyph glyph-name="bar" unicode="|" horiz-adv-x="542" 
d="M440 -190h-338v1753h338v-1753z" />
    <glyph glyph-name="braceright" unicode="}" horiz-adv-x="714" 
d="M307 -61q-145 0 -246 53v299q31 -22 75.5 -37.5t82.5 -15.5q57 0 57 43q0 27 -21 65.5t-41.5 83t-20.5 86.5q0 72 65 121t191 49q-126 0 -191 49t-65 121q0 42 20.5 87t41.5 83.5t21 65.5q0 43 -57 43q-36 0 -81.5 -16t-76.5 -38v299q102 54 246 54q141 0 223 -62
t82 -170q0 -52 -23.5 -111.5t-47 -110.5t-23.5 -83q0 -63 107 -63h49v-295h-49q-107 0 -107 -64q0 -32 23.5 -83t47 -110.5t23.5 -111.5q0 -108 -81.5 -169.5t-223.5 -61.5z" />
    <glyph glyph-name="asciitilde" unicode="~" horiz-adv-x="909" 
d="M354 414h-239q-54 91 -54 196q0 90 57.5 140.5t149.5 50.5q94 0 226 -86q59 -39 79 -39q25 0 25 26q0 28 -43 101h240q53 -89 53 -197q0 -91 -50 -140.5t-136 -49.5q-44 0 -92 15t-72.5 28t-67.5 39q-64 43 -92 43q-27 0 -27 -27q0 -31 43 -100z" />
    <glyph glyph-name="nbspace" unicode="&#xa0;" horiz-adv-x="348" 
 />
    <glyph glyph-name="exclamdown" unicode="&#xa1;" horiz-adv-x="614" 
d="M123 991h369v-350h-369v350zM143 514h328q0 -117 41 -418t41 -477h-492q0 174 41 475.5t41 419.5z" />
    <glyph glyph-name="cent" unicode="&#xa2;" horiz-adv-x="1091" 
d="M567 -20q-41 0 -59 2l-62 -226l-127 35l60 217q-159 52 -248.5 185t-89.5 313q0 230 143.5 378t382.5 148q45 0 88 -6l58 213l127 -35l-58 -211q183 -71 258 -233l-286 -189q-18 70 -56 111l-108 -397q121 3 164 155l286 -188q-56 -121 -182.5 -196.5t-290.5 -75.5z
M416 506q0 -115 51 -172l106 393q-71 -3 -114 -59t-43 -162z" />
    <glyph glyph-name="sterling" unicode="&#xa3;" horiz-adv-x="1335" 
d="M195 -33l-150 328q147 59 207.5 102t60.5 99q0 22 -6 43h-250v184h144q-76 133 -76 268q0 184 145.5 293t372.5 109t376.5 -105.5t205.5 -296.5l-269 -233q-51 146 -129 214t-172 68q-60 0 -97.5 -34t-37.5 -91q0 -76 55 -188l3 -4h294v-184h-241q-4 -99 -80.5 -168.5
t-247.5 -155.5q231 113 404 113q52 -1 123.5 -13t103.5 -12q35 0 52 22t16.5 55.5t-10 70t-25.5 69.5l303 -76q23 -79 23 -156.5t-25 -146.5t-92 -112t-170 -43q-84 0 -230 31.5t-246 31.5q-171 0 -335 -82z" />
    <glyph glyph-name="yen" unicode="&#xa5;" horiz-adv-x="1452" 
d="M907 0h-368v348h-443v184h391l-59 103h-332v184h228l-314 553h467l133 -303l121 -315l121 315l135 303h455l-316 -553h228v-184h-334l-59 -103h393v-184h-447v-348z" />
    <glyph glyph-name="brokenbar" unicode="&#xa6;" horiz-adv-x="542" 
d="M440 827h-338v736h338v-736zM440 -190h-338v735h338v-735z" />
    <glyph glyph-name="section" unicode="&#xa7;" horiz-adv-x="1024" 
d="M575 -20q-162 0 -291.5 43t-207.5 100l125 262q100 -72 208 -108.5t195 -36.5q58 0 58 34q0 21 -18.5 30.5t-76.5 25.5l-280 76q-120 33 -177 77.5t-57 130.5q0 93 84 143.5t207 35.5q-285 72 -285 299q0 136 106 218.5t302 82.5q161 0 288 -43.5t206 -100.5l-125 -262
q-98 71 -204.5 108.5t-189.5 37.5q-57 0 -57 -35q0 -21 15.5 -30.5t56.5 -20.5l12 -3l279 -79q127 -36 181 -81.5t54 -125.5q0 -95 -83.5 -144t-203.5 -34q145 -36 221 -103.5t76 -185.5q0 -142 -106.5 -226.5t-311.5 -84.5zM387 664l240 -66q52 -14 76 -1t24 44
q0 25 -17 40.5t-59 27.5l-250 69q-48 13 -73 -2t-25 -45q0 -25 19 -40t65 -27z" />
    <glyph glyph-name="dieresis" unicode="&#xa8;" 
d="M956 1120h-297v252h297v-252zM567 1120h-297v252h297v-252z" />
    <glyph glyph-name="copyright" unicode="&#xa9;" horiz-adv-x="1527" 
d="M764 -20q-323 0 -513 185t-190 507q0 324 189.5 508t513.5 184q152 0 281 -47.5t222.5 -134.5t146 -218.5t52.5 -291.5q0 -212 -91 -370t-249.5 -240t-361.5 -82zM764 199q206 0 331.5 121.5t125.5 351.5t-125.5 351.5t-331.5 121.5t-331.5 -121.5t-125.5 -351.5
t125.5 -351.5t331.5 -121.5zM774 272q-169 0 -281 111.5t-112 292.5t112 292t281 111q133 0 230.5 -67t128.5 -174l-183 -125q-14 62 -57 99.5t-109 37.5q-72 0 -112.5 -44t-40.5 -130t40.5 -130t112.5 -44q66 0 109 37.5t57 99.5l183 -125q-31 -108 -128.5 -175t-230.5 -67
z" />
    <glyph glyph-name="ordfeminine" unicode="&#xaa;" horiz-adv-x="626" 
d="M190 866q-61 0 -98 29t-37 90q0 58 47 95.5t131 68.5l117 43q-12 31 -59 31q-45 0 -91 -22t-77 -58l-82 151q109 99 260 99q108 0 168.5 -51t60.5 -150v-145q0 -17 5.5 -23t19.5 -6h31v-141h-125q-49 0 -82 23t-33 73v41q-35 -148 -156 -148zM240 1018q0 -25 39 -25
q67 0 67 76v6l-63 -22q-43 -15 -43 -35z" />
    <glyph glyph-name="guillemotleft" unicode="&#xab;" horiz-adv-x="1273" 
d="M575 418v-336l-534 266v316l534 266v-336l-276 -88zM1212 418v-336l-534 266v316l534 266v-336l-276 -88z" />
    <glyph glyph-name="logicalnot" unicode="&#xac;" horiz-adv-x="978" 
d="M61 578v292h857v-551h-293v259h-564z" />
    <glyph glyph-name="softhyphen" unicode="&#xad;" horiz-adv-x="677" 
d="M637 348h-596v316h596v-316z" />
    <glyph glyph-name="registered" unicode="&#xae;" horiz-adv-x="729" 
d="M365 815q-134 0 -224 84t-90 229t90 229.5t224 84.5q136 0 224.5 -84.5t88.5 -229.5t-88.5 -229t-224.5 -84zM365 924q194 0 194 204q0 205 -194 205q-195 0 -195 -205q0 -204 195 -204zM342 1008h-98v252h155q45 0 70 -21t25 -57q0 -27 -19.5 -47.5t-52.5 -24.5
q22 -6 33 -16.5t22 -34.5l25 -51h-107l-24 65q-9 20 -29 23v-88zM379 1182h-37v-33h37q20 0 20 16q0 17 -20 17z" />
    <glyph glyph-name="macron" unicode="&#xaf;" 
d="M899 1143h-571v207h571v-207z" />
    <glyph glyph-name="degree" unicode="&#xb0;" horiz-adv-x="565" 
d="M283 1010q-85 0 -143 56.5t-58 145.5q0 88 58 144.5t143 56.5t142.5 -56.5t57.5 -144.5q0 -89 -57.5 -145.5t-142.5 -56.5zM283 1151q25 0 39 16t14 45q0 60 -53 60q-25 0 -39.5 -15.5t-14.5 -44.5t14.5 -45t39.5 -16z" />
    <glyph glyph-name="plusminus" unicode="&#xb1;" horiz-adv-x="856" 
d="M795 98h-734v293h222v150h-222v293h222v219h292v-219h220v-293h-220v-150h220v-293z" />
    <glyph glyph-name="twosuperior" unicode="&#xb2;" horiz-adv-x="931" 
d="M829 557h-702v213l328 242q69 50 69 82q0 36 -47 36q-27 0 -53 -11t-58 -49.5t-53 -102.5l-211 141q26 126 144.5 205.5t271.5 79.5q134 0 219.5 -70.5t85.5 -187.5q0 -92 -49.5 -150t-152.5 -113l-80 -43l-158 -69l315 53h131v-256z" />
    <glyph glyph-name="threesuperior" unicode="&#xb3;" horiz-adv-x="952" 
d="M506 545q-273 0 -404 180l179 190q35 -61 81 -87.5t115 -26.5q86 0 86 43q0 21 -17.5 28t-56.5 7h-131v184h125q41 0 60.5 9t19.5 32q0 43 -80 43q-53 0 -103.5 -29t-76.5 -82l-176 170q42 82 141.5 134.5t233.5 52.5q156 0 246 -63.5t90 -164.5q0 -43 -15 -77.5
t-39.5 -56t-58 -35.5t-68.5 -19.5t-73 -5.5q127 0 196.5 -55.5t69.5 -149.5q0 -109 -95.5 -165t-248.5 -56z" />
    <glyph glyph-name="acute" unicode="&#xb4;" 
d="M629 1120h-281l125 252h408z" />
    <glyph glyph-name="paragraph" unicode="&#xb6;" horiz-adv-x="1089" 
d="M586 -231q-256 0 -406 172l182 301q84 -121 179 -121q98 0 98 102v240h-59q-101 0 -187 28.5t-151.5 82.5t-102.5 139.5t-37 193.5q0 115 37 205t102.5 146t151.5 85t187 29h428v-1208q0 -77 -24.5 -145.5t-73.5 -125.5t-132.5 -90.5t-191.5 -33.5z" />
    <glyph glyph-name="periodcentered" unicode="&#xb7;" horiz-adv-x="450" 
d="M410 322h-369v350h369v-350z" />
    <glyph glyph-name="cedilla" unicode="&#xb8;" 
d="M621 -401q-131 0 -218 75l58 144q27 -31 64 -52.5t73 -21.5q51 0 51 33q0 39 -53 39q-18 0 -59 -9l-54 60l92 133h152l-70 -88q83 1 125.5 -39t42.5 -109q0 -73 -52 -119t-152 -46z" />
    <glyph glyph-name="onesuperior" unicode="&#xb9;" horiz-adv-x="651" 
d="M549 549h-287v493h-160v256q90 0 121.5 13.5t50.5 60.5h275v-823z" />
    <glyph glyph-name="ordmasculine" unicode="&#xba;" horiz-adv-x="610" 
d="M305 866q-120 0 -192 74t-72 188q0 116 72 190.5t192 74.5t192 -74.5t72 -190.5q0 -114 -72 -188t-192 -74zM305 1024q29 0 43 22.5t14 81.5q0 60 -14.5 83.5t-42.5 23.5t-42.5 -23.5t-14.5 -83.5q0 -59 14 -81.5t43 -22.5z" />
    <glyph glyph-name="guillemotright" unicode="&#xbb;" horiz-adv-x="1273" 
d="M596 348l-535 -266v336l277 88l-277 88v336l535 -266v-316zM1233 348l-535 -266v336l277 88l-277 88v336l535 -266v-316z" />
    <glyph glyph-name="onequarter" unicode="&#xbc;" horiz-adv-x="1822" 
d="M463 -109h-297l1091 1590h297zM528 549h-286v493h-160v256q90 0 121.5 13.5t50.5 60.5h274v-823zM1622 0h-276v160h-410v223l354 440h332v-417h119v-246h-119v-160zM1208 406h148v182z" />
    <glyph glyph-name="onehalf" unicode="&#xbd;" horiz-adv-x="1880" 
d="M453 -109h-297l1091 1590h297zM528 549h-286v493h-160v256q90 0 121.5 13.5t50.5 60.5h274v-823zM1737 0h-703v213l328 242q70 50 70 82q0 36 -48 36q-19 0 -38.5 -6.5t-42.5 -23t-44.5 -50.5t-37.5 -83l-211 141q26 126 144 205.5t271 79.5q134 0 220 -70.5t86 -187.5
q0 -91 -50 -149.5t-153 -113.5l-80 -43l-158 -69l316 53h131v-256z" />
    <glyph glyph-name="threequarters" unicode="&#xbe;" horiz-adv-x="1994" 
d="M616 -109h-297l1092 1590h297zM463 545q-273 0 -404 180l179 190q35 -61 81 -87.5t115 -26.5q86 0 86 43q0 21 -17.5 28t-56.5 7h-131v184h125q41 0 60.5 9t19.5 32q0 43 -80 43q-53 0 -103.5 -29t-76.5 -82l-176 170q42 82 141.5 134.5t233.5 52.5q156 0 246 -63.5
t90 -164.5q0 -43 -15 -77.5t-39.5 -56t-58 -35.5t-68.5 -19.5t-73 -5.5q127 0 196.5 -55.5t69.5 -149.5q0 -109 -95.5 -165t-248.5 -56zM1753 0h-276v160h-410v223l354 440h332v-417h119v-246h-119v-160zM1339 406h148v182z" />
    <glyph glyph-name="questiondown" unicode="&#xbf;" horiz-adv-x="1138" 
d="M391 987h369v-350h-369v350zM401 528h342v-26q0 -72 -31.5 -137t-77 -111.5t-90.5 -86.5t-76.5 -78t-31.5 -69q0 -73 105 -73q94 0 184.5 71t124.5 203l268 -233q-26 -113 -116 -202.5t-217.5 -138t-266.5 -48.5q-234 0 -355.5 94.5t-121.5 259.5q0 61 20 113.5t51.5 91
t70 73.5t77 66.5t70 62.5t51.5 70t20 82v16z" />
    <glyph glyph-name="Agrave" unicode="&#xc0;" horiz-adv-x="1505" 
d="M905 1501h-280l-273 221h408zM403 0h-393l486 1372h514l485 -1372h-403l-84 256h-521zM655 764l-65 -201h315l-65 201l-92 344z" />
    <glyph glyph-name="Aacute" unicode="&#xc1;" horiz-adv-x="1505" 
d="M901 1501h-280l145 221h408zM403 0h-393l486 1372h514l485 -1372h-403l-84 256h-521zM655 764l-65 -201h315l-65 201l-92 344z" />
    <glyph glyph-name="Acircumflex" unicode="&#xc2;" horiz-adv-x="1505" 
d="M686 1501h-283l187 221h325l187 -221h-283l-65 92zM403 0h-393l486 1372h514l485 -1372h-403l-84 256h-521zM655 764l-65 -201h315l-65 201l-92 344z" />
    <glyph glyph-name="Atilde" unicode="&#xc3;" horiz-adv-x="1505" 
d="M682 1501h-182q-17 23 -28 61t-11 70q0 65 40 100t103 35q32 0 63.5 -9.5t49 -19t45.5 -26.5q56 -31 72 -31q20 0 20 21q0 25 -31 59h183q38 -61 38 -131q0 -65 -37.5 -100t-95.5 -35q-11 0 -22.5 1.5t-19.5 3.5t-21 7t-18 7t-19.5 9.5t-17 9l-17.5 10.5l-16 9
q-56 35 -74 35q-24 0 -24 -24t20 -62zM403 0h-393l486 1372h514l485 -1372h-403l-84 256h-521zM655 764l-65 -201h315l-65 201l-92 344z" />
    <glyph glyph-name="Adieresis" unicode="&#xc4;" horiz-adv-x="1505" 
d="M1096 1501h-297v221h297v-221zM707 1501h-297v221h297v-221zM403 0h-393l486 1372h514l485 -1372h-403l-84 256h-521zM655 764l-65 -201h315l-65 201l-92 344z" />
    <glyph glyph-name="Aring" unicode="&#xc5;" horiz-adv-x="1505" 
d="M403 0h-393l484 1364q-50 60 -50 139q0 113 87.5 174.5t220.5 61.5q134 0 220.5 -61t86.5 -175q0 -84 -47 -137l483 -1366h-403l-84 256h-521zM752 1450q28 0 45.5 15.5t17.5 37.5t-17.5 37.5t-45.5 15.5q-27 0 -44.5 -15.5t-17.5 -37.5t17.5 -37.5t44.5 -15.5zM655 764
l-65 -201h315l-65 201l-92 344z" />
    <glyph glyph-name="AE" unicode="&#xc6;" horiz-adv-x="2164" 
d="M408 0h-441l881 1372h1263v-328h-702v-194h600v-328h-600v-194h702v-328h-1071v256h-473zM760 563h280v447z" />
    <glyph glyph-name="Ccedilla" unicode="&#xc7;" horiz-adv-x="1398" 
d="M719 -401q-130 0 -217 75l57 144q27 -31 64 -52.5t73 -21.5q52 0 52 33q0 39 -54 39q-18 0 -59 -9l-53 60l84 121q-188 20 -328.5 117t-213.5 248t-73 335q0 148 49.5 277t139 224t223.5 149.5t295 54.5q213 0 372 -95t248 -260l-307 -264q-31 110 -113 186t-204 76
q-141 0 -222 -95.5t-81 -252.5t81 -252.5t222 -95.5q122 0 204 76t113 186l307 -264q-82 -154 -227 -247t-338 -105l-57 -74q83 1 125.5 -39t42.5 -109q0 -73 -52.5 -119t-152.5 -46z" />
    <glyph glyph-name="Egrave" unicode="&#xc8;" horiz-adv-x="1193" 
d="M758 1501h-281l-272 221h407zM1133 0h-1051v1372h1051v-328h-682v-194h579v-328h-579v-194h682v-328z" />
    <glyph glyph-name="Eacute" unicode="&#xc9;" horiz-adv-x="1193" 
d="M754 1501h-281l145 221h408zM1133 0h-1051v1372h1051v-328h-682v-194h579v-328h-579v-194h682v-328z" />
    <glyph glyph-name="Ecircumflex" unicode="&#xca;" horiz-adv-x="1193" 
d="M539 1501h-283l186 221h326l186 -221h-282l-66 92zM1133 0h-1051v1372h1051v-328h-682v-194h579v-328h-579v-194h682v-328z" />
    <glyph glyph-name="Edieresis" unicode="&#xcb;" horiz-adv-x="1193" 
d="M948 1501h-297v221h297v-221zM559 1501h-297v221h297v-221zM1133 0h-1051v1372h1051v-328h-682v-194h579v-328h-579v-194h682v-328z" />
    <glyph glyph-name="Igrave" unicode="&#xcc;" horiz-adv-x="532" 
d="M418 1501h-281l-272 221h407zM451 0h-369v1372h369v-1372z" />
    <glyph glyph-name="Iacute" unicode="&#xcd;" horiz-adv-x="532" 
d="M414 1501h-281l146 221h407zM451 0h-369v1372h369v-1372z" />
    <glyph glyph-name="Icircumflex" unicode="&#xce;" horiz-adv-x="532" 
d="M199 1501h-283l186 221h326l186 -221h-282l-66 92zM451 0h-369v1372h369v-1372z" />
    <glyph glyph-name="Idieresis" unicode="&#xcf;" horiz-adv-x="532" 
d="M608 1501h-297v221h297v-221zM219 1501h-297v221h297v-221zM451 0h-369v1372h369v-1372z" />
    <glyph glyph-name="Eth" unicode="&#xd0;" horiz-adv-x="1478" 
d="M762 0h-598v543h-144v286h144v543h592q199 0 352.5 -89t236 -244.5t82.5 -352.5q0 -147 -47.5 -273.5t-132.5 -217.5t-210 -143t-275 -52zM776 543h-244v-215h209q153 0 225 97.5t72 260.5q0 162 -74.5 260t-228.5 98h-203v-215h244v-286z" />
    <glyph glyph-name="Ntilde" unicode="&#xd1;" horiz-adv-x="1392" 
d="M625 1501h-183q-17 23 -28 61t-11 70q0 65 40.5 100t103.5 35q32 0 63.5 -9.5t49 -19t45.5 -26.5q56 -31 71 -31q21 0 21 21q0 25 -31 59h182q39 -63 39 -131q0 -65 -37.5 -100t-95.5 -35q-9 0 -18 1t-16 2.5t-17 4.5t-15.5 5t-15.5 6.5t-14.5 6.5t-15 8t-13.5 7.5t-14 8
t-13 7.5q-56 35 -73 35q-25 0 -25 -24q0 -22 21 -62zM451 0h-369v1372h369l403 -618l115 -215l-27 403v430h369v-1372h-357l-417 616l-119 211l33 -444v-383z" />
    <glyph glyph-name="Ograve" unicode="&#xd2;" horiz-adv-x="1515" 
d="M909 1501h-280l-273 221h408zM758 -16q-205 0 -367.5 93.5t-251 254t-88.5 356.5q0 147 52 276.5t144 224t224.5 149.5t286.5 55q205 0 367 -93.5t250.5 -254.5t88.5 -357t-88.5 -356.5t-250.5 -254t-367 -93.5zM758 342q154 0 235.5 95t81.5 251t-81.5 251t-235.5 95
t-236 -95.5t-82 -250.5t82 -250.5t236 -95.5z" />
    <glyph glyph-name="Oacute" unicode="&#xd3;" horiz-adv-x="1515" 
d="M905 1501h-280l145 221h408zM758 -16q-205 0 -367.5 93.5t-251 254t-88.5 356.5q0 147 52 276.5t144 224t224.5 149.5t286.5 55q205 0 367 -93.5t250.5 -254.5t88.5 -357t-88.5 -356.5t-250.5 -254t-367 -93.5zM758 342q154 0 235.5 95t81.5 251t-81.5 251t-235.5 95
t-236 -95.5t-82 -250.5t82 -250.5t236 -95.5z" />
    <glyph glyph-name="Ocircumflex" unicode="&#xd4;" horiz-adv-x="1515" 
d="M690 1501h-282l186 221h326l186 -221h-283l-65 92zM758 -16q-205 0 -367.5 93.5t-251 254t-88.5 356.5q0 147 52 276.5t144 224t224.5 149.5t286.5 55q205 0 367 -93.5t250.5 -254.5t88.5 -357t-88.5 -356.5t-250.5 -254t-367 -93.5zM758 342q154 0 235.5 95t81.5 251
t-81.5 251t-235.5 95t-236 -95.5t-82 -250.5t82 -250.5t236 -95.5z" />
    <glyph glyph-name="Otilde" unicode="&#xd5;" horiz-adv-x="1515" 
d="M686 1501h-182q-17 23 -28 61t-11 70q0 65 40 100t103 35q32 0 63.5 -9.5t49 -19t45.5 -26.5q56 -31 72 -31q20 0 20 21q0 25 -31 59h183q39 -63 39 -131q0 -65 -38 -100t-96 -35q-11 0 -22.5 1.5t-19.5 3.5t-21 7t-18 7t-19.5 9.5t-17 9l-17.5 10.5l-16 9q-56 35 -74 35
q-24 0 -24 -24t20 -62zM758 -16q-205 0 -367.5 93.5t-251 254t-88.5 356.5q0 147 52 276.5t144 224t224.5 149.5t286.5 55q205 0 367 -93.5t250.5 -254.5t88.5 -357t-88.5 -356.5t-250.5 -254t-367 -93.5zM758 342q154 0 235.5 95t81.5 251t-81.5 251t-235.5 95t-236 -95.5
t-82 -250.5t82 -250.5t236 -95.5z" />
    <glyph glyph-name="Odieresis" unicode="&#xd6;" horiz-adv-x="1515" 
d="M1100 1501h-297v221h297v-221zM711 1501h-297v221h297v-221zM758 -16q-205 0 -367.5 93.5t-251 254t-88.5 356.5q0 147 52 276.5t144 224t224.5 149.5t286.5 55q205 0 367 -93.5t250.5 -254.5t88.5 -357t-88.5 -356.5t-250.5 -254t-367 -93.5zM758 342q154 0 235.5 95
t81.5 251t-81.5 251t-235.5 95t-236 -95.5t-82 -250.5t82 -250.5t236 -95.5z" />
    <glyph glyph-name="multiply" unicode="&#xd7;" horiz-adv-x="909" 
d="M848 502l-207 -207l-186 186l-187 -186l-207 207l187 186l-185 184l207 207l185 -184l184 184l207 -207l-184 -184z" />
    <glyph glyph-name="Oslash" unicode="&#xd8;" horiz-adv-x="1515" 
d="M758 -16q-223 0 -391 108l-154 -145l-229 237l157 148q-90 159 -90 356q0 147 52 276.5t144 224t224.5 149.5t286.5 55q220 0 393 -111l149 141l230 -237l-154 -144q88 -161 88 -354q0 -196 -88.5 -356.5t-250.5 -254t-367 -93.5zM440 688q0 -24 4 -70l426 400
q-56 16 -112 16q-154 0 -236 -95.5t-82 -250.5zM758 342q154 0 235.5 95t81.5 251q0 26 -4 66l-422 -398q58 -14 109 -14z" />
    <glyph glyph-name="Ugrave" unicode="&#xd9;" horiz-adv-x="1376" 
d="M840 1501h-281l-272 221h407zM686 -20q-305 0 -459.5 156t-154.5 485v751h368v-756q0 -144 62 -211t186 -67q126 0 187 66.5t61 211.5v756h369v-751q0 -330 -154 -485.5t-465 -155.5z" />
    <glyph glyph-name="Uacute" unicode="&#xda;" horiz-adv-x="1376" 
d="M836 1501h-281l145 221h408zM686 -20q-305 0 -459.5 156t-154.5 485v751h368v-756q0 -144 62 -211t186 -67q126 0 187 66.5t61 211.5v756h369v-751q0 -330 -154 -485.5t-465 -155.5z" />
    <glyph glyph-name="Ucircumflex" unicode="&#xdb;" horiz-adv-x="1376" 
d="M621 1501h-283l186 221h326l186 -221h-282l-66 92zM686 -20q-305 0 -459.5 156t-154.5 485v751h368v-756q0 -144 62 -211t186 -67q126 0 187 66.5t61 211.5v756h369v-751q0 -330 -154 -485.5t-465 -155.5z" />
    <glyph glyph-name="Udieresis" unicode="&#xdc;" horiz-adv-x="1376" 
d="M1030 1501h-297v221h297v-221zM641 1501h-297v221h297v-221zM686 -20q-305 0 -459.5 156t-154.5 485v751h368v-756q0 -144 62 -211t186 -67q126 0 187 66.5t61 211.5v756h369v-751q0 -330 -154 -485.5t-465 -155.5z" />
    <glyph glyph-name="Yacute" unicode="&#xdd;" horiz-adv-x="1452" 
d="M874 1501h-280l145 221h408zM907 0h-368v442l-529 930h467l133 -303l121 -315l121 315l135 303h455l-535 -934v-438z" />
    <glyph glyph-name="Thorn" unicode="&#xde;" horiz-adv-x="1296" 
d="M451 0h-369v1372h369v-194h186q134 0 242.5 -27.5t191.5 -85t128.5 -153t45.5 -224.5t-45 -225.5t-127.5 -153.5t-191 -84.5t-244.5 -27.5h-186v-197zM641 850h-190v-326h190q107 0 161 42t54 122q0 162 -215 162z" />
    <glyph glyph-name="germandbls" unicode="&#xdf;" horiz-adv-x="1333" 
d="M451 0h-369v811q0 93 19 174t65 157.5t117.5 131t184.5 87t257 32.5q141 0 244.5 -29.5t161 -82t84 -116t26.5 -139.5q0 -71 -21.5 -126.5t-60.5 -90.5t-84.5 -58.5t-104.5 -35t-108.5 -15.5t-107.5 -4q144 0 247 -24t164 -70.5t89 -108t28 -143.5q0 -79 -23.5 -139
t-64.5 -100t-103 -65t-134 -35.5t-162 -10.5h-226v328h174q85 0 123.5 27.5t38.5 84.5q0 58 -38.5 85.5t-123.5 27.5h-174v287h144q139 0 139 102q0 64 -41 93.5t-129 29.5q-55 0 -94 -9.5t-71.5 -33.5t-49 -71t-16.5 -117v-834z" />
    <glyph glyph-name="agrave" unicode="&#xe0;" horiz-adv-x="1067" 
d="M668 1120h-281l-252 252h408zM305 -23q-118 0 -191 63t-73 193q0 122 73.5 196.5t243.5 127.5l273 84q-8 44 -35.5 63t-87.5 19q-87 0 -178 -43.5t-154 -114.5l-164 271q100 91 232 143.5t284 52.5q199 0 309.5 -98t110.5 -289v-305q0 -34 10.5 -46.5t38.5 -12.5h60v-281
h-209q-45 0 -84 10.5t-72 32t-52 60t-19 90.5v77q-13 -55 -34 -102t-57 -92.5t-93.5 -72t-131.5 -26.5zM369 285q0 -52 77 -52q91 0 133 37t42 115v31l-166 -60q-50 -18 -68 -34t-18 -37z" />
    <glyph glyph-name="aacute" unicode="&#xe1;" horiz-adv-x="1067" 
d="M682 1120h-281l125 252h408zM305 -23q-118 0 -191 63t-73 193q0 122 73.5 196.5t243.5 127.5l273 84q-8 44 -35.5 63t-87.5 19q-87 0 -178 -43.5t-154 -114.5l-164 271q100 91 232 143.5t284 52.5q199 0 309.5 -98t110.5 -289v-305q0 -34 10.5 -46.5t38.5 -12.5h60v-281
h-209q-45 0 -84 10.5t-72 32t-52 60t-19 90.5v77q-13 -55 -34 -102t-57 -92.5t-93.5 -72t-131.5 -26.5zM369 285q0 -52 77 -52q91 0 133 37t42 115v31l-166 -60q-50 -18 -68 -34t-18 -37z" />
    <glyph glyph-name="acircumflex" unicode="&#xe2;" horiz-adv-x="1067" 
d="M469 1120h-283l187 252h325l187 -252h-283l-65 123zM305 -23q-118 0 -191 63t-73 193q0 122 73.5 196.5t243.5 127.5l273 84q-8 44 -35.5 63t-87.5 19q-87 0 -178 -43.5t-154 -114.5l-164 271q100 91 232 143.5t284 52.5q199 0 309.5 -98t110.5 -289v-305
q0 -34 10.5 -46.5t38.5 -12.5h60v-281h-209q-45 0 -84 10.5t-72 32t-52 60t-19 90.5v77q-13 -55 -34 -102t-57 -92.5t-93.5 -72t-131.5 -26.5zM369 285q0 -52 77 -52q91 0 133 37t42 115v31l-166 -60q-50 -18 -68 -34t-18 -37z" />
    <glyph glyph-name="atilde" unicode="&#xe3;" horiz-adv-x="1067" 
d="M465 1120h-182q-17 23 -28 61t-11 70q0 65 40 100t103 35q32 0 63.5 -9.5t49 -19t45.5 -26.5q56 -31 71 -31q21 0 21 21q0 25 -31 59h182q39 -63 39 -131q0 -65 -37.5 -100t-95.5 -35q-11 0 -22.5 1.5t-19.5 3.5t-21 7t-18 7t-19.5 9.5t-17 9t-18.5 10.5l-15 9
q-56 35 -74 35q-25 0 -25 -24q0 -22 21 -62zM305 -23q-118 0 -191 63t-73 193q0 122 73.5 196.5t243.5 127.5l273 84q-8 44 -35.5 63t-87.5 19q-87 0 -178 -43.5t-154 -114.5l-164 271q100 91 232 143.5t284 52.5q199 0 309.5 -98t110.5 -289v-305q0 -34 10.5 -46.5
t38.5 -12.5h60v-281h-209q-45 0 -84 10.5t-72 32t-52 60t-19 90.5v77q-13 -55 -34 -102t-57 -92.5t-93.5 -72t-131.5 -26.5zM369 285q0 -52 77 -52q91 0 133 37t42 115v31l-166 -60q-50 -18 -68 -34t-18 -37z" />
    <glyph glyph-name="adieresis" unicode="&#xe4;" horiz-adv-x="1067" 
d="M879 1120h-297v252h297v-252zM489 1120h-296v252h296v-252zM305 -23q-118 0 -191 63t-73 193q0 122 73.5 196.5t243.5 127.5l273 84q-8 44 -35.5 63t-87.5 19q-87 0 -178 -43.5t-154 -114.5l-164 271q100 91 232 143.5t284 52.5q199 0 309.5 -98t110.5 -289v-305
q0 -34 10.5 -46.5t38.5 -12.5h60v-281h-209q-45 0 -84 10.5t-72 32t-52 60t-19 90.5v77q-13 -55 -34 -102t-57 -92.5t-93.5 -72t-131.5 -26.5zM369 285q0 -52 77 -52q91 0 133 37t42 115v31l-166 -60q-50 -18 -68 -34t-18 -37z" />
    <glyph glyph-name="aring" unicode="&#xe5;" horiz-adv-x="1067" 
d="M537 1100q-83 0 -138 39t-55 112t55 112.5t138 39.5t137.5 -39.5t54.5 -112.5t-54.5 -112t-137.5 -39zM537 1212q38 0 38 39t-38 39q-18 0 -28.5 -10.5t-10.5 -28.5t10.5 -28.5t28.5 -10.5zM305 -23q-118 0 -191 63t-73 193q0 122 73.5 196.5t243.5 127.5l273 84
q-8 44 -35.5 63t-87.5 19q-87 0 -178 -43.5t-154 -114.5l-164 271q100 91 232 143.5t284 52.5q199 0 309.5 -98t110.5 -289v-305q0 -34 10.5 -46.5t38.5 -12.5h60v-281h-209q-45 0 -84 10.5t-72 32t-52 60t-19 90.5v77q-13 -55 -34 -102t-57 -92.5t-93.5 -72t-131.5 -26.5z
M369 285q0 -52 77 -52q91 0 133 37t42 115v31l-166 -60q-50 -18 -68 -34t-18 -37z" />
    <glyph glyph-name="ae" unicode="&#xe6;" horiz-adv-x="1685" 
d="M340 -23q-135 0 -213 73t-78 192q0 213 283 282l305 74q-5 67 -33 96t-94 29q-85 0 -173.5 -43.5t-152.5 -114.5l-164 271q217 196 496 196q256 0 338 -172q37 85 122.5 128.5t199.5 43.5q115 0 203 -39.5t140.5 -107t78.5 -150.5t26 -178q0 -89 -10 -156h-653
q35 -127 217 -127q159 0 211 117l217 -213q-154 -198 -439 -198q-173 0 -292 77t-173 211q-31 -139 -124.5 -215t-237.5 -76zM954 612h334q0 67 -39.5 106.5t-124.5 39.5q-73 0 -117 -37t-53 -109zM449 225q26 -1 54 6t59 24t53.5 53.5t27.5 86.5l-180 -39q-88 -20 -88 -73
q0 -28 20 -43t54 -15z" />
    <glyph glyph-name="ccedilla" unicode="&#xe7;" horiz-adv-x="1050" 
d="M547 -401q-130 0 -217 75l57 144q27 -31 64 -52.5t73 -21.5q51 0 51 33q0 39 -53 39q-18 0 -59 -9l-53 60l82 117q-207 24 -329 168t-122 354q0 230 143.5 378t382.5 148q164 0 290.5 -75.5t182.5 -196.5l-286 -189q-44 156 -170 156q-76 0 -122 -55t-46 -166t46 -166
t122 -55q127 0 170 155l286 -188q-48 -106 -154 -178.5t-245 -89.5l-57 -72q83 1 125.5 -39t42.5 -109q0 -73 -52.5 -119t-152.5 -46z" />
    <glyph glyph-name="egrave" unicode="&#xe8;" horiz-adv-x="1097" 
d="M680 1120h-281l-252 252h408zM582 -20q-255 0 -398 145t-143 381q0 233 138.5 379.5t367.5 146.5q125 0 222.5 -39.5t155.5 -107t87.5 -151t29.5 -177.5q0 -107 -10 -149h-649q31 -134 205 -134q161 0 213 117l223 -213q-154 -198 -442 -198zM549 758q-76 0 -121 -41
t-51 -119h336q-9 160 -164 160z" />
    <glyph glyph-name="eacute" unicode="&#xe9;" horiz-adv-x="1097" 
d="M694 1120h-280l125 252h407zM582 -20q-255 0 -398 145t-143 381q0 233 138.5 379.5t367.5 146.5q125 0 222.5 -39.5t155.5 -107t87.5 -151t29.5 -177.5q0 -107 -10 -149h-649q31 -134 205 -134q161 0 213 117l223 -213q-154 -198 -442 -198zM549 758q-76 0 -121 -41
t-51 -119h336q-9 160 -164 160z" />
    <glyph glyph-name="ecircumflex" unicode="&#xea;" horiz-adv-x="1097" 
d="M481 1120h-282l186 252h326l186 -252h-283l-65 123zM582 -20q-255 0 -398 145t-143 381q0 233 138.5 379.5t367.5 146.5q125 0 222.5 -39.5t155.5 -107t87.5 -151t29.5 -177.5q0 -107 -10 -149h-649q31 -134 205 -134q161 0 213 117l223 -213q-154 -198 -442 -198z
M549 758q-76 0 -121 -41t-51 -119h336q-9 160 -164 160z" />
    <glyph glyph-name="edieresis" unicode="&#xeb;" horiz-adv-x="1097" 
d="M891 1120h-297v252h297v-252zM502 1120h-297v252h297v-252zM582 -20q-255 0 -398 145t-143 381q0 233 138.5 379.5t367.5 146.5q125 0 222.5 -39.5t155.5 -107t87.5 -151t29.5 -177.5q0 -107 -10 -149h-649q31 -134 205 -134q161 0 213 117l223 -213q-154 -198 -442 -198
zM549 758q-76 0 -121 -41t-51 -119h336q-9 160 -164 160z" />
    <glyph glyph-name="igrave" unicode="&#xec;" horiz-adv-x="532" 
d="M397 1120h-280l-252 252h407zM451 0h-369v1012h369v-1012z" />
    <glyph glyph-name="iacute" unicode="&#xed;" horiz-adv-x="532" 
d="M412 1120h-281l125 252h408zM451 0h-369v1012h369v-1012z" />
    <glyph glyph-name="icircumflex" unicode="&#xee;" horiz-adv-x="532" 
d="M199 1120h-283l186 252h326l186 -252h-282l-66 123zM451 0h-369v1012h369v-1012z" />
    <glyph glyph-name="idieresis" unicode="&#xef;" horiz-adv-x="532" 
d="M608 1120h-297v252h297v-252zM219 1120h-297v252h297v-252zM451 0h-369v1012h369v-1012z" />
    <glyph glyph-name="eth" unicode="&#xf0;" horiz-adv-x="1249" 
d="M604 -20q-254 0 -408.5 134.5t-154.5 370.5q0 203 106 318t277 115q127 0 211.5 -72t124.5 -195v51q0 186 -170 385l-285 -106l-45 115l236 90q-137 125 -287 186h448q91 -45 138 -74l249 95l48 -115l-181 -68q277 -247 277 -618q0 -183 -64.5 -319.5t-197.5 -214.5
t-322 -78zM608 330q158 0 158 164q0 75 -39 124.5t-121 49.5t-121 -49.5t-39 -124.5t39 -119.5t123 -44.5z" />
    <glyph glyph-name="ntilde" unicode="&#xf1;" horiz-adv-x="1161" 
d="M514 1120h-182q-17 23 -28 61t-11 70q0 65 40 100t103 35q32 0 63.5 -9.5t49 -19t45.5 -26.5q56 -31 72 -31q20 0 20 21q0 25 -31 59h183q39 -63 39 -131q0 -65 -38 -100t-96 -35q-11 0 -22.5 1.5t-19.5 3.5t-21 7t-18 7t-19.5 9.5t-17 9l-17.5 10.5l-16 9q-56 35 -74 35
q-24 0 -24 -24t20 -62zM451 0h-369v1012h369v-301q12 67 35 122t61.5 101t98.5 72t136 26q142 0 222.5 -84.5t80.5 -238.5v-709h-368v565q0 100 -27 144.5t-106 44.5q-80 0 -106.5 -40t-26.5 -163v-551z" />
    <glyph glyph-name="ograve" unicode="&#xf2;" horiz-adv-x="1150" 
d="M707 1120h-281l-252 252h408zM567 -20q-239 0 -382.5 148t-143.5 378t143.5 378t382.5 148q250 0 396.5 -147.5t146.5 -378.5t-146.5 -378.5t-396.5 -147.5zM575 274q160 0 160 232q0 125 -42 178t-118 53t-117.5 -53t-41.5 -178t41.5 -178.5t117.5 -53.5z" />
    <glyph glyph-name="oacute" unicode="&#xf3;" horiz-adv-x="1150" 
d="M721 1120h-281l125 252h408zM567 -20q-239 0 -382.5 148t-143.5 378t143.5 378t382.5 148q250 0 396.5 -147.5t146.5 -378.5t-146.5 -378.5t-396.5 -147.5zM575 274q160 0 160 232q0 125 -42 178t-118 53t-117.5 -53t-41.5 -178t41.5 -178.5t117.5 -53.5z" />
    <glyph glyph-name="ocircumflex" unicode="&#xf4;" horiz-adv-x="1150" 
d="M508 1120h-283l187 252h325l187 -252h-283l-66 123zM567 -20q-239 0 -382.5 148t-143.5 378t143.5 378t382.5 148q250 0 396.5 -147.5t146.5 -378.5t-146.5 -378.5t-396.5 -147.5zM575 274q160 0 160 232q0 125 -42 178t-118 53t-117.5 -53t-41.5 -178t41.5 -178.5
t117.5 -53.5z" />
    <glyph glyph-name="otilde" unicode="&#xf5;" horiz-adv-x="1150" 
d="M504 1120h-182q-17 23 -28 61t-11 70q0 65 40 100t103 35q32 0 63.5 -9.5t49 -19t45.5 -26.5q56 -31 71 -31q21 0 21 21q0 25 -31 59h182q39 -63 39 -131q0 -65 -37.5 -100t-95.5 -35q-11 0 -22.5 1.5t-19.5 3.5t-21 7t-18 7t-19.5 9.5t-17 9l-17.5 10.5l-16 9
q-56 35 -74 35q-25 0 -25 -24q0 -22 21 -62zM567 -20q-239 0 -382.5 148t-143.5 378t143.5 378t382.5 148q250 0 396.5 -147.5t146.5 -378.5t-146.5 -378.5t-396.5 -147.5zM575 274q160 0 160 232q0 125 -42 178t-118 53t-117.5 -53t-41.5 -178t41.5 -178.5t117.5 -53.5z
" />
    <glyph glyph-name="odieresis" unicode="&#xf6;" horiz-adv-x="1150" 
d="M918 1120h-297v252h297v-252zM528 1120h-297v252h297v-252zM567 -20q-239 0 -382.5 148t-143.5 378t143.5 378t382.5 148q250 0 396.5 -147.5t146.5 -378.5t-146.5 -378.5t-396.5 -147.5zM575 274q160 0 160 232q0 125 -42 178t-118 53t-117.5 -53t-41.5 -178
t41.5 -178.5t117.5 -53.5z" />
    <glyph glyph-name="divide" unicode="&#xf7;" horiz-adv-x="917" 
d="M643 963h-369v350h369v-350zM856 541h-795v293h795v-293zM643 61h-369v351h369v-351z" />
    <glyph glyph-name="oslash" unicode="&#xf8;" horiz-adv-x="1150" 
d="M567 -20q-170 0 -303 81l-145 -135l-135 144l141 131q-84 136 -84 305q0 230 143.5 378t382.5 148q206 0 342 -102l144 133l135 -143l-148 -138q70 -121 70 -276q0 -231 -146.5 -378.5t-396.5 -147.5zM416 506v-35l254 238q-35 28 -95 28q-76 0 -117.5 -53t-41.5 -178z
M575 274q160 0 160 226l-227 -213q33 -13 67 -13z" />
    <glyph glyph-name="ugrave" unicode="&#xf9;" horiz-adv-x="1161" 
d="M713 1120h-281l-252 252h408zM379 -20q-142 0 -222.5 84.5t-80.5 238.5v709h368v-566q0 -99 27.5 -143.5t106.5 -44.5q80 0 106.5 40t26.5 163v551h368v-1012h-368v301q-11 -67 -35 -122t-62.5 -101t-98.5 -72t-136 -26z" />
    <glyph glyph-name="uacute" unicode="&#xfa;" horiz-adv-x="1161" 
d="M727 1120h-281l125 252h408zM379 -20q-142 0 -222.5 84.5t-80.5 238.5v709h368v-566q0 -99 27.5 -143.5t106.5 -44.5q80 0 106.5 40t26.5 163v551h368v-1012h-368v301q-11 -67 -35 -122t-62.5 -101t-98.5 -72t-136 -26z" />
    <glyph glyph-name="ucircumflex" unicode="&#xfb;" horiz-adv-x="1161" 
d="M514 1120h-283l187 252h325l187 -252h-283l-65 123zM379 -20q-142 0 -222.5 84.5t-80.5 238.5v709h368v-566q0 -99 27.5 -143.5t106.5 -44.5q80 0 106.5 40t26.5 163v551h368v-1012h-368v301q-11 -67 -35 -122t-62.5 -101t-98.5 -72t-136 -26z" />
    <glyph glyph-name="udieresis" unicode="&#xfc;" horiz-adv-x="1161" 
d="M924 1120h-297v252h297v-252zM535 1120h-297v252h297v-252zM379 -20q-142 0 -222.5 84.5t-80.5 238.5v709h368v-566q0 -99 27.5 -143.5t106.5 -44.5q80 0 106.5 40t26.5 163v551h368v-1012h-368v301q-11 -67 -35 -122t-62.5 -101t-98.5 -72t-136 -26z" />
    <glyph glyph-name="yacute" unicode="&#xfd;" horiz-adv-x="1208" 
d="M750 1120h-281l125 252h407zM403 -401q-110 0 -215.5 34t-173.5 84l127 322q127 -117 250 -117q57 0 89 20.5t55 77.5l18 50h-219l-324 942h414l96 -363l78 -420l80 420l98 363h422l-352 -1061q-63 -186 -168 -269t-275 -83z" />
    <glyph glyph-name="thorn" unicode="&#xfe;" horiz-adv-x="1181" 
d="M451 -381h-369v1753h369v-655q8 55 19.5 97t34 85t53.5 70.5t80 45t112 17.5q185 0 288 -134.5t103 -391.5q0 -254 -100.5 -390t-270.5 -136q-78 0 -137 25.5t-94.5 72t-56 100t-31.5 121.5v-680zM451 461q0 -114 38.5 -158.5t104.5 -44.5q87 0 129.5 65.5t42.5 182.5
t-42.5 182.5t-129.5 65.5q-66 0 -104.5 -44.5t-38.5 -158.5v-90z" />
    <glyph glyph-name="ydieresis" unicode="&#xff;" horiz-adv-x="1208" 
d="M946 1120h-297v252h297v-252zM557 1120h-297v252h297v-252zM403 -401q-110 0 -215.5 34t-173.5 84l127 322q127 -117 250 -117q57 0 89 20.5t55 77.5l18 50h-219l-324 942h414l96 -363l78 -420l80 420l98 363h422l-352 -1061q-63 -186 -168 -269t-275 -83z" />
    <glyph glyph-name="Amacron" unicode="&#x100;" horiz-adv-x="1505" 
d="M1038 1509h-571v207h571v-207zM403 0h-393l486 1372h514l485 -1372h-403l-84 256h-521zM655 764l-65 -201h315l-65 201l-92 344z" />
    <glyph glyph-name="amacron" unicode="&#x101;" horiz-adv-x="1067" 
d="M821 1143h-571v207h571v-207zM305 -23q-118 0 -191 63t-73 193q0 122 73.5 196.5t243.5 127.5l273 84q-8 44 -35.5 63t-87.5 19q-87 0 -178 -43.5t-154 -114.5l-164 271q100 91 232 143.5t284 52.5q199 0 309.5 -98t110.5 -289v-305q0 -34 10.5 -46.5t38.5 -12.5h60v-281
h-209q-45 0 -84 10.5t-72 32t-52 60t-19 90.5v77q-13 -55 -34 -102t-57 -92.5t-93.5 -72t-131.5 -26.5zM369 285q0 -52 77 -52q91 0 133 37t42 115v31l-166 -60q-50 -18 -68 -34t-18 -37z" />
    <glyph glyph-name="Abreve" unicode="&#x102;" horiz-adv-x="1505" 
d="M754 1481q-273 0 -273 235v37h203v-37q0 -35 15.5 -50t54.5 -15t54 15t15 50v37h203v-35q0 -237 -272 -237zM403 0h-393l486 1372h514l485 -1372h-403l-84 256h-521zM655 764l-65 -201h315l-65 201l-92 344z" />
    <glyph glyph-name="abreve" unicode="&#x103;" horiz-adv-x="1067" 
d="M537 1100q-273 0 -273 235v37h203v-37q0 -35 15.5 -50t54.5 -15t54 15t15 50v37h203v-35q0 -237 -272 -237zM305 -23q-118 0 -191 63t-73 193q0 122 73.5 196.5t243.5 127.5l273 84q-8 44 -35.5 63t-87.5 19q-87 0 -178 -43.5t-154 -114.5l-164 271q100 91 232 143.5
t284 52.5q199 0 309.5 -98t110.5 -289v-305q0 -34 10.5 -46.5t38.5 -12.5h60v-281h-209q-45 0 -84 10.5t-72 32t-52 60t-19 90.5v77q-13 -55 -34 -102t-57 -92.5t-93.5 -72t-131.5 -26.5zM369 285q0 -52 77 -52q91 0 133 37t42 115v31l-166 -60q-50 -18 -68 -34t-18 -37z
" />
    <glyph glyph-name="Aogonek" unicode="&#x104;" horiz-adv-x="1505" 
d="M403 0h-393l486 1372h514l485 -1372l-70 -133q-15 -31 -4.5 -49.5t37.5 -18.5q24 0 42.5 17t49.5 59l68 -156q-33 -47 -98.5 -83.5t-147.5 -36.5q-123 0 -165 83.5t30 202.5l72 115h-217l-84 256h-521zM655 764l-65 -201h315l-65 201l-92 344z" />
    <glyph glyph-name="aogonek" unicode="&#x105;" horiz-adv-x="1067" 
d="M305 -23q-118 0 -191 63t-73 193q0 122 73.5 196.5t243.5 127.5l273 84q-8 44 -35.5 63t-87.5 19q-87 0 -178 -43.5t-154 -114.5l-164 271q100 91 232 143.5t284 52.5q199 0 309.5 -98t110.5 -289v-305q0 -34 10.5 -46.5t38.5 -12.5h60v-281l-70 -133q-15 -31 -4.5 -49.5
t37.5 -18.5q24 0 42.5 17t49.5 59l68 -156q-33 -47 -98.5 -83.5t-147.5 -36.5q-123 0 -165 83.5t30 202.5l71 115h-22q-45 0 -84 10.5t-72 32t-52 60t-19 90.5v77q-13 -55 -34 -102t-57 -92.5t-93.5 -72t-131.5 -26.5zM369 285q0 -52 77 -52q91 0 133 37t42 115v31l-166 -60
q-50 -18 -68 -34t-18 -37z" />
    <glyph glyph-name="Cacute" unicode="&#x106;" horiz-adv-x="1398" 
d="M862 1501h-280l145 221h408zM758 -16q-161 0 -295 54.5t-223.5 149.5t-139 223.5t-49.5 276.5t49.5 277t139 224t223.5 149.5t295 54.5q213 0 372 -95t248 -260l-307 -264q-31 110 -113 186t-204 76q-141 0 -222 -95.5t-81 -252.5t81 -252.5t222 -95.5q122 0 204 76
t113 186l307 -264q-89 -165 -247.5 -259.5t-372.5 -94.5z" />
    <glyph glyph-name="cacute" unicode="&#x107;" horiz-adv-x="1050" 
d="M713 1120h-281l125 252h408zM567 -20q-239 0 -382.5 148t-143.5 378t143.5 378t382.5 148q164 0 290.5 -75.5t182.5 -196.5l-286 -189q-44 156 -170 156q-76 0 -122 -55t-46 -166t46 -166t122 -55q127 0 170 155l286 -188q-56 -121 -182.5 -196.5t-290.5 -75.5z" />
    <glyph glyph-name="Ccircumflex" unicode="&#x108;" horiz-adv-x="1398" 
d="M647 1501h-282l186 221h326l186 -221h-283l-65 92zM758 -16q-161 0 -295 54.5t-223.5 149.5t-139 223.5t-49.5 276.5t49.5 277t139 224t223.5 149.5t295 54.5q213 0 372 -95t248 -260l-307 -264q-31 110 -113 186t-204 76q-141 0 -222 -95.5t-81 -252.5t81 -252.5
t222 -95.5q122 0 204 76t113 186l307 -264q-89 -165 -247.5 -259.5t-372.5 -94.5z" />
    <glyph glyph-name="ccircumflex" unicode="&#x109;" horiz-adv-x="1050" 
d="M500 1120h-283l186 252h326l186 -252h-282l-66 123zM567 -20q-239 0 -382.5 148t-143.5 378t143.5 378t382.5 148q164 0 290.5 -75.5t182.5 -196.5l-286 -189q-44 156 -170 156q-76 0 -122 -55t-46 -166t46 -166t122 -55q127 0 170 155l286 -188q-56 -121 -182.5 -196.5
t-290.5 -75.5z" />
    <glyph glyph-name="Cdotaccent" unicode="&#x10a;" horiz-adv-x="1398" 
d="M899 1501h-369v221h369v-221zM758 -16q-161 0 -295 54.5t-223.5 149.5t-139 223.5t-49.5 276.5t49.5 277t139 224t223.5 149.5t295 54.5q213 0 372 -95t248 -260l-307 -264q-31 110 -113 186t-204 76q-141 0 -222 -95.5t-81 -252.5t81 -252.5t222 -95.5q122 0 204 76
t113 186l307 -264q-89 -165 -247.5 -259.5t-372.5 -94.5z" />
    <glyph glyph-name="cdotaccent" unicode="&#x10b;" horiz-adv-x="1050" 
d="M752 1104h-369v268h369v-268zM567 -20q-239 0 -382.5 148t-143.5 378t143.5 378t382.5 148q164 0 290.5 -75.5t182.5 -196.5l-286 -189q-44 156 -170 156q-76 0 -122 -55t-46 -166t46 -166t122 -55q127 0 170 155l286 -188q-56 -121 -182.5 -196.5t-290.5 -75.5z" />
    <glyph glyph-name="Ccaron" unicode="&#x10c;" horiz-adv-x="1398" 
d="M877 1501h-326l-186 221h282l68 -92l65 92h283zM758 -16q-161 0 -295 54.5t-223.5 149.5t-139 223.5t-49.5 276.5t49.5 277t139 224t223.5 149.5t295 54.5q213 0 372 -95t248 -260l-307 -264q-31 110 -113 186t-204 76q-141 0 -222 -95.5t-81 -252.5t81 -252.5t222 -95.5
q122 0 204 76t113 186l307 -264q-89 -165 -247.5 -259.5t-372.5 -94.5z" />
    <glyph glyph-name="ccaron" unicode="&#x10d;" horiz-adv-x="1050" 
d="M729 1120h-326l-186 252h283l67 -123l66 123h282zM567 -20q-239 0 -382.5 148t-143.5 378t143.5 378t382.5 148q164 0 290.5 -75.5t182.5 -196.5l-286 -189q-44 156 -170 156q-76 0 -122 -55t-46 -166t46 -166t122 -55q127 0 170 155l286 -188q-56 -121 -182.5 -196.5
t-290.5 -75.5z" />
    <glyph glyph-name="Dcaron" unicode="&#x10e;" horiz-adv-x="1398" 
d="M803 1501h-326l-186 221h282l68 -92l66 92h282zM680 0h-598v1372h592q199 0 353 -89t236.5 -244.5t82.5 -352.5t-81 -352.5t-233.5 -244.5t-351.5 -89zM653 1044h-202v-716h208q153 0 225 97.5t72 260.5q0 162 -74.5 260t-228.5 98z" />
    <glyph glyph-name="dcaron" unicode="&#x10f;" horiz-adv-x="1400" 
d="M420 -20q-184 0 -287.5 135t-103.5 391q0 254 100 390t270 136q78 0 137 -25.5t95 -72t56.5 -100t31.5 -121.5v659h368v-1372h-368v295q-8 -55 -19.5 -97t-34 -85t-53.5 -70.5t-80 -45t-112 -17.5zM1221 897l-58 158q74 0 110 13t36 52v4h-152v248h354v-209
q0 -123 -75.5 -189t-214.5 -77zM403 506q0 -117 42.5 -182.5t129.5 -65.5q67 0 105.5 44.5t38.5 158.5v90q0 114 -41 158.5t-111 44.5q-82 0 -123 -66t-41 -182z" />
    <glyph glyph-name="Dcroat" unicode="&#x110;" horiz-adv-x="1478" 
d="M762 0h-598v543h-144v286h144v543h592q199 0 352.5 -89t236 -244.5t82.5 -352.5q0 -147 -47.5 -273.5t-132.5 -217.5t-210 -143t-275 -52zM776 543h-244v-215h209q153 0 225 97.5t72 260.5q0 162 -74.5 260t-228.5 98h-203v-215h244v-286z" />
    <glyph glyph-name="dcroat" unicode="&#x111;" horiz-adv-x="1263" 
d="M412 -20q-171 0 -271 125.5t-100 369.5t100 370t271 126q263 0 319 -322v385h-319v246h319v92h369v-92h143v-246h-143v-1034h-369v301q-56 -321 -319 -321zM416 475q0 -108 38.5 -162.5t125.5 -54.5q151 0 151 203v28q0 203 -151 203q-87 0 -125.5 -54.5t-38.5 -162.5z
" />
    <glyph glyph-name="Emacron" unicode="&#x112;" horiz-adv-x="1193" 
d="M891 1509h-572v207h572v-207zM1133 0h-1051v1372h1051v-328h-682v-194h579v-328h-579v-194h682v-328z" />
    <glyph glyph-name="emacron" unicode="&#x113;" horiz-adv-x="1097" 
d="M834 1143h-572v207h572v-207zM582 -20q-255 0 -398 145t-143 381q0 233 138.5 379.5t367.5 146.5q125 0 222.5 -39.5t155.5 -107t87.5 -151t29.5 -177.5q0 -107 -10 -149h-649q31 -134 205 -134q161 0 213 117l223 -213q-154 -198 -442 -198zM549 758q-76 0 -121 -41
t-51 -119h336q-9 160 -164 160z" />
    <glyph glyph-name="Ebreve" unicode="&#x114;" horiz-adv-x="1193" 
d="M606 1481q-272 0 -272 235v37h203v-37q0 -35 15 -50t54 -15t54.5 15t15.5 50v37h203v-35q0 -237 -273 -237zM1133 0h-1051v1372h1051v-328h-682v-194h579v-328h-579v-194h682v-328z" />
    <glyph glyph-name="ebreve" unicode="&#x115;" horiz-adv-x="1097" 
d="M549 1100q-273 0 -273 235v37h203v-37q0 -35 15.5 -50t54.5 -15t54 15t15 50v37h203v-35q0 -237 -272 -237zM582 -20q-255 0 -398 145t-143 381q0 233 138.5 379.5t367.5 146.5q125 0 222.5 -39.5t155.5 -107t87.5 -151t29.5 -177.5q0 -107 -10 -149h-649
q31 -134 205 -134q161 0 213 117l223 -213q-154 -198 -442 -198zM549 758q-76 0 -121 -41t-51 -119h336q-9 160 -164 160z" />
    <glyph glyph-name="Edotaccent" unicode="&#x116;" horiz-adv-x="1193" 
d="M791 1501h-369v221h369v-221zM1133 0h-1051v1372h1051v-328h-682v-194h579v-328h-579v-194h682v-328z" />
    <glyph glyph-name="edotaccent" unicode="&#x117;" horiz-adv-x="1097" 
d="M733 1104h-368v268h368v-268zM582 -20q-255 0 -398 145t-143 381q0 233 138.5 379.5t367.5 146.5q125 0 222.5 -39.5t155.5 -107t87.5 -151t29.5 -177.5q0 -107 -10 -149h-649q31 -134 205 -134q161 0 213 117l223 -213q-154 -198 -442 -198zM549 758q-76 0 -121 -41
t-51 -119h336q-9 160 -164 160z" />
    <glyph glyph-name="Eogonek" unicode="&#x118;" horiz-adv-x="1193" 
d="M1010 -401q-123 0 -165.5 83.5t29.5 202.5l72 115h-864v1372h1051v-328h-682v-194h579v-328h-579v-194h682v-328l-70 -133q-15 -31 -4.5 -49.5t37.5 -18.5q24 0 42.5 17t49.5 59l67 -156q-33 -47 -98 -83.5t-147 -36.5z" />
    <glyph glyph-name="eogonek" unicode="&#x119;" horiz-adv-x="1097" 
d="M629 -401q-123 0 -165 83.5t30 202.5l59 95q-242 9 -377 153t-135 373q0 233 138.5 379.5t367.5 146.5q125 0 222.5 -39.5t155.5 -107t87.5 -151t29.5 -177.5q0 -107 -10 -149h-649q31 -134 205 -134q161 0 213 117l223 -213q-106 -134 -272 -178l-70 -133
q-15 -31 -4.5 -49.5t37.5 -18.5q24 0 42.5 17t49.5 59l67 -156q-33 -47 -98 -83.5t-147 -36.5zM549 758q-76 0 -121 -41t-51 -119h336q-9 160 -164 160z" />
    <glyph glyph-name="Ecaron" unicode="&#x11a;" horiz-adv-x="1193" 
d="M768 1501h-326l-186 221h283l67 -92l66 92h282zM1133 0h-1051v1372h1051v-328h-682v-194h579v-328h-579v-194h682v-328z" />
    <glyph glyph-name="ecaron" unicode="&#x11b;" horiz-adv-x="1097" 
d="M711 1120h-326l-186 252h282l68 -123l65 123h283zM582 -20q-255 0 -398 145t-143 381q0 233 138.5 379.5t367.5 146.5q125 0 222.5 -39.5t155.5 -107t87.5 -151t29.5 -177.5q0 -107 -10 -149h-649q31 -134 205 -134q161 0 213 117l223 -213q-154 -198 -442 -198zM549 758
q-76 0 -121 -41t-51 -119h336q-9 160 -164 160z" />
    <glyph glyph-name="Gcircumflex" unicode="&#x11c;" horiz-adv-x="1490" 
d="M659 1501h-282l186 221h326l186 -221h-282l-66 92zM623 -16q-93 0 -176 25t-156 80t-126 135.5t-83.5 199.5t-30.5 264q0 207 84 365.5t249 249t390 90.5q217 0 381 -90t240 -244l-308 -244q-22 98 -105.5 159.5t-207.5 61.5q-158 0 -240.5 -93t-82.5 -255
q0 -171 87.5 -264.5t233.5 -93.5q199 0 291 151h-346v287h692v-768h-250l-78 481q-13 -251 -130 -374t-328 -123z" />
    <glyph glyph-name="gcircumflex" unicode="&#x11d;" horiz-adv-x="1118" 
d="M494 1120h-283l186 252h326l186 -252h-282l-66 123zM561 283q-145 0 -256 51q-14 -28 -14 -55q0 -70 90 -70h389q180 0 262 -67t82 -183q0 -73 -36.5 -136.5t-109.5 -114.5t-196 -80t-283 -29q-250 0 -379.5 59t-129.5 149q0 72 72.5 110t193.5 40q-189 30 -189 164
q0 78 59.5 141t141.5 98q-80 50 -124 126.5t-44 170.5q0 168 129.5 271.5t341.5 103.5t341.5 -103.5t129.5 -271.5t-129.5 -271t-341.5 -103zM561 516q59 0 95 35.5t36 105.5t-36 106t-95 36t-95 -36t-36 -106t36 -105.5t95 -35.5zM530 -154q275 0 275 70q0 24 -22 32.5
t-70 8.5h-437q-4 -12 -4 -27q0 -43 61.5 -63.5t196.5 -20.5z" />
    <glyph glyph-name="Gbreve" unicode="&#x11e;" horiz-adv-x="1490" 
d="M727 1481q-272 0 -272 235v37h202v-37q0 -35 15.5 -50t54.5 -15t54.5 15t15.5 50v37h202v-35q0 -237 -272 -237zM623 -16q-93 0 -176 25t-156 80t-126 135.5t-83.5 199.5t-30.5 264q0 207 84 365.5t249 249t390 90.5q217 0 381 -90t240 -244l-308 -244
q-22 98 -105.5 159.5t-207.5 61.5q-158 0 -240.5 -93t-82.5 -255q0 -171 87.5 -264.5t233.5 -93.5q199 0 291 151h-346v287h692v-768h-250l-78 481q-13 -251 -130 -374t-328 -123z" />
    <glyph glyph-name="gbreve" unicode="&#x11f;" horiz-adv-x="1118" 
d="M561 1100q-272 0 -272 235v37h203v-37q0 -35 15 -50t54 -15t54.5 15t15.5 50v37h203v-35q0 -237 -273 -237zM561 283q-145 0 -256 51q-14 -28 -14 -55q0 -70 90 -70h389q180 0 262 -67t82 -183q0 -73 -36.5 -136.5t-109.5 -114.5t-196 -80t-283 -29q-250 0 -379.5 59
t-129.5 149q0 72 72.5 110t193.5 40q-189 30 -189 164q0 78 59.5 141t141.5 98q-80 50 -124 126.5t-44 170.5q0 168 129.5 271.5t341.5 103.5t341.5 -103.5t129.5 -271.5t-129.5 -271t-341.5 -103zM561 516q59 0 95 35.5t36 105.5t-36 106t-95 36t-95 -36t-36 -106
t36 -105.5t95 -35.5zM530 -154q275 0 275 70q0 24 -22 32.5t-70 8.5h-437q-4 -12 -4 -27q0 -43 61.5 -63.5t196.5 -20.5z" />
    <glyph glyph-name="Gdotaccent" unicode="&#x120;" horiz-adv-x="1490" 
d="M911 1501h-368v221h368v-221zM623 -16q-93 0 -176 25t-156 80t-126 135.5t-83.5 199.5t-30.5 264q0 207 84 365.5t249 249t390 90.5q217 0 381 -90t240 -244l-308 -244q-22 98 -105.5 159.5t-207.5 61.5q-158 0 -240.5 -93t-82.5 -255q0 -171 87.5 -264.5t233.5 -93.5
q199 0 291 151h-346v287h692v-768h-250l-78 481q-13 -251 -130 -374t-328 -123z" />
    <glyph glyph-name="gdotaccent" unicode="&#x121;" horiz-adv-x="1118" 
d="M745 1104h-368v268h368v-268zM561 283q-145 0 -256 51q-14 -28 -14 -55q0 -70 90 -70h389q180 0 262 -67t82 -183q0 -73 -36.5 -136.5t-109.5 -114.5t-196 -80t-283 -29q-250 0 -379.5 59t-129.5 149q0 72 72.5 110t193.5 40q-189 30 -189 164q0 78 59.5 141t141.5 98
q-80 50 -124 126.5t-44 170.5q0 168 129.5 271.5t341.5 103.5t341.5 -103.5t129.5 -271.5t-129.5 -271t-341.5 -103zM561 516q59 0 95 35.5t36 105.5t-36 106t-95 36t-95 -36t-36 -106t36 -105.5t95 -35.5zM530 -154q275 0 275 70q0 24 -22 32.5t-70 8.5h-437q-4 -12 -4 -27
q0 -43 61.5 -63.5t196.5 -20.5z" />
    <glyph glyph-name="Gcommaaccent" unicode="&#x122;" horiz-adv-x="1490" 
d="M623 -16q-93 0 -176 25t-156 80t-126 135.5t-83.5 199.5t-30.5 264q0 207 84 365.5t249 249t390 90.5q217 0 381 -90t240 -244l-308 -244q-22 98 -105.5 159.5t-207.5 61.5q-158 0 -240.5 -93t-82.5 -255q0 -171 87.5 -264.5t233.5 -93.5q199 0 291 151h-346v287h692
v-768h-250l-78 481q-13 -251 -130 -374t-328 -123zM616 -557l-57 158q74 0 110 13t36 52v4h-152v248h354v-209q0 -125 -71 -189.5t-220 -76.5z" />
    <glyph glyph-name="gcommaaccent" unicode="&#x123;" horiz-adv-x="1118" 
d="M737 1120h-354v209q0 123 76 189t215 77l57 -157q-73 0 -109 -13t-36 -53v-4h151v-248zM561 283q-145 0 -256 51q-14 -28 -14 -55q0 -70 90 -70h389q180 0 262 -67t82 -183q0 -73 -36.5 -136.5t-109.5 -114.5t-196 -80t-283 -29q-250 0 -379.5 59t-129.5 149
q0 72 72.5 110t193.5 40q-189 30 -189 164q0 78 59.5 141t141.5 98q-80 50 -124 126.5t-44 170.5q0 168 129.5 271.5t341.5 103.5t341.5 -103.5t129.5 -271.5t-129.5 -271t-341.5 -103zM561 516q59 0 95 35.5t36 105.5t-36 106t-95 36t-95 -36t-36 -106t36 -105.5t95 -35.5z
M530 -154q275 0 275 70q0 24 -22 32.5t-70 8.5h-437q-4 -12 -4 -27q0 -43 61.5 -63.5t196.5 -20.5z" />
    <glyph glyph-name="Hcircumflex" unicode="&#x124;" horiz-adv-x="1392" 
d="M629 1501h-283l186 221h326l186 -221h-282l-66 92zM451 0h-369v1372h369v-522h491v522h369v-1372h-369v522h-491v-522z" />
    <glyph glyph-name="hcircumflex" unicode="&#x125;" horiz-adv-x="1161" 
d="M199 1501h-283l186 221h326l186 -221h-282l-66 92zM451 0h-369v1372h369v-661q12 67 35 122t61.5 101t98.5 72t136 26q142 0 222.5 -84.5t80.5 -238.5v-709h-368v565q0 100 -27 144.5t-106 44.5q-80 0 -106.5 -40t-26.5 -163v-551z" />
    <glyph glyph-name="Hbar" unicode="&#x126;" horiz-adv-x="1558" 
d="M532 0h-368v971h-144v286h144v115h368v-115h492v115h369v-115h143v-286h-143v-971h-369v522h-492v-522zM532 850h492v121h-492v-121z" />
    <glyph glyph-name="hbar" unicode="&#x127;" horiz-adv-x="1243" 
d="M532 0h-368v1034h-144v246h144v92h368v-92h320v-246h-320v-385q12 67 35.5 122t62 101.5t98.5 72.5t136 26q142 0 222.5 -85t80.5 -239v-647h-368v504q0 100 -27 144t-106 44q-80 0 -107 -40.5t-27 -162.5v-489z" />
    <glyph glyph-name="Itilde" unicode="&#x128;" horiz-adv-x="532" 
d="M195 1501h-183q-17 23 -28 61t-11 70q0 65 40.5 100t103.5 35q32 0 63.5 -10t48 -18.5t45.5 -26.5q56 -31 72 -31q21 0 21 21q0 25 -31 59h182q39 -63 39 -131q0 -65 -37.5 -100t-95.5 -35q-9 0 -18 1t-16 2.5t-17 4.5t-15.5 5t-15.5 6.5t-14.5 6.5t-15 8t-13.5 7.5
t-14 8t-13 7.5q-56 35 -73 35q-25 0 -25 -24q0 -22 21 -62zM451 0h-369v1372h369v-1372z" />
    <glyph glyph-name="itilde" unicode="&#x129;" horiz-adv-x="532" 
d="M195 1120h-183q-17 23 -28 61t-11 70q0 65 40.5 100t103.5 35q32 0 63.5 -10t48 -18.5t45.5 -26.5q56 -31 72 -31q21 0 21 21q0 25 -31 59h182q39 -63 39 -131q0 -65 -37.5 -100t-95.5 -35q-9 0 -18 1t-16 2.5t-17 4.5t-15.5 5t-15.5 6.5t-14.5 6.5t-15 8t-13.5 7.5
t-14 8t-13 7.5q-56 35 -73 35q-25 0 -25 -24q0 -22 21 -62zM451 0h-369v1012h369v-1012z" />
    <glyph glyph-name="Imacron" unicode="&#x12a;" horiz-adv-x="532" 
d="M551 1509h-571v207h571v-207zM451 0h-369v1372h369v-1372z" />
    <glyph glyph-name="imacron" unicode="&#x12b;" horiz-adv-x="532" 
d="M551 1143h-571v207h571v-207zM451 0h-369v1012h369v-1012z" />
    <glyph glyph-name="Ibreve" unicode="&#x12c;" horiz-adv-x="532" 
d="M266 1481q-272 0 -272 235v37h203v-37q0 -35 15 -50t54 -15t54.5 15t15.5 50v37h203v-35q0 -237 -273 -237zM451 0h-369v1372h369v-1372z" />
    <glyph glyph-name="ibreve" unicode="&#x12d;" horiz-adv-x="532" 
d="M266 1100q-272 0 -272 235v37h203v-37q0 -35 15 -50t54 -15t54.5 15t15.5 50v37h203v-35q0 -237 -273 -237zM451 0h-369v1012h369v-1012z" />
    <glyph glyph-name="Iogonek" unicode="&#x12e;" horiz-adv-x="532" 
d="M328 -401q-123 0 -165 83.5t30 202.5l71 115h-182v1372h369v-1372l-70 -133q-15 -31 -4.5 -49.5t37.5 -18.5q24 0 42.5 17t49.5 59l67 -156q-33 -47 -98 -83.5t-147 -36.5z" />
    <glyph glyph-name="iogonek" unicode="&#x12f;" horiz-adv-x="532" 
d="M451 1104h-369v268h369v-268zM328 -401q-123 0 -165 83.5t30 202.5l71 115h-182v1012h369v-1012l-70 -133q-15 -31 -4.5 -49.5t37.5 -18.5q24 0 42.5 17t49.5 59l67 -156q-33 -47 -98 -83.5t-147 -36.5z" />
    <glyph glyph-name="Idotaccent" unicode="&#x130;" horiz-adv-x="532" 
d="M451 1501h-369v221h369v-221zM451 0h-369v1372h369v-1372z" />
    <glyph glyph-name="dotlessi" unicode="&#x131;" horiz-adv-x="532" 
d="M451 0h-369v1012h369v-1012z" />
    <glyph glyph-name="IJ" unicode="&#x132;" horiz-adv-x="1736" 
d="M451 0h-369v1372h369v-1372zM1135 -20q-439 0 -603 399l308 264q32 -139 101.5 -223t182.5 -84q80 0 126 45t46 154v837h369v-878q0 -136 -39 -236.5t-111 -160.5t-166.5 -88.5t-213.5 -28.5z" />
    <glyph glyph-name="ij" unicode="&#x133;" horiz-adv-x="1064" 
d="M451 1104h-369v268h369v-268zM983 1104h-369v268h369v-268zM451 0h-369v1012h369v-1012zM600 -401q-216 0 -342 122l182 240q38 -57 101 -57q73 0 73 80v1028h369v-1012q0 -77 -22.5 -146.5t-66.5 -127.5t-120 -92.5t-174 -34.5z" />
    <glyph glyph-name="Jcircumflex" unicode="&#x134;" horiz-adv-x="1224" 
d="M909 1501h-282l186 221h326l186 -221h-283l-65 92zM623 -20q-439 0 -603 399l308 264q32 -139 101.5 -223t182.5 -84q80 0 126 45t46 154v837h369v-878q0 -136 -39 -236.5t-111 -160.5t-166.5 -88.5t-213.5 -28.5z" />
    <glyph glyph-name="jcircumflex" unicode="&#x135;" horiz-adv-x="587" 
d="M233 1120h-282l186 252h326l186 -252h-282l-66 123zM82 -422q-195 0 -322 123l183 240q38 -58 100 -58q74 0 74 80v1049h368v-1032q0 -84 -23 -155t-70 -127t-126.5 -88t-183.5 -32z" />
    <glyph glyph-name="Kcommaaccent" unicode="&#x136;" horiz-adv-x="1376" 
d="M451 0h-369v1372h369v-358l-11 -242l181 242l292 358h424l-442 -534l453 -838h-412l-299 559l-186 -213v-346zM602 -557l-57 158q74 0 109.5 13t35.5 52v4h-151v248h354v-209q0 -125 -71 -189.5t-220 -76.5z" />
    <glyph glyph-name="kcommaaccent" unicode="&#x137;" horiz-adv-x="1218" 
d="M451 0h-369v1372h369v-444l-21 -346l209 274l137 156h426l-385 -410l377 -602h-412l-207 381l-124 -139v-242zM528 -557l-57 158q74 0 109.5 13t35.5 52v4h-151v248h354v-209q0 -123 -76 -189t-215 -77z" />
    <glyph glyph-name="Lacute" unicode="&#x139;" horiz-adv-x="1132" 
d="M403 1501h-280l145 221h408zM1112 0h-1030v1372h369v-1044h661v-328z" />
    <glyph glyph-name="lacute" unicode="&#x13a;" horiz-adv-x="532" 
d="M403 1501h-280l145 221h408zM451 0h-369v1372h369v-1372z" />
    <glyph glyph-name="Lcommaaccent" unicode="&#x13b;" horiz-adv-x="1132" 
d="M1112 0h-1030v1372h369v-1044h661v-328zM483 -557l-57 158q74 0 109.5 13t35.5 52v4h-151v248h354v-209q0 -125 -71 -189.5t-220 -76.5z" />
    <glyph glyph-name="lcommaaccent" unicode="&#x13c;" horiz-adv-x="532" 
d="M451 0h-369v1372h369v-1372zM152 -557l-58 158q74 0 110 13t36 52v4h-152v248h354v-209q0 -123 -75.5 -189t-214.5 -77z" />
    <glyph glyph-name="Lcaron" unicode="&#x13d;" horiz-adv-x="1132" 
d="M1112 0h-1030v1372h369v-1044h661v-328zM739 897l-57 158q74 0 109.5 13t35.5 52v4h-151v248h354v-209q0 -123 -76 -189t-215 -77z" />
    <glyph glyph-name="lcaron" unicode="&#x13e;" horiz-adv-x="866" 
d="M451 0h-369v1372h369v-1372zM584 897l-58 158q74 0 110 13t36 52v4h-152v248h354v-209q0 -123 -75.5 -189t-214.5 -77z" />
    <glyph glyph-name="Ldot" unicode="&#x13f;" horiz-adv-x="1132" 
d="M1112 0h-1030v1372h369v-1044h661v-328zM1112 575h-369v222h369v-222z" />
    <glyph glyph-name="ldot" unicode="&#x140;" horiz-adv-x="901" 
d="M451 0h-369v1372h369v-1372zM901 553h-369v268h369v-268z" />
    <glyph glyph-name="Lslash" unicode="&#x141;" horiz-adv-x="1234" 
d="M858 748l-305 -74v-346h661v-328h-1030v584l-166 -41v286l166 41v502h369v-411l305 73v-286z" />
    <glyph glyph-name="lslash" unicode="&#x142;" horiz-adv-x="696" 
d="M532 0h-368v588l-144 -45v286l144 45v498h368v-383l144 45v-286l-144 -46v-702z" />
    <glyph glyph-name="Nacute" unicode="&#x143;" horiz-adv-x="1392" 
d="M844 1501h-281l146 221h407zM451 0h-369v1372h369l403 -618l115 -215l-27 403v430h369v-1372h-357l-417 616l-119 211l33 -444v-383z" />
    <glyph glyph-name="nacute" unicode="&#x144;" horiz-adv-x="1161" 
d="M731 1120h-280l124 252h408zM451 0h-369v1012h369v-301q12 67 35 122t61.5 101t98.5 72t136 26q142 0 222.5 -84.5t80.5 -238.5v-709h-368v565q0 100 -27 144.5t-106 44.5q-80 0 -106.5 -40t-26.5 -163v-551z" />
    <glyph glyph-name="Ncommaaccent" unicode="&#x145;" horiz-adv-x="1392" 
d="M451 0h-369v1372h369l403 -618l115 -215l-27 403v430h369v-1372h-357l-417 616l-119 211l33 -444v-383zM582 -557l-58 158q74 0 110 13t36 52v4h-152v248h354v-209q0 -125 -70.5 -189.5t-219.5 -76.5z" />
    <glyph glyph-name="ncommaaccent" unicode="&#x146;" horiz-adv-x="1161" 
d="M451 0h-369v1012h369v-301q12 67 35 122t61.5 101t98.5 72t136 26q142 0 222.5 -84.5t80.5 -238.5v-709h-368v565q0 100 -27 144.5t-106 44.5q-80 0 -106.5 -40t-26.5 -163v-551zM471 -557l-57 158q74 0 109.5 13t35.5 52v4h-151v248h354v-209q0 -123 -76 -189t-215 -77z
" />
    <glyph glyph-name="Ncaron" unicode="&#x147;" horiz-adv-x="1392" 
d="M858 1501h-326l-186 221h283l67 -92l66 92h282zM451 0h-369v1372h369l403 -618l115 -215l-27 403v430h369v-1372h-357l-417 616l-119 211l33 -444v-383z" />
    <glyph glyph-name="ncaron" unicode="&#x148;" horiz-adv-x="1161" 
d="M748 1120h-326l-186 252h282l68 -123l65 123h283zM451 0h-369v1012h369v-301q12 67 35 122t61.5 101t98.5 72t136 26q142 0 222.5 -84.5t80.5 -238.5v-709h-368v565q0 100 -27 144.5t-106 44.5q-80 0 -106.5 -40t-26.5 -163v-551z" />
    <glyph glyph-name="Eng" unicode="&#x14a;" horiz-adv-x="1423" 
d="M958 -422q-111 0 -199.5 35.5t-142.5 87.5l170 272q49 -73 123 -73q64 0 64 63q0 38 -20 77t-81 122l-292 393q-27 45 -81.5 136t-82.5 136q6 -50 17.5 -150.5t17.5 -150.5v-526h-369v1372h348l401 -565q38 -72 113 -215.5t113 -214.5q-14 91 -42 272.5t-42 272.5v450
h368v-1392q0 -63 -13.5 -120.5t-43.5 -109.5t-73.5 -90t-108.5 -60t-144 -22z" />
    <glyph glyph-name="eng" unicode="&#x14b;" horiz-adv-x="1161" 
d="M451 0h-369v1012h369v-301q12 67 35 122t61.5 101t98.5 72t136 26q142 0 222.5 -84.5t80.5 -238.5v-729q0 -77 -22.5 -146.5t-66.5 -128t-120 -93t-174 -34.5q-215 0 -342 123l183 240q38 -58 100 -58q74 0 74 80v602q0 100 -27 144.5t-106 44.5q-80 0 -106.5 -40
t-26.5 -163v-551z" />
    <glyph glyph-name="Omacron" unicode="&#x14c;" horiz-adv-x="1515" 
d="M1042 1509h-571v207h571v-207zM758 -16q-205 0 -367.5 93.5t-251 254t-88.5 356.5q0 147 52 276.5t144 224t224.5 149.5t286.5 55q205 0 367 -93.5t250.5 -254.5t88.5 -357t-88.5 -356.5t-250.5 -254t-367 -93.5zM758 342q154 0 235.5 95t81.5 251t-81.5 251t-235.5 95
t-236 -95.5t-82 -250.5t82 -250.5t236 -95.5z" />
    <glyph glyph-name="omacron" unicode="&#x14d;" horiz-adv-x="1150" 
d="M860 1143h-571v207h571v-207zM567 -20q-239 0 -382.5 148t-143.5 378t143.5 378t382.5 148q250 0 396.5 -147.5t146.5 -378.5t-146.5 -378.5t-396.5 -147.5zM575 274q160 0 160 232q0 125 -42 178t-118 53t-117.5 -53t-41.5 -178t41.5 -178.5t117.5 -53.5z" />
    <glyph glyph-name="Obreve" unicode="&#x14e;" horiz-adv-x="1515" 
d="M758 1481q-273 0 -273 235v37h203v-37q0 -35 15.5 -50t54.5 -15t54 15t15 50v37h203v-35q0 -237 -272 -237zM758 -16q-205 0 -367.5 93.5t-251 254t-88.5 356.5q0 147 52 276.5t144 224t224.5 149.5t286.5 55q205 0 367 -93.5t250.5 -254.5t88.5 -357t-88.5 -356.5
t-250.5 -254t-367 -93.5zM758 342q154 0 235.5 95t81.5 251t-81.5 251t-235.5 95t-236 -95.5t-82 -250.5t82 -250.5t236 -95.5z" />
    <glyph glyph-name="obreve" unicode="&#x14f;" horiz-adv-x="1150" 
d="M575 1100q-272 0 -272 235v37h203v-37q0 -35 15 -50t54 -15t54.5 15t15.5 50v37h203v-35q0 -237 -273 -237zM567 -20q-239 0 -382.5 148t-143.5 378t143.5 378t382.5 148q250 0 396.5 -147.5t146.5 -378.5t-146.5 -378.5t-396.5 -147.5zM575 274q160 0 160 232
q0 125 -42 178t-118 53t-117.5 -53t-41.5 -178t41.5 -178.5t117.5 -53.5z" />
    <glyph glyph-name="Ohungarumlaut" unicode="&#x150;" horiz-adv-x="1515" 
d="M1096 1501h-281l166 252h367zM649 1501h-280l166 252h366zM758 -16q-205 0 -367.5 93.5t-251 254t-88.5 356.5q0 147 52 276.5t144 224t224.5 149.5t286.5 55q205 0 367 -93.5t250.5 -254.5t88.5 -357t-88.5 -356.5t-250.5 -254t-367 -93.5zM758 342q154 0 235.5 95
t81.5 251t-81.5 251t-235.5 95t-236 -95.5t-82 -250.5t82 -250.5t236 -95.5z" />
    <glyph glyph-name="ohungarumlaut" unicode="&#x151;" horiz-adv-x="1150" 
d="M934 1120h-281l166 252h367zM487 1120h-280l166 252h366zM567 -20q-239 0 -382.5 148t-143.5 378t143.5 378t382.5 148q250 0 396.5 -147.5t146.5 -378.5t-146.5 -378.5t-396.5 -147.5zM575 274q160 0 160 232q0 125 -42 178t-118 53t-117.5 -53t-41.5 -178t41.5 -178.5
t117.5 -53.5z" />
    <glyph glyph-name="OE" unicode="&#x152;" horiz-adv-x="2064" 
d="M1901 522h-601v-194h703v-328h-1249q-158 0 -290 52t-222.5 143t-140.5 217.5t-50 273.5t51 273.5t142.5 217.5t224.5 143t291 52h1243v-328h-703v-194h601v-328zM774 328h158v716h-152q-173 0 -256.5 -98t-83.5 -260q0 -163 81 -260.5t253 -97.5z" />
    <glyph glyph-name="oe" unicode="&#x153;" horiz-adv-x="1820" 
d="M547 -20q-228 0 -367 148.5t-139 377.5q0 228 139 376t367 148q134 0 227 -48t156 -148q102 196 375 196q111 0 199.5 -40.5t143 -108.5t83 -153.5t28.5 -180.5q0 -84 -10 -146h-653q35 -127 217 -127q159 0 211 117l217 -213q-154 -198 -418 -198q-296 0 -393 190
q-61 -98 -154.5 -144t-228.5 -46zM1090 602h333q0 71 -39 112.5t-124 41.5q-152 0 -170 -154zM588 274q86 0 128 52.5t42 179.5q0 126 -42 177.5t-128 51.5t-129 -52t-43 -177q0 -127 43 -179.5t129 -52.5z" />
    <glyph glyph-name="Racute" unicode="&#x154;" horiz-adv-x="1366" 
d="M811 1501h-281l146 221h407zM451 0h-369v1372h657q122 0 220.5 -25t173 -76t115 -134.5t40.5 -194.5q0 -188 -112 -286.5t-299 -114.5q51 -13 91 -34t73 -55.5t54.5 -63.5t53.5 -79l197 -309h-420l-228 367q-42 69 -89 97t-130 28h-28v-492zM743 1044h-292v-258h292
q156 0 156 129t-156 129z" />
    <glyph glyph-name="racute" unicode="&#x155;" horiz-adv-x="1036" 
d="M700 1120h-280l125 252h407zM451 0h-369v1012h369v-342q12 70 36.5 131t63.5 114.5t99 85t134 31.5q242 0 242 -278q0 -83 -21.5 -157t-48.5 -122h-338q31 36 54.5 87.5t23.5 94.5q0 97 -84 97q-68 0 -114.5 -63.5t-46.5 -180.5v-510z" />
    <glyph glyph-name="Rcommaaccent" unicode="&#x156;" horiz-adv-x="1366" 
d="M451 0h-369v1372h657q122 0 220.5 -25t173 -76t115 -134.5t40.5 -194.5q0 -188 -112 -286.5t-299 -114.5q51 -13 91 -34t73 -55.5t54.5 -63.5t53.5 -79l197 -309h-420l-228 367q-42 69 -89 97t-130 28h-28v-492zM743 1044h-292v-258h292q156 0 156 129t-156 129z
M551 -557l-57 158q74 0 109.5 13t35.5 52v4h-152v248h355v-209q0 -125 -71 -189.5t-220 -76.5z" />
    <glyph glyph-name="rcommaaccent" unicode="&#x157;" horiz-adv-x="1036" 
d="M451 0h-369v1012h369v-342q12 70 36.5 131t63.5 114.5t99 85t134 31.5q242 0 242 -278q0 -83 -21.5 -157t-48.5 -122h-338q31 36 54.5 87.5t23.5 94.5q0 97 -84 97q-68 0 -114.5 -63.5t-46.5 -180.5v-510zM145 -557l-57 158q74 0 109.5 13t35.5 52v4h-151v248h354v-209
q0 -123 -76 -189t-215 -77z" />
    <glyph glyph-name="Rcaron" unicode="&#x158;" horiz-adv-x="1366" 
d="M825 1501h-325l-187 221h283l68 -92l65 92h283zM451 0h-369v1372h657q122 0 220.5 -25t173 -76t115 -134.5t40.5 -194.5q0 -188 -112 -286.5t-299 -114.5q51 -13 91 -34t73 -55.5t54.5 -63.5t53.5 -79l197 -309h-420l-228 367q-42 69 -89 97t-130 28h-28v-492zM743 1044
h-292v-258h292q156 0 156 129t-156 129z" />
    <glyph glyph-name="rcaron" unicode="&#x159;" horiz-adv-x="1036" 
d="M717 1120h-326l-186 252h282l68 -123l66 123h282zM451 0h-369v1012h369v-342q12 70 36.5 131t63.5 114.5t99 85t134 31.5q242 0 242 -278q0 -83 -21.5 -157t-48.5 -122h-338q31 36 54.5 87.5t23.5 94.5q0 97 -84 97q-68 0 -114.5 -63.5t-46.5 -180.5v-510z" />
    <glyph glyph-name="Sacute" unicode="&#x15a;" horiz-adv-x="1314" 
d="M805 1501h-281l146 221h407zM717 -20q-206 0 -382 60.5t-290 180.5l229 297q83 -100 210 -155.5t253 -55.5q154 0 154 80q0 52 -56.5 82t-195.5 57l-137 27q-95 18 -168.5 47t-135 76.5t-95 120t-33.5 166.5q0 135 73 233t194.5 145.5t276.5 47.5q193 0 351 -62t266 -168
l-227 -293q-82 86 -202.5 140.5t-230.5 54.5q-56 0 -89 -19t-33 -55q0 -53 50 -80t165 -53l161 -37q228 -52 336.5 -152t108.5 -268q0 -136 -73.5 -231.5t-196 -140.5t-283.5 -45z" />
    <glyph glyph-name="sacute" unicode="&#x15b;" horiz-adv-x="1019" 
d="M657 1120h-280l125 252h407zM569 -20q-165 0 -311 45t-227 108l137 266q91 -62 207.5 -105.5t204.5 -43.5q82 0 82 41q0 22 -28 35.5t-110 35.5l-139 37q-165 44 -243.5 111.5t-78.5 189.5q0 155 120 242.5t323 87.5q150 0 269 -43t196 -100l-125 -262
q-93 68 -193.5 102.5t-181.5 34.5q-76 0 -76 -41q0 -23 30.5 -38.5t129.5 -45.5l104 -31q171 -49 250.5 -119.5t79.5 -189.5q0 -144 -113 -230.5t-307 -86.5z" />
    <glyph glyph-name="Scircumflex" unicode="&#x15c;" horiz-adv-x="1314" 
d="M590 1501h-283l187 221h325l187 -221h-283l-66 92zM717 -20q-206 0 -382 60.5t-290 180.5l229 297q83 -100 210 -155.5t253 -55.5q154 0 154 80q0 52 -56.5 82t-195.5 57l-137 27q-95 18 -168.5 47t-135 76.5t-95 120t-33.5 166.5q0 135 73 233t194.5 145.5t276.5 47.5
q193 0 351 -62t266 -168l-227 -293q-82 86 -202.5 140.5t-230.5 54.5q-56 0 -89 -19t-33 -55q0 -53 50 -80t165 -53l161 -37q228 -52 336.5 -152t108.5 -268q0 -136 -73.5 -231.5t-196 -140.5t-283.5 -45z" />
    <glyph glyph-name="scircumflex" unicode="&#x15d;" horiz-adv-x="1019" 
d="M444 1120h-282l186 252h326l186 -252h-282l-66 123zM569 -20q-165 0 -311 45t-227 108l137 266q91 -62 207.5 -105.5t204.5 -43.5q82 0 82 41q0 22 -28 35.5t-110 35.5l-139 37q-165 44 -243.5 111.5t-78.5 189.5q0 155 120 242.5t323 87.5q150 0 269 -43t196 -100
l-125 -262q-93 68 -193.5 102.5t-181.5 34.5q-76 0 -76 -41q0 -23 30.5 -38.5t129.5 -45.5l104 -31q171 -49 250.5 -119.5t79.5 -189.5q0 -144 -113 -230.5t-307 -86.5z" />
    <glyph glyph-name="Scedilla" unicode="&#x15e;" horiz-adv-x="1314" 
d="M627 -401q-130 0 -217 75l57 144q27 -31 64 -52.5t73 -21.5q51 0 51 33q0 39 -53 39q-18 0 -59 -9l-54 60l84 121q-162 18 -298.5 76.5t-229.5 156.5l229 297q83 -100 210 -155.5t253 -55.5q154 0 154 80q0 52 -56.5 82t-195.5 57l-137 27q-95 18 -168.5 47t-135 76.5
t-95 120t-33.5 166.5q0 135 73 233t194.5 145.5t276.5 47.5q193 0 351 -62t266 -168l-227 -293q-82 86 -202.5 140.5t-230.5 54.5q-56 0 -89 -19t-33 -55q0 -53 50 -80t165 -53l161 -37q228 -52 336.5 -152t108.5 -268q0 -136 -73.5 -231.5t-196 -140.5t-283.5 -45l-53 -68
q83 1 125 -39t42 -109q0 -73 -52 -119t-152 -46z" />
    <glyph glyph-name="scedilla" unicode="&#x15f;" horiz-adv-x="1019" 
d="M518 -401q-130 0 -217 75l57 144q27 -31 64.5 -52.5t73.5 -21.5q51 0 51 33q0 39 -53 39q-20 0 -60 -9l-53 60l82 119q-135 13 -250 54t-182 93l137 266q91 -62 207.5 -105.5t204.5 -43.5q82 0 82 41q0 22 -28 35.5t-110 35.5l-139 37q-165 44 -243.5 111.5t-78.5 189.5
q0 155 120 242.5t323 87.5q150 0 269 -43t196 -100l-125 -262q-93 68 -193.5 102.5t-181.5 34.5q-76 0 -76 -41q0 -23 30.5 -38.5t129.5 -45.5l104 -31q171 -49 250.5 -119.5t79.5 -189.5q0 -136 -102 -221t-279 -94l-53 -70q83 1 125.5 -39t42.5 -109q0 -73 -52.5 -119
t-152.5 -46z" />
    <glyph glyph-name="Scaron" unicode="&#x160;" horiz-adv-x="1314" 
d="M819 1501h-325l-187 221h283l67 -92l66 92h283zM717 -20q-206 0 -382 60.5t-290 180.5l229 297q83 -100 210 -155.5t253 -55.5q154 0 154 80q0 52 -56.5 82t-195.5 57l-137 27q-95 18 -168.5 47t-135 76.5t-95 120t-33.5 166.5q0 135 73 233t194.5 145.5t276.5 47.5
q193 0 351 -62t266 -168l-227 -293q-82 86 -202.5 140.5t-230.5 54.5q-56 0 -89 -19t-33 -55q0 -53 50 -80t165 -53l161 -37q228 -52 336.5 -152t108.5 -268q0 -136 -73.5 -231.5t-196 -140.5t-283.5 -45z" />
    <glyph glyph-name="scaron" unicode="&#x161;" horiz-adv-x="1019" 
d="M674 1120h-326l-186 252h282l68 -123l66 123h282zM569 -20q-165 0 -311 45t-227 108l137 266q91 -62 207.5 -105.5t204.5 -43.5q82 0 82 41q0 22 -28 35.5t-110 35.5l-139 37q-165 44 -243.5 111.5t-78.5 189.5q0 155 120 242.5t323 87.5q150 0 269 -43t196 -100
l-125 -262q-93 68 -193.5 102.5t-181.5 34.5q-76 0 -76 -41q0 -23 30.5 -38.5t129.5 -45.5l104 -31q171 -49 250.5 -119.5t79.5 -189.5q0 -144 -113 -230.5t-307 -86.5z" />
    <glyph glyph-name="Tcedilla" unicode="&#x162;" horiz-adv-x="1200" 
d="M569 -401q-130 0 -217 75l58 144q27 -31 64 -52.5t73 -21.5q51 0 51 33q0 39 -53 39q-19 0 -60 -9l-53 60l92 133h-108v1044h-396v328h1160v-328h-396v-1044h-108l-70 -88q83 1 125.5 -39t42.5 -109q0 -73 -52.5 -119t-152.5 -46z" />
    <glyph glyph-name="tcedilla" unicode="&#x163;" horiz-adv-x="858" 
d="M436 -401q-130 0 -217 75l57 144q27 -31 64.5 -52.5t73.5 -21.5q51 0 51 33q0 39 -53 39q-20 0 -60 -9l-53 60l90 129q-116 31 -170.5 117.5t-54.5 212.5v407h-144v279h144v114l368 164v-278h246v-279h-246v-354q0 -80 74 -80q34 0 70 23t61 61l101 -277
q-42 -47 -123.5 -86.5t-188.5 -39.5l-53 -68q83 1 125.5 -39t42.5 -109q0 -73 -52.5 -119t-152.5 -46z" />
    <glyph glyph-name="Tcaron" unicode="&#x164;" horiz-adv-x="1200" 
d="M762 1501h-326l-186 221h282l68 -92l66 92h282zM784 0h-368v1044h-396v328h1160v-328h-396v-1044z" />
    <glyph glyph-name="tcaron" unicode="&#x165;" horiz-adv-x="858" 
d="M657 1087l-57 158q73 0 109 13t36 53v4h-151v248h354v-209q0 -123 -76 -189.5t-215 -77.5zM522 -20q-186 0 -272 93.5t-86 252.5v407h-144v279h144v114l368 164v-278h246v-279h-246v-354q0 -80 74 -80q34 0 70 23t61 61l101 -277q-42 -47 -124 -86.5t-192 -39.5z" />
    <glyph glyph-name="Tbar" unicode="&#x166;" horiz-adv-x="1200" 
d="M784 0h-368v522h-236v307h236v215h-396v328h1160v-328h-396v-215h236v-307h-236v-522z" />
    <glyph glyph-name="tbar" unicode="&#x167;" horiz-adv-x="858" 
d="M522 -20q-186 0 -272 93.5t-86 252.5v161h-144v218h144v90h-144v217h144v114l368 164v-278h246v-217h-246v-90h246v-218h-246v-108q0 -80 74 -80q34 0 70 23t61 61l101 -277q-42 -47 -124 -86.5t-192 -39.5z" />
    <glyph glyph-name="Utilde" unicode="&#x168;" horiz-adv-x="1376" 
d="M616 1501h-182q-17 23 -28 61t-11 70q0 65 40.5 100t103.5 35q32 0 63.5 -10t48 -18.5t45.5 -26.5q56 -31 72 -31q20 0 20 21q0 26 -30 59h182q39 -63 39 -131q0 -65 -37.5 -100t-95.5 -35q-9 0 -18 1t-16 2.5t-17 4.5t-15.5 5t-15.5 6.5t-14.5 6.5t-15 8t-13.5 7.5
t-14 8t-13 7.5q-56 35 -73 35q-25 0 -25 -24t20 -62zM686 -20q-305 0 -459.5 156t-154.5 485v751h368v-756q0 -144 62 -211t186 -67q126 0 187 66.5t61 211.5v756h369v-751q0 -330 -154 -485.5t-465 -155.5z" />
    <glyph glyph-name="utilde" unicode="&#x169;" horiz-adv-x="1161" 
d="M510 1120h-182q-17 23 -28 61t-11 70q0 65 40 100t103 35q32 0 63.5 -9.5t49 -19t45.5 -26.5q56 -31 72 -31q20 0 20 21q0 25 -31 59h183q38 -61 38 -131q0 -65 -37.5 -100t-95.5 -35q-11 0 -22.5 1.5t-19.5 3.5t-21 7t-18 7t-19.5 9.5t-17 9l-17.5 10.5l-16 9
q-56 35 -74 35q-25 0 -25 -24q0 -22 21 -62zM379 -20q-142 0 -222.5 84.5t-80.5 238.5v709h368v-566q0 -99 27.5 -143.5t106.5 -44.5q80 0 106.5 40t26.5 163v551h368v-1012h-368v301q-11 -67 -35 -122t-62.5 -101t-98.5 -72t-136 -26z" />
    <glyph glyph-name="Umacron" unicode="&#x16a;" horiz-adv-x="1376" 
d="M973 1509h-572v207h572v-207zM686 -20q-305 0 -459.5 156t-154.5 485v751h368v-756q0 -144 62 -211t186 -67q126 0 187 66.5t61 211.5v756h369v-751q0 -330 -154 -485.5t-465 -155.5z" />
    <glyph glyph-name="umacron" unicode="&#x16b;" horiz-adv-x="1161" 
d="M866 1143h-571v207h571v-207zM379 -20q-142 0 -222.5 84.5t-80.5 238.5v709h368v-566q0 -99 27.5 -143.5t106.5 -44.5q80 0 106.5 40t26.5 163v551h368v-1012h-368v301q-11 -67 -35 -122t-62.5 -101t-98.5 -72t-136 -26z" />
    <glyph glyph-name="Ubreve" unicode="&#x16c;" horiz-adv-x="1376" 
d="M688 1481q-272 0 -272 235v37h202v-37q0 -35 15.5 -50t54.5 -15t54.5 15t15.5 50v37h203v-35q0 -237 -273 -237zM686 -20q-305 0 -459.5 156t-154.5 485v751h368v-756q0 -144 62 -211t186 -67q126 0 187 66.5t61 211.5v756h369v-751q0 -330 -154 -485.5t-465 -155.5z" />
    <glyph glyph-name="ubreve" unicode="&#x16d;" horiz-adv-x="1161" 
d="M582 1100q-273 0 -273 235v37h203v-37q0 -35 15.5 -50t54.5 -15t54 15t15 50v37h203v-35q0 -237 -272 -237zM379 -20q-142 0 -222.5 84.5t-80.5 238.5v709h368v-566q0 -99 27.5 -143.5t106.5 -44.5q80 0 106.5 40t26.5 163v551h368v-1012h-368v301q-11 -67 -35 -122
t-62.5 -101t-98.5 -72t-136 -26z" />
    <glyph glyph-name="Uring" unicode="&#x16e;" horiz-adv-x="1376" 
d="M688 1481q-83 0 -137.5 37.5t-54.5 107.5t54.5 108t137.5 38t138 -38t55 -108t-55 -107.5t-138 -37.5zM688 1593q18 0 28.5 9.5t10.5 23.5t-10.5 23.5t-28.5 9.5t-28.5 -9.5t-10.5 -23.5t10.5 -23.5t28.5 -9.5zM686 -20q-305 0 -459.5 156t-154.5 485v751h368v-756
q0 -144 62 -211t186 -67q126 0 187 66.5t61 211.5v756h369v-751q0 -330 -154 -485.5t-465 -155.5z" />
    <glyph glyph-name="uring" unicode="&#x16f;" horiz-adv-x="1161" 
d="M582 1100q-83 0 -138 39t-55 112t55 112.5t138 39.5t137.5 -39.5t54.5 -112.5t-54.5 -112t-137.5 -39zM582 1212q18 0 28.5 10.5t10.5 28.5t-10.5 28.5t-28.5 10.5t-28.5 -10.5t-10.5 -28.5t10.5 -28.5t28.5 -10.5zM379 -20q-142 0 -222.5 84.5t-80.5 238.5v709h368v-566
q0 -99 27.5 -143.5t106.5 -44.5q80 0 106.5 40t26.5 163v551h368v-1012h-368v301q-11 -67 -35 -122t-62.5 -101t-98.5 -72t-136 -26z" />
    <glyph glyph-name="Uhungarumlaut" unicode="&#x170;" horiz-adv-x="1376" 
d="M1026 1501h-281l166 252h367zM580 1501h-281l166 252h366zM686 -20q-305 0 -459.5 156t-154.5 485v751h368v-756q0 -144 62 -211t186 -67q126 0 187 66.5t61 211.5v756h369v-751q0 -330 -154 -485.5t-465 -155.5z" />
    <glyph glyph-name="uhungarumlaut" unicode="&#x171;" horiz-adv-x="1161" 
d="M940 1120h-281l166 252h367zM494 1120h-281l166 252h366zM379 -20q-142 0 -222.5 84.5t-80.5 238.5v709h368v-566q0 -99 27.5 -143.5t106.5 -44.5q80 0 106.5 40t26.5 163v551h368v-1012h-368v301q-11 -67 -35 -122t-62.5 -101t-98.5 -72t-136 -26z" />
    <glyph glyph-name="Uogonek" unicode="&#x172;" horiz-adv-x="1376" 
d="M686 -20q-305 0 -459.5 156t-154.5 485v751h368v-756q0 -144 62 -211t186 -67q126 0 187 66.5t61 211.5v756h369v-751q0 -271 -103 -423.5t-309 -197.5l-70 -133q-15 -31 -4.5 -49.5t37.5 -18.5q24 0 42.5 17t49.5 59l68 -156q-33 -47 -98.5 -83.5t-147.5 -36.5
q-123 0 -165 83.5t30 202.5l59 95h-8z" />
    <glyph glyph-name="uogonek" unicode="&#x173;" horiz-adv-x="1161" 
d="M379 -20q-142 0 -222.5 84.5t-80.5 238.5v709h368v-566q0 -99 27.5 -143.5t106.5 -44.5q80 0 106.5 40t26.5 163v551h368v-1012l-69 -133q-16 -31 -5 -49.5t37 -18.5q24 0 43 17t50 59l67 -156q-33 -47 -98.5 -83.5t-147.5 -36.5q-123 0 -165 83.5t30 202.5l72 115h-182
v301q-11 -67 -35 -122t-62.5 -101t-98.5 -72t-136 -26z" />
    <glyph glyph-name="Wcircumflex" unicode="&#x174;" horiz-adv-x="2064" 
d="M965 1501h-283l186 221h326l186 -221h-282l-66 92zM838 0h-521l-297 1372h426l107 -692l37 -449l59 398l137 743h492l137 -743l58 -398l38 449l107 692h426l-297 -1372h-520l-127 606l-68 518l-65 -518z" />
    <glyph glyph-name="wcircumflex" unicode="&#x175;" horiz-adv-x="1679" 
d="M772 1120h-283l187 252h325l187 -252h-283l-65 123zM711 0h-451l-250 1012h402l45 -432l32 -357l62 355l84 434h405l93 -434l57 -355l33 357l45 432h401l-250 -1012h-450l-72 360l-57 426l-58 -426z" />
    <glyph glyph-name="Ycircumflex" unicode="&#x176;" horiz-adv-x="1452" 
d="M659 1501h-282l186 221h326l186 -221h-282l-66 92zM907 0h-368v442l-529 930h467l133 -303l121 -315l121 315l135 303h455l-535 -934v-438z" />
    <glyph glyph-name="ycircumflex" unicode="&#x177;" horiz-adv-x="1208" 
d="M537 1120h-283l186 252h326l186 -252h-282l-66 123zM403 -401q-110 0 -215.5 34t-173.5 84l127 322q127 -117 250 -117q57 0 89 20.5t55 77.5l18 50h-219l-324 942h414l96 -363l78 -420l80 420l98 363h422l-352 -1061q-63 -186 -168 -269t-275 -83z" />
    <glyph glyph-name="Ydieresis" unicode="&#x178;" horiz-adv-x="1452" 
d="M1069 1501h-297v221h297v-221zM680 1501h-297v221h297v-221zM907 0h-368v442l-529 930h467l133 -303l121 -315l121 315l135 303h455l-535 -934v-438z" />
    <glyph glyph-name="Zacute" unicode="&#x179;" horiz-adv-x="1241" 
d="M768 1501h-281l146 221h407zM1221 0h-1201v287l496 579l195 189l-195 -11h-455v328h1119v-287l-492 -563l-211 -205l211 11h533v-328z" />
    <glyph glyph-name="zacute" unicode="&#x17a;" horiz-adv-x="1044" 
d="M668 1120h-281l125 252h408zM1004 0h-963v258l227 240l295 243l-370 -18h-132v289h922v-258l-240 -217l-313 -265l375 17h199v-289z" />
    <glyph glyph-name="Zdotaccent" unicode="&#x17b;" horiz-adv-x="1241" 
d="M805 1501h-369v221h369v-221zM1221 0h-1201v287l496 579l195 189l-195 -11h-455v328h1119v-287l-492 -563l-211 -205l211 11h533v-328z" />
    <glyph glyph-name="zdotaccent" unicode="&#x17c;" horiz-adv-x="1044" 
d="M707 1104h-369v268h369v-268zM1004 0h-963v258l227 240l295 243l-370 -18h-132v289h922v-258l-240 -217l-313 -265l375 17h199v-289z" />
    <glyph glyph-name="Zcaron" unicode="&#x17d;" horiz-adv-x="1241" 
d="M782 1501h-325l-187 221h283l68 -92l65 92h283zM1221 0h-1201v287l496 579l195 189l-195 -11h-455v328h1119v-287l-492 -563l-211 -205l211 11h533v-328z" />
    <glyph glyph-name="zcaron" unicode="&#x17e;" horiz-adv-x="1044" 
d="M684 1120h-326l-186 252h283l67 -123l66 123h282zM1004 0h-963v258l227 240l295 243l-370 -18h-132v289h922v-258l-240 -217l-313 -265l375 17h199v-289z" />
    <glyph glyph-name="florin" unicode="&#x192;" horiz-adv-x="985" 
d="M166 -401q-95 0 -175 29.5t-134 76.5l151 309q53 -90 117 -90q34 0 60.5 22t33.5 64l109 600h-183l50 279h182l29 158q62 346 423 346q85 0 168 -31t131 -76l-151 -268q-54 57 -121 57q-75 0 -90 -74l-21 -112h207l-49 -279h-207l-116 -665q-28 -156 -132.5 -251
t-281.5 -95z" />
    <glyph glyph-name="AEacute" unicode="&#x1fc;" horiz-adv-x="2164" 
d="M1432 1501h-281l145 221h408zM408 0h-441l881 1372h1263v-328h-702v-194h600v-328h-600v-194h702v-328h-1071v256h-473zM760 563h280v447z" />
    <glyph glyph-name="aeacute" unicode="&#x1fd;" horiz-adv-x="1685" 
d="M969 1120h-281l125 252h408zM340 -23q-135 0 -213 73t-78 192q0 213 283 282l305 74q-5 67 -33 96t-94 29q-85 0 -173.5 -43.5t-152.5 -114.5l-164 271q217 196 496 196q256 0 338 -172q37 85 122.5 128.5t199.5 43.5q115 0 203 -39.5t140.5 -107t78.5 -150.5t26 -178
q0 -89 -10 -156h-653q35 -127 217 -127q159 0 211 117l217 -213q-154 -198 -439 -198q-173 0 -292 77t-173 211q-31 -139 -124.5 -215t-237.5 -76zM954 612h334q0 67 -39.5 106.5t-124.5 39.5q-73 0 -117 -37t-53 -109zM449 225q26 -1 54 6t59 24t53.5 53.5t27.5 86.5
l-180 -39q-88 -20 -88 -73q0 -28 20 -43t54 -15z" />
    <glyph glyph-name="Oslashacute" unicode="&#x1fe;" horiz-adv-x="1515" 
d="M905 1501h-280l145 221h408zM758 -16q-223 0 -391 108l-154 -145l-229 237l157 148q-90 159 -90 356q0 147 52 276.5t144 224t224.5 149.5t286.5 55q220 0 393 -111l149 141l230 -237l-154 -144q88 -161 88 -354q0 -196 -88.5 -356.5t-250.5 -254t-367 -93.5zM440 688
q0 -24 4 -70l426 400q-56 16 -112 16q-154 0 -236 -95.5t-82 -250.5zM758 342q154 0 235.5 95t81.5 251q0 26 -4 66l-422 -398q58 -14 109 -14z" />
    <glyph glyph-name="oslashacute" unicode="&#x1ff;" horiz-adv-x="1150" 
d="M721 1120h-281l125 252h408zM567 -20q-170 0 -303 81l-145 -135l-135 144l141 131q-84 136 -84 305q0 230 143.5 378t382.5 148q206 0 342 -102l144 133l135 -143l-148 -138q70 -121 70 -276q0 -231 -146.5 -378.5t-396.5 -147.5zM416 506v-35l254 238q-35 28 -95 28
q-76 0 -117.5 -53t-41.5 -178zM575 274q160 0 160 226l-227 -213q33 -13 67 -13z" />
    <glyph glyph-name="Scommaaccent" unicode="&#x218;" horiz-adv-x="1314" 
d="M717 -20q-206 0 -382 60.5t-290 180.5l229 297q83 -100 210 -155.5t253 -55.5q154 0 154 80q0 52 -56.5 82t-195.5 57l-137 27q-95 18 -168.5 47t-135 76.5t-95 120t-33.5 166.5q0 135 73 233t194.5 145.5t276.5 47.5q193 0 351 -62t266 -168l-227 -293
q-82 86 -202.5 140.5t-230.5 54.5q-56 0 -89 -19t-33 -55q0 -53 50 -80t165 -53l161 -37q228 -52 336.5 -152t108.5 -268q0 -136 -73.5 -231.5t-196 -140.5t-283.5 -45zM543 -557l-58 158q74 0 110 13t36 52v4h-152v248h355v-209q0 -125 -71 -189.5t-220 -76.5z" />
    <glyph glyph-name="scommaaccent" unicode="&#x219;" horiz-adv-x="1019" 
d="M569 -20q-165 0 -311 45t-227 108l137 266q91 -62 207.5 -105.5t204.5 -43.5q82 0 82 41q0 22 -28 35.5t-110 35.5l-139 37q-165 44 -243.5 111.5t-78.5 189.5q0 155 120 242.5t323 87.5q150 0 269 -43t196 -100l-125 -262q-93 68 -193.5 102.5t-181.5 34.5
q-76 0 -76 -41q0 -23 30.5 -38.5t129.5 -45.5l104 -31q171 -49 250.5 -119.5t79.5 -189.5q0 -144 -113 -230.5t-307 -86.5zM397 -557l-57 158q74 0 109.5 13t35.5 52v4h-151v248h354v-209q0 -123 -76 -189t-215 -77z" />
    <glyph glyph-name="Tcommaaccent" unicode="&#x21a;" horiz-adv-x="1200" 
d="M784 0h-368v1044h-396v328h1160v-328h-396v-1044zM485 -557l-57 158q74 0 109.5 13t35.5 52v4h-151v248h354v-209q0 -125 -71 -189.5t-220 -76.5z" />
    <glyph glyph-name="tcommaaccent" unicode="&#x21b;" horiz-adv-x="858" 
d="M522 -20q-186 0 -272 93.5t-86 252.5v407h-144v279h144v114l368 164v-278h246v-279h-246v-354q0 -80 74 -80q34 0 70 23t61 61l101 -277q-42 -47 -124 -86.5t-192 -39.5zM315 -557l-57 158q74 0 109.5 13t35.5 52v4h-151v248h354v-209q0 -123 -76 -189t-215 -77z" />
    <glyph glyph-name="dotlessj" unicode="&#x237;" horiz-adv-x="587" 
d="M82 -422q-195 0 -322 123l183 240q38 -58 100 -58q74 0 74 80v1049h368v-1032q0 -84 -23 -155t-70 -127t-126.5 -88t-183.5 -32z" />
    <glyph glyph-name="circumflex" unicode="&#x2c6;" 
d="M547 1120h-283l187 252h325l187 -252h-283l-66 123z" />
    <glyph glyph-name="caron" unicode="&#x2c7;" 
d="M776 1120h-325l-187 252h283l67 -123l66 123h283z" />
    <glyph glyph-name="breve" unicode="&#x2d8;" 
d="M614 1100q-272 0 -272 235v37h203v-37q0 -35 15 -50t54 -15t54.5 15t15.5 50v37h203v-35q0 -237 -273 -237z" />
    <glyph glyph-name="dotaccent" unicode="&#x2d9;" 
d="M799 1104h-369v268h369v-268z" />
    <glyph glyph-name="ring" unicode="&#x2da;" 
d="M614 1100q-83 0 -137.5 39t-54.5 112t54.5 112.5t137.5 39.5t138 -39.5t55 -112.5t-55 -112t-138 -39zM614 1212q18 0 28.5 10.5t10.5 28.5t-10.5 28.5t-28.5 10.5t-28.5 -10.5t-10.5 -28.5t10.5 -28.5t28.5 -10.5z" />
    <glyph glyph-name="ogonek" unicode="&#x2db;" 
d="M582 -401q-123 0 -165.5 83.5t29.5 202.5l72 115h187l-70 -133q-15 -31 -4.5 -49.5t37.5 -18.5q24 0 42.5 17t49.5 59l67 -156q-33 -47 -98 -83.5t-147 -36.5z" />
    <glyph glyph-name="tilde" unicode="&#x2dc;" 
d="M543 1120h-183q-17 22 -27.5 60.5t-10.5 70.5q0 65 40 100t103 35q32 0 63.5 -9.5t49 -19t45.5 -26.5q56 -31 71 -31q21 0 21 21q0 25 -31 59h182q39 -63 39 -131q0 -65 -37.5 -100t-95.5 -35q-11 0 -22.5 1.5t-19.5 3.5t-21 7t-18 7t-19.5 9.5t-17 9t-18.5 10.5l-15 9
q-56 35 -74 35q-25 0 -25 -24q0 -22 21 -62z" />
    <glyph glyph-name="hungarumlaut" unicode="&#x2dd;" 
d="M852 1120h-281l166 252h367zM406 1120h-281l166 252h366z" />
    <glyph glyph-name="gravecomb" unicode="&#x300;" 
d="M881 1120h-281l-252 252h408z" />
    <glyph glyph-name="acutecomb" unicode="&#x301;" 
d="M629 1120h-281l125 252h408z" />
    <glyph glyph-name="circumflexcomb" unicode="&#x302;" 
d="M547 1120h-283l187 252h325l187 -252h-283l-66 123z" />
    <glyph glyph-name="tildecomb" unicode="&#x303;" 
d="M543 1120h-183q-17 22 -27.5 60.5t-10.5 70.5q0 65 40 100t103 35q32 0 63.5 -9.5t49 -19t45.5 -26.5q56 -31 71 -31q21 0 21 21q0 25 -31 59h182q39 -63 39 -131q0 -65 -37.5 -100t-95.5 -35q-11 0 -22.5 1.5t-19.5 3.5t-21 7t-18 7t-19.5 9.5t-17 9t-18.5 10.5l-15 9
q-56 35 -74 35q-25 0 -25 -24q0 -22 21 -62z" />
    <glyph glyph-name="macroncomb" unicode="&#x304;" 
d="M899 1143h-571v207h571v-207z" />
    <glyph glyph-name="brevecomb" unicode="&#x306;" 
d="M614 1100q-272 0 -272 235v37h203v-37q0 -35 15 -50t54 -15t54.5 15t15.5 50v37h203v-35q0 -237 -273 -237z" />
    <glyph glyph-name="dotaccentcomb" unicode="&#x307;" 
d="M799 1104h-369v268h369v-268z" />
    <glyph glyph-name="dieresiscomb" unicode="&#x308;" 
d="M956 1120h-297v252h297v-252zM567 1120h-297v252h297v-252z" />
    <glyph glyph-name="ringcomb" unicode="&#x30a;" 
d="M614 1100q-83 0 -137.5 39t-54.5 112t54.5 112.5t137.5 39.5t138 -39.5t55 -112.5t-55 -112t-138 -39zM614 1212q18 0 28.5 10.5t10.5 28.5t-10.5 28.5t-28.5 10.5t-28.5 -10.5t-10.5 -28.5t10.5 -28.5t28.5 -10.5z" />
    <glyph glyph-name="hungarumlautcomb" unicode="&#x30b;" 
d="M852 1120h-281l166 252h367zM406 1120h-281l166 252h366z" />
    <glyph glyph-name="caroncomb" unicode="&#x30c;" 
d="M776 1120h-325l-187 252h283l67 -123l66 123h283z" />
    <glyph glyph-name="commaturnedabovecomb" unicode="&#x312;" 
d="M791 1120h-355v209q0 123 76 189t215 77l57 -157q-73 0 -109 -13t-36 -53v-4h152v-248z" />
    <glyph glyph-name="commaaccentcomb" unicode="&#x326;" 
d="M500 -557l-58 158q74 0 110 13t36 52v4h-152v248h355v-209q0 -123 -76 -189t-215 -77z" />
    <glyph glyph-name="cedillacomb" unicode="&#x327;" 
d="M621 -401q-131 0 -218 75l58 144q27 -31 64 -52.5t73 -21.5q51 0 51 33q0 39 -53 39q-18 0 -59 -9l-54 60l92 133h152l-70 -88q83 1 125.5 -39t42.5 -109q0 -73 -52 -119t-152 -46z" />
    <glyph glyph-name="ogonekcomb" unicode="&#x328;" 
d="M582 -401q-123 0 -165.5 83.5t29.5 202.5l72 115h187l-70 -133q-15 -31 -4.5 -49.5t37.5 -18.5q24 0 42.5 17t49.5 59l67 -156q-33 -47 -98 -83.5t-147 -36.5z" />
    <glyph glyph-name="strokeshortcomb" unicode="&#x335;" 
d="M993 487h-757v218h757v-218z" />
    <glyph glyph-name="slashshortcomb" unicode="&#x337;" 
d="M942 748l-655 -205v286l655 205v-286z" />
    <glyph glyph-name="slashlongcomb" unicode="&#x338;" 
d="M1217 920l-1070 -994l-135 144l1069 993z" />
    <glyph glyph-name="Delta" unicode="&#x394;" horiz-adv-x="1488" 
d="M977 1368l512 -1368h-1489l512 1368h465zM674 887l-187 -580h519l-187 580l-71 227z" />
    <glyph glyph-name="Omega" unicode="&#x3a9;" horiz-adv-x="1507" 
d="M688 0h-569v328h467q-36 0 -74 4t-89 17.5t-96.5 34.5t-91.5 59.5t-79 88t-53.5 124.5t-20.5 165q0 115 45.5 218t129 182t213.5 125.5t288 46.5t286.5 -46.5t210.5 -125.5t126 -181.5t44 -218.5q0 -90 -20.5 -165t-53.5 -124.5t-79 -88t-91 -59.5t-96 -34.5t-89 -17.5
t-74 -4h467v-328h-570v313l6 2q91 30 151 122t60 235q0 153 -69.5 252.5t-208.5 99.5q-140 0 -213.5 -100.5t-73.5 -251.5q0 -143 60 -235t151 -122l6 -2v-313z" />
    <glyph glyph-name="pi" unicode="&#x3c0;" horiz-adv-x="1417" 
d="M451 0h-369v766h-205v246h1426v-246h-238v-387q0 -84 65 -84q53 0 84 57l183 -239q-69 -64 -141.5 -93.5t-176.5 -29.5q-96 0 -171.5 32.5t-120.5 89t-68 127.5t-23 152v375h-245v-766z" />
    <glyph glyph-name="Wgrave" unicode="&#x1e80;" horiz-adv-x="2064" 
d="M1184 1501h-281l-272 221h407zM838 0h-521l-297 1372h426l107 -692l37 -449l59 398l137 743h492l137 -743l58 -398l38 449l107 692h426l-297 -1372h-520l-127 606l-68 518l-65 -518z" />
    <glyph glyph-name="wgrave" unicode="&#x1e81;" horiz-adv-x="1679" 
d="M971 1120h-281l-252 252h408zM711 0h-451l-250 1012h402l45 -432l32 -357l62 355l84 434h405l93 -434l57 -355l33 357l45 432h401l-250 -1012h-450l-72 360l-57 426l-58 -426z" />
    <glyph glyph-name="Wacute" unicode="&#x1e82;" horiz-adv-x="2064" 
d="M1180 1501h-281l145 221h408zM838 0h-521l-297 1372h426l107 -692l37 -449l59 398l137 743h492l137 -743l58 -398l38 449l107 692h426l-297 -1372h-520l-127 606l-68 518l-65 -518z" />
    <glyph glyph-name="wacute" unicode="&#x1e83;" horiz-adv-x="1679" 
d="M985 1120h-280l124 252h408zM711 0h-451l-250 1012h402l45 -432l32 -357l62 355l84 434h405l93 -434l57 -355l33 357l45 432h401l-250 -1012h-450l-72 360l-57 426l-58 -426z" />
    <glyph glyph-name="Wdieresis" unicode="&#x1e84;" horiz-adv-x="2064" 
d="M1374 1501h-297v221h297v-221zM985 1501h-297v221h297v-221zM838 0h-521l-297 1372h426l107 -692l37 -449l59 398l137 743h492l137 -743l58 -398l38 449l107 692h426l-297 -1372h-520l-127 606l-68 518l-65 -518z" />
    <glyph glyph-name="wdieresis" unicode="&#x1e85;" horiz-adv-x="1679" 
d="M1182 1120h-297v252h297v-252zM793 1120h-297v252h297v-252zM711 0h-451l-250 1012h402l45 -432l32 -357l62 355l84 434h405l93 -434l57 -355l33 357l45 432h401l-250 -1012h-450l-72 360l-57 426l-58 -426z" />
    <glyph glyph-name="Etilde" unicode="&#x1ebc;" horiz-adv-x="1193" 
d="M535 1501h-183q-17 23 -28 61t-11 70q0 65 40.5 100t103.5 35q32 0 63.5 -10t48 -18.5t45.5 -26.5q56 -31 72 -31q21 0 21 21q0 25 -31 59h182q39 -63 39 -131q0 -65 -37.5 -100t-95.5 -35q-9 0 -18 1t-16 2.5t-17 4.5t-15.5 5t-15.5 6.5t-14.5 6.5t-15 8t-13.5 7.5
t-14 8t-13 7.5q-56 35 -73 35q-25 0 -25 -24q0 -22 21 -62zM1133 0h-1051v1372h1051v-328h-682v-194h579v-328h-579v-194h682v-328z" />
    <glyph glyph-name="etilde" unicode="&#x1ebd;" horiz-adv-x="1097" 
d="M477 1120h-182q-17 23 -28 61t-11 70q0 65 40 100t103 35q32 0 63.5 -9.5t49 -19t45.5 -26.5q56 -31 72 -31q20 0 20 21q0 25 -31 59h183q39 -63 39 -131q0 -65 -37.5 -100t-95.5 -35q-9 0 -18 1t-16 2.5t-17 4.5t-15.5 5t-15.5 6.5t-14.5 6.5t-15 8t-13.5 7.5t-14 8
t-13 7.5q-56 35 -74 35q-24 0 -24 -24t20 -62zM582 -20q-255 0 -398 145t-143 381q0 233 138.5 379.5t367.5 146.5q125 0 222.5 -39.5t155.5 -107t87.5 -151t29.5 -177.5q0 -107 -10 -149h-649q31 -134 205 -134q161 0 213 117l223 -213q-154 -198 -442 -198zM549 758
q-76 0 -121 -41t-51 -119h336q-9 160 -164 160z" />
    <glyph glyph-name="Ygrave" unicode="&#x1ef2;" horiz-adv-x="1452" 
d="M879 1501h-281l-272 221h407zM907 0h-368v442l-529 930h467l133 -303l121 -315l121 315l135 303h455l-535 -934v-438z" />
    <glyph glyph-name="ygrave" unicode="&#x1ef3;" horiz-adv-x="1208" 
d="M735 1120h-280l-252 252h407zM403 -401q-110 0 -215.5 34t-173.5 84l127 322q127 -117 250 -117q57 0 89 20.5t55 77.5l18 50h-219l-324 942h414l96 -363l78 -420l80 420l98 363h422l-352 -1061q-63 -186 -168 -269t-275 -83z" />
    <glyph glyph-name="Ytilde" unicode="&#x1ef8;" horiz-adv-x="1452" 
d="M655 1501h-182q-17 23 -28 61t-11 70q0 65 40.5 100t103.5 35q32 0 63.5 -10t48 -18.5t45.5 -26.5q56 -31 72 -31q20 0 20 21q0 26 -30 59h182q39 -63 39 -131q0 -65 -37.5 -100t-95.5 -35q-9 0 -18 1t-16 2.5t-17 4.5t-15.5 5t-15.5 6.5t-14.5 6.5t-15 8t-13.5 7.5
t-14 8t-13 7.5q-56 35 -74 35q-24 0 -24 -24t20 -62zM907 0h-368v442l-529 930h467l133 -303l121 -315l121 315l135 303h455l-535 -934v-438z" />
    <glyph glyph-name="ytilde" unicode="&#x1ef9;" horiz-adv-x="1208" 
d="M532 1120h-182q-17 23 -28 61t-11 70q0 65 40.5 100t103.5 35q32 0 63.5 -10t48 -18.5t45.5 -26.5q56 -31 72 -31q21 0 21 21q0 25 -31 59h182q39 -63 39 -131q0 -65 -37.5 -100t-95.5 -35q-9 0 -18 1t-16 2.5t-17 4.5t-15.5 5t-15.5 6.5t-14.5 6.5t-15 8t-13.5 7.5
t-14 8t-13 7.5q-56 35 -73 35q-25 0 -25 -24t20 -62zM403 -401q-110 0 -215.5 34t-173.5 84l127 322q127 -117 250 -117q57 0 89 20.5t55 77.5l18 50h-219l-324 942h414l96 -363l78 -420l80 420l98 363h422l-352 -1061q-63 -186 -168 -269t-275 -83z" />
    <glyph glyph-name="endash" unicode="&#x2013;" horiz-adv-x="1105" 
d="M1065 348h-1024v316h1024v-316z" />
    <glyph glyph-name="emdash" unicode="&#x2014;" horiz-adv-x="2129" 
d="M2089 348h-2048v316h2048v-316z" />
    <glyph glyph-name="quoteleft" unicode="&#x2018;" horiz-adv-x="450" 
d="M336 1413l67 -178q-34 0 -60 -4.5t-49.5 -15t-36.5 -33t-13 -54.5v-24h166v-350h-369v362q0 136 77.5 211t217.5 86z" />
    <glyph glyph-name="quoteright" unicode="&#x2019;" horiz-adv-x="450" 
d="M115 713l-68 178q34 0 60 4t50 15t37 33t13 54v25h-166v350h369v-362q0 -136 -77.5 -211t-217.5 -86z" />
    <glyph glyph-name="quotesinglbase" unicode="&#x201a;" horiz-adv-x="450" 
d="M115 -309l-68 178q34 0 60 4t50 15t37 33t13 54v25h-166v350h369v-362q0 -136 -77.5 -211t-217.5 -86z" />
    <glyph glyph-name="quotedblleft" unicode="&#x201c;" horiz-adv-x="901" 
d="M786 1413l68 -178q-34 0 -60 -4.5t-50 -15t-37 -33t-13 -54.5v-24h166v-350h-368v362q0 137 77 211.5t217 85.5zM336 1413l67 -178q-34 0 -60 -4.5t-49.5 -15t-36.5 -33t-13 -54.5v-24h166v-350h-369v362q0 136 77.5 211t217.5 86z" />
    <glyph glyph-name="quotedblright" unicode="&#x201d;" horiz-adv-x="901" 
d="M115 713l-68 178q34 0 60 4t50 15t37 33t13 54v25h-166v350h369v-362q0 -136 -77.5 -211t-217.5 -86zM565 713l-67 178q34 0 60 4t50 15t36.5 33t12.5 54v25h-165v350h368v-362q0 -136 -77.5 -211t-217.5 -86z" />
    <glyph glyph-name="quotedblbase" unicode="&#x201e;" horiz-adv-x="901" 
d="M565 -309l-67 178q34 0 60 4t50 15t36.5 33t12.5 54v25h-165v350h368v-362q0 -136 -77.5 -211t-217.5 -86zM115 -309l-68 178q34 0 60 4t50 15t37 33t13 54v25h-166v350h369v-362q0 -136 -77.5 -211t-217.5 -86z" />
    <glyph glyph-name="dagger" unicode="&#x2020;" horiz-adv-x="1097" 
d="M733 -61h-368v839h-293v348h293v308h368v-308h293v-348h-293v-839z" />
    <glyph glyph-name="daggerdbl" unicode="&#x2021;" horiz-adv-x="1097" 
d="M733 -61h-368v307h-293v348h293v184h-293v348h293v308h368v-308h293v-348h-293v-184h293v-348h-293v-307z" />
    <glyph glyph-name="bullet" unicode="&#x2022;" horiz-adv-x="577" 
d="M289 438q-102 0 -175 71.5t-73 176.5q0 106 73 178t175 72t175 -72t73 -178q0 -105 -73 -176.5t-175 -71.5z" />
    <glyph glyph-name="ellipsis" unicode="&#x2026;" horiz-adv-x="1392" 
d="M1352 0h-369v350h369v-350zM881 0h-369v350h369v-350zM410 0h-369v350h369v-350z" />
    <glyph glyph-name="perthousand" unicode="&#x2030;" horiz-adv-x="2863" 
d="M584 -109h-297l1091 1590h297zM434 551q-182 0 -298 115t-116 305t116 305t298 115q181 0 296.5 -115t115.5 -305t-115.5 -305t-296.5 -115zM434 823q50 0 75.5 33.5t25.5 114.5q0 82 -25.5 115.5t-75.5 33.5q-49 0 -73.5 -33.5t-24.5 -115.5q0 -81 24.5 -114.5
t73.5 -33.5zM2429 0q-181 0 -296.5 115t-115.5 305t115.5 305t296.5 115q182 0 298 -115t116 -305t-116 -305t-298 -115zM1542 0q-181 0 -296.5 115t-115.5 305t115.5 305t296.5 115q182 0 298 -115t116 -305t-116 -305t-298 -115zM2429 272q52 0 77 33t25 115
q0 84 -25 116.5t-77 32.5q-49 0 -73.5 -33t-24.5 -116q0 -81 24.5 -114.5t73.5 -33.5zM1542 272q52 0 77.5 33.5t25.5 114.5q0 84 -25 116.5t-78 32.5q-49 0 -73.5 -33t-24.5 -116q0 -81 24.5 -114.5t73.5 -33.5z" />
    <glyph glyph-name="guilsinglleft" unicode="&#x2039;" horiz-adv-x="636" 
d="M575 418v-336l-534 266v316l534 266v-336l-276 -88z" />
    <glyph glyph-name="guilsinglright" unicode="&#x203a;" horiz-adv-x="636" 
d="M596 348l-535 -266v336l277 88l-277 88v336l535 -266v-316z" />
    <glyph glyph-name="fraction" unicode="&#x2044;" horiz-adv-x="1593" 
d="M399 -109h-297l1092 1590h297z" />
    <glyph glyph-name="Euro" unicode="&#x20ac;" horiz-adv-x="1540" 
d="M864 -20q-246 0 -408.5 129t-215.5 362h-148v184h125v31v31h-125v184h148q53 233 215.5 362.5t408.5 129.5q137 0 253.5 -45.5t201.5 -137t121 -217.5l-269 -233q-52 151 -122 213.5t-168 62.5q-72 0 -128.5 -35.5t-90.5 -99.5h344l-39 -184h-351v-31v-31h338l-41 -184
h-249q33 -64 89 -99.5t128 -35.5q98 0 168 63.5t122 216.5l269 -233q-54 -191 -210.5 -297t-365.5 -106z" />
    <glyph glyph-name="indianrupee" unicode="&#x20b9;" horiz-adv-x="1204" 
d="M1094 0h-461l-248 305q-47 70 -92.5 97.5t-126.5 27.5h-64v266h328q117 0 145 72h-473v266h484v72h-484v266h1041v-266h-168v-72h168v-266h-182q-34 -129 -140 -200t-262 -87q52 -11 93 -29t78.5 -49.5t58.5 -53.5t63 -70z" />
    <glyph glyph-name="trademark" unicode="&#x2122;" horiz-adv-x="1024" 
d="M602 989h-147v383h178l45 -121l20 -104l21 104l45 121h178v-383h-147v39l28 217l-20 -59l-33 -119h-143l-35 119l-19 59l29 -217v-39zM283 989h-154v236h-109v147h371v-147h-108v-236z" />
    <glyph glyph-name="Ohm" unicode="&#x2126;" horiz-adv-x="1507" 
d="M688 0h-569v328h467q-36 0 -74 4t-89 17.5t-96.5 34.5t-91.5 59.5t-79 88t-53.5 124.5t-20.5 165q0 115 45.5 218t129 182t213.5 125.5t288 46.5t286.5 -46.5t210.5 -125.5t126 -181.5t44 -218.5q0 -90 -20.5 -165t-53.5 -124.5t-79 -88t-91 -59.5t-96 -34.5t-89 -17.5
t-74 -4h467v-328h-570v313l6 2q91 30 151 122t60 235q0 153 -69.5 252.5t-208.5 99.5q-140 0 -213.5 -100.5t-73.5 -251.5q0 -143 60 -235t151 -122l6 -2v-313z" />
    <glyph glyph-name="estimated" unicode="&#x212e;" horiz-adv-x="1515" 
d="M778 -16q-327 0 -527 195.5t-200 508.5q0 147 52 276.5t144 224t224.5 149.5t286.5 55q155 0 288 -55t225 -150.5t143.5 -228.5t51.5 -285h-1005v-469q140 -88 338 -88q151 0 293.5 90.5t203.5 241.5l109 -107q-39 -67 -97.5 -128t-136.5 -114t-180.5 -84.5t-212.5 -31.5
zM461 1171v-374h594v362q-112 101 -297 101q-80 0 -158.5 -24t-138.5 -65z" />
    <glyph glyph-name="partialdiff" unicode="&#x2202;" horiz-adv-x="1310" 
d="M524 -20q-227 0 -355 107.5t-128 311.5q0 98 32 184.5t90.5 152t147.5 103.5t197 38q134 0 212 -56.5t93 -156.5q25 92 25 165q0 89 -53.5 140t-151.5 51q-160 0 -291 -113l-86 371q189 115 434 115q278 0 420.5 -148t142.5 -438q0 -135 -30 -257.5t-90.5 -226.5
t-146.5 -180.5t-204.5 -119.5t-257.5 -43zM600 330q91 0 143 58.5t52 141.5q0 64 -33.5 101t-102.5 37q-92 0 -148 -58.5t-56 -140.5q0 -139 145 -139z" />
    <glyph glyph-name="increment" unicode="&#x2206;" horiz-adv-x="1488" 
d="M977 1368l512 -1368h-1489l512 1368h465zM674 887l-187 -580h519l-187 580l-71 227z" />
    <glyph glyph-name="product" unicode="&#x220f;" horiz-adv-x="1433" 
d="M164 -231v1603h1106v-1603h-369v1357h-369v-1357h-368z" />
    <glyph glyph-name="summation" unicode="&#x2211;" 
d="M332 244l293 327l-293 326l-199 217v258h922v-289h-131l-371 19l379 -422v-219l-379 -422l371 18h131v-288h-922v258z" />
    <glyph glyph-name="minus" unicode="&#x2212;" horiz-adv-x="856" 
d="M795 541h-734v293h734v-293z" />
    <glyph glyph-name="radical" unicode="&#x221a;" horiz-adv-x="1439" 
d="M1081 0h-465l-227 702l-260 -118l-129 293l289 135h409l101 -408l53 -411l51 411l215 768h406z" />
    <glyph glyph-name="infinity" unicode="&#x221e;" horiz-adv-x="1398" 
d="M465 209q-81 0 -149 25t-121 76.5t-83 137t-30 197.5q0 205 84.5 320.5t236.5 115.5q70 0 119 -17.5t76.5 -52t40.5 -74.5t18 -95q14 44 30 78t42.5 69.5t59 59t80.5 38.5t106 15q81 0 149 -25t121 -76.5t83 -137t30 -197.5q0 -205 -85 -321t-237 -116q-126 0 -182 63
t-70 175q-18 -56 -40 -97t-58.5 -80t-92 -60t-128.5 -21zM420 676q0 -52 24 -80.5t70 -28.5q19 0 34.5 9.5t26 23t21 38.5t16.5 45.5t16 54.5q3 12 5 18q-13 29 -34.5 38t-59.5 9q-65 0 -92 -32.5t-27 -94.5zM926 743q-51 0 -81 -74q-11 -27 -36 -116q23 -45 92 -45
q65 0 92 32.5t27 94.5q0 51 -25 79.5t-69 28.5z" />
    <glyph glyph-name="integral" unicode="&#x222b;" horiz-adv-x="747" 
d="M512 20q0 -180 -102.5 -290.5t-300.5 -110.5q-149 0 -250 66l100 264q59 -55 115 -55q33 0 51 21t18 58v1018q0 180 103 291t301 111q149 0 250 -66l-101 -264q-59 55 -114 55q-33 0 -51.5 -21.5t-18.5 -58.5v-1018z" />
    <glyph glyph-name="approxequal" unicode="&#x2248;" horiz-adv-x="856" 
d="M621 702q-41 0 -92 20t-92 43.5t-93.5 43.5t-95.5 20q-46 0 -96 -25t-91 -69v273q42 45 92 69.5t95 24.5q43 0 95.5 -20t93.5 -43.5t92 -43.5t92 -20q44 0 90.5 24t83.5 70v-272q-37 -46 -83.5 -70.5t-90.5 -24.5zM621 272q-41 0 -92 20t-92 43.5t-93.5 43.5t-95.5 20
q-46 0 -96 -25t-91 -69v273q42 45 92 69.5t95 24.5q43 0 95.5 -20t93.5 -43.5t92 -43.5t92 -20q44 0 90.5 24t83.5 70v-272q-37 -46 -83.5 -70.5t-90.5 -24.5z" />
    <glyph glyph-name="notequal" unicode="&#x2260;" horiz-adv-x="856" 
d="M795 319h-467l-78 -163l-117 55l51 108h-123v293h265l71 150h-336v293h476l71 149l115 -55l-45 -94h117v-293h-256l-72 -150h328v-293z" />
    <glyph glyph-name="lessequal" unicode="&#x2264;" horiz-adv-x="958" 
d="M856 0h-795v293h627l-627 207v374l795 263v-334l-477 -115l477 -117v-571z" />
    <glyph glyph-name="greaterequal" unicode="&#x2265;" horiz-adv-x="958" 
d="M856 0h-795v571l478 117l-478 115v334l795 -263v-374l-627 -207h627v-293z" />
    <glyph glyph-name="lozenge" unicode="&#x25ca;" horiz-adv-x="1181" 
d="M399 602l121 -326l74 -206l72 206l120 326l-120 326l-72 207l-74 -207zM358 -123l-348 725l348 725h465l348 -725l-348 -725h-465z" />
    <glyph glyph-name="a.ss04" horiz-adv-x="1181" 
d="M432 -20q-184 0 -287.5 135t-103.5 391q0 254 100.5 390t270.5 136q78 0 137 -25.5t94.5 -72t56 -100t31.5 -121.5v299h369v-1012h-369v295q-8 -55 -19.5 -97t-34 -85t-53.5 -70.5t-80 -45t-112 -17.5zM416 506q0 -117 42.5 -182.5t129.5 -65.5q66 0 104.5 44.5
t38.5 158.5v90q0 114 -38.5 158.5t-104.5 44.5q-87 0 -129.5 -65.5t-42.5 -182.5z" />
    <glyph glyph-name="g.ss05" horiz-adv-x="1181" 
d="M422 61q-179 0 -280 125.5t-101 360.5q0 233 103.5 359t277.5 126q76 0 133 -25.5t91.5 -72t54 -99.5t30.5 -122v299h369v-875q0 -97 -15 -174.5t-53.5 -147t-100 -116t-158 -73.5t-224.5 -27q-136 0 -256.5 31t-181.5 75l67 352q68 -59 164 -94t186 -35q99 0 151 45
t52 150v256q-10 -70 -27.5 -121.5t-51 -99t-91.5 -72.5t-139 -25zM416 547q0 -97 41 -152t125 -55q70 0 109.5 44.5t39.5 158.5v8q0 114 -39.5 158.5t-109.5 44.5q-84 0 -125 -55t-41 -152z" />
    <glyph glyph-name="f_hbar" horiz-adv-x="1816" 
d="M512 0h-369v733h-123v279h123v35q0 154 78 250t225 96q127 0 196.5 -74t94.5 -191v244h369v-92h319v-246h-319v-385q12 67 35.5 122t62 101.5t98.5 72.5t136 26q142 0 222.5 -85t80.5 -239v-647h-369v504q0 100 -27 144t-106 44q-80 0 -106.5 -40t-26.5 -163v-489h-369
v963q0 176 -131 176q-94 0 -94 -117v-10h113v-279h-113v-733z" />
    <glyph glyph-name="f_lcaron" horiz-adv-x="1187" 
d="M512 0h-369v733h-123v279h123v35q0 154 78 250t225 96q127 0 196.5 -74t94.5 -191v244h369v-1372h-369v963q0 176 -131 176q-94 0 -94 -117v-10h113v-279h-113v-733zM1239 897l-57 158q74 0 109.5 13t35.5 52v4h-151v248h354v-209q0 -123 -76 -189t-215 -77z" />
    <glyph glyph-name="t_t" horiz-adv-x="1550" 
d="M479 -20q-164 0 -239.5 93.5t-75.5 252.5v407h-144v279h144v114l368 164v-278h324v114l369 164v-278h245v-279h-245v-354q0 -80 73 -80q34 0 71 23t61 61l100 -277q-42 -47 -124 -86.5t-192 -39.5q-186 0 -272 93.5t-86 252.5v407h-324v-354q0 -80 62 -80q28 0 57 20
t51 54l101 -277q-42 -46 -122 -81t-202 -35z" />
    <glyph glyph-name="tcaron_t" horiz-adv-x="1550" 
d="M627 1087l-58 158q73 0 109.5 13t36.5 53v4h-152v248h355v-209q0 -123 -76 -189.5t-215 -77.5zM479 -20q-164 0 -239.5 93.5t-75.5 252.5v407h-144v279h144v114l368 164v-278h324v114l369 164v-278h245v-279h-245v-354q0 -80 73 -80q34 0 71 23t61 61l100 -277
q-42 -47 -124 -86.5t-192 -39.5q-186 0 -272 93.5t-86 252.5v407h-324v-354q0 -80 62 -80q28 0 57 20t51 54l101 -277q-42 -46 -122 -81t-202 -35z" />
    <glyph glyph-name="Adieresis.ss02" horiz-adv-x="1505" 
d="M1450 1120h-307v252h307v-252zM362 1120h-307v252h307v-252zM403 0h-393l486 1372h514l485 -1372h-403l-84 256h-521zM655 764l-65 -201h315l-65 201l-92 344z" />
    <glyph glyph-name="IJ.ss03" horiz-adv-x="1302" 
d="M700 -20q-425 0 -581 378l307 265q14 -62 36.5 -112t54 -90.5t76 -62.5t97.5 -22q80 0 126 45t46 154v837h369v-878q0 -136 -39 -236.5t-111 -160.5t-167 -88.5t-214 -28.5zM451 686h-369v686h369v-686z" />
    <glyph glyph-name="IJacute" horiz-adv-x="1736" 
d="M1634 1481h-280l125 252h407zM412 1481h-281l125 252h408zM451 0h-369v1372h369v-1372zM1135 -20q-439 0 -603 399l308 264q32 -139 101.5 -223t182.5 -84q80 0 126 45t46 154v837h369v-878q0 -136 -39 -236.5t-111 -160.5t-166.5 -88.5t-213.5 -28.5z" />
    <glyph glyph-name="IJacute.ss03" horiz-adv-x="1302" 
d="M414 1501h-281l146 221h407zM1194 1501h-281l146 221h407zM700 -20q-425 0 -581 378l307 265q14 -62 36.5 -112t54 -90.5t76 -62.5t97.5 -22q80 0 126 45t46 154v837h369v-878q0 -136 -39 -236.5t-111 -160.5t-167 -88.5t-214 -28.5zM451 686h-369v686h369v-686z" />
    <glyph glyph-name="Udieresis.ss02" horiz-adv-x="1376" 
d="M879 1161h-162v211h162v-211zM659 1161h-161v211h161v-211zM686 -20q-305 0 -459.5 156t-154.5 485v751h368v-756q0 -144 62 -211t186 -67q126 0 187 66.5t61 211.5v756h369v-751q0 -330 -154 -485.5t-465 -155.5z" />
    <glyph glyph-name="aacute.ss04" horiz-adv-x="1181" 
d="M737 1120h-280l125 252h407zM432 -20q-184 0 -287.5 135t-103.5 391q0 254 100.5 390t270.5 136q78 0 137 -25.5t94.5 -72t56 -100t31.5 -121.5v299h369v-1012h-369v295q-8 -55 -19.5 -97t-34 -85t-53.5 -70.5t-80 -45t-112 -17.5zM416 506q0 -117 42.5 -182.5
t129.5 -65.5q66 0 104.5 44.5t38.5 158.5v90q0 114 -38.5 158.5t-104.5 44.5q-87 0 -129.5 -65.5t-42.5 -182.5z" />
    <glyph glyph-name="acircumflex.ss04" horiz-adv-x="1181" 
d="M524 1120h-282l186 252h326l186 -252h-283l-65 123zM432 -20q-184 0 -287.5 135t-103.5 391q0 254 100.5 390t270.5 136q78 0 137 -25.5t94.5 -72t56 -100t31.5 -121.5v299h369v-1012h-369v295q-8 -55 -19.5 -97t-34 -85t-53.5 -70.5t-80 -45t-112 -17.5zM416 506
q0 -117 42.5 -182.5t129.5 -65.5q66 0 104.5 44.5t38.5 158.5v90q0 114 -38.5 158.5t-104.5 44.5q-87 0 -129.5 -65.5t-42.5 -182.5z" />
    <glyph glyph-name="adieresis.ss04" horiz-adv-x="1181" 
d="M934 1120h-297v252h297v-252zM545 1120h-297v252h297v-252zM432 -20q-184 0 -287.5 135t-103.5 391q0 254 100.5 390t270.5 136q78 0 137 -25.5t94.5 -72t56 -100t31.5 -121.5v299h369v-1012h-369v295q-8 -55 -19.5 -97t-34 -85t-53.5 -70.5t-80 -45t-112 -17.5zM416 506
q0 -117 42.5 -182.5t129.5 -65.5q66 0 104.5 44.5t38.5 158.5v90q0 114 -38.5 158.5t-104.5 44.5q-87 0 -129.5 -65.5t-42.5 -182.5z" />
    <glyph glyph-name="agrave.ss04" horiz-adv-x="1181" 
d="M723 1120h-281l-252 252h408zM432 -20q-184 0 -287.5 135t-103.5 391q0 254 100.5 390t270.5 136q78 0 137 -25.5t94.5 -72t56 -100t31.5 -121.5v299h369v-1012h-369v295q-8 -55 -19.5 -97t-34 -85t-53.5 -70.5t-80 -45t-112 -17.5zM416 506q0 -117 42.5 -182.5
t129.5 -65.5q66 0 104.5 44.5t38.5 158.5v90q0 114 -38.5 158.5t-104.5 44.5q-87 0 -129.5 -65.5t-42.5 -182.5z" />
    <glyph glyph-name="aring.ss04" horiz-adv-x="1181" 
d="M592 1100q-83 0 -138 39t-55 112t55 112.5t138 39.5t137.5 -39.5t54.5 -112.5t-54.5 -112t-137.5 -39zM592 1212q18 0 28.5 10.5t10.5 28.5t-10.5 28.5t-28.5 10.5t-28.5 -10.5t-10.5 -28.5t10.5 -28.5t28.5 -10.5zM432 -20q-184 0 -287.5 135t-103.5 391
q0 254 100.5 390t270.5 136q78 0 137 -25.5t94.5 -72t56 -100t31.5 -121.5v299h369v-1012h-369v295q-8 -55 -19.5 -97t-34 -85t-53.5 -70.5t-80 -45t-112 -17.5zM416 506q0 -117 42.5 -182.5t129.5 -65.5q66 0 104.5 44.5t38.5 158.5v90q0 114 -38.5 158.5t-104.5 44.5
q-87 0 -129.5 -65.5t-42.5 -182.5z" />
    <glyph glyph-name="atilde.ss04" horiz-adv-x="1181" 
d="M520 1120h-182q-17 23 -28 61t-11 70q0 65 40 100t103 35q32 0 63.5 -9.5t49 -19t45.5 -26.5q56 -31 72 -31q20 0 20 21q0 26 -30 59h182q39 -63 39 -131q0 -65 -37.5 -100t-95.5 -35q-9 0 -18 1t-16 2.5t-17 4.5t-15.5 5t-15.5 6.5t-14.5 6.5t-15 8t-13.5 7.5t-14 8
t-13 7.5q-56 35 -74 35q-24 0 -24 -24t20 -62zM432 -20q-184 0 -287.5 135t-103.5 391q0 254 100.5 390t270.5 136q78 0 137 -25.5t94.5 -72t56 -100t31.5 -121.5v299h369v-1012h-369v295q-8 -55 -19.5 -97t-34 -85t-53.5 -70.5t-80 -45t-112 -17.5zM416 506
q0 -117 42.5 -182.5t129.5 -65.5q66 0 104.5 44.5t38.5 158.5v90q0 114 -38.5 158.5t-104.5 44.5q-87 0 -129.5 -65.5t-42.5 -182.5z" />
    <glyph glyph-name="abreve.ss04" horiz-adv-x="1181" 
d="M592 1100q-273 0 -273 235v37h203v-37q0 -35 15.5 -50t54.5 -15t54.5 15t15.5 50v37h202v-35q0 -237 -272 -237zM432 -20q-184 0 -287.5 135t-103.5 391q0 254 100.5 390t270.5 136q78 0 137 -25.5t94.5 -72t56 -100t31.5 -121.5v299h369v-1012h-369v295
q-8 -55 -19.5 -97t-34 -85t-53.5 -70.5t-80 -45t-112 -17.5zM416 506q0 -117 42.5 -182.5t129.5 -65.5q66 0 104.5 44.5t38.5 158.5v90q0 114 -38.5 158.5t-104.5 44.5q-87 0 -129.5 -65.5t-42.5 -182.5z" />
    <glyph glyph-name="amacron.ss04" horiz-adv-x="1181" 
d="M877 1143h-572v207h572v-207zM432 -20q-184 0 -287.5 135t-103.5 391q0 254 100.5 390t270.5 136q78 0 137 -25.5t94.5 -72t56 -100t31.5 -121.5v299h369v-1012h-369v295q-8 -55 -19.5 -97t-34 -85t-53.5 -70.5t-80 -45t-112 -17.5zM416 506q0 -117 42.5 -182.5
t129.5 -65.5q66 0 104.5 44.5t38.5 158.5v90q0 114 -38.5 158.5t-104.5 44.5q-87 0 -129.5 -65.5t-42.5 -182.5z" />
    <glyph glyph-name="aogonek.ss04" horiz-adv-x="1181" 
d="M432 -20q-184 0 -287.5 135t-103.5 391q0 254 100.5 390t270.5 136q78 0 137 -25.5t94.5 -72t56 -100t31.5 -121.5v299h369v-1012l-70 -133q-15 -31 -4.5 -49.5t37.5 -18.5q24 0 42.5 17t49.5 59l68 -156q-33 -47 -98.5 -83.5t-147.5 -36.5q-123 0 -165 83.5t30 202.5
l71 115h-182v295q-8 -55 -19.5 -97t-34 -85t-53.5 -70.5t-80 -45t-112 -17.5zM416 506q0 -117 42.5 -182.5t129.5 -65.5q66 0 104.5 44.5t38.5 158.5v90q0 114 -38.5 158.5t-104.5 44.5q-87 0 -129.5 -65.5t-42.5 -182.5z" />
    <glyph glyph-name="gbreve.ss05" horiz-adv-x="1181" 
d="M592 1100q-273 0 -273 235v37h203v-37q0 -35 15.5 -50t54.5 -15t54.5 15t15.5 50v37h202v-35q0 -237 -272 -237zM422 61q-179 0 -280 125.5t-101 360.5q0 233 103.5 359t277.5 126q76 0 133 -25.5t91.5 -72t54 -99.5t30.5 -122v299h369v-875q0 -97 -15 -174.5t-53.5 -147
t-100 -116t-158 -73.5t-224.5 -27q-136 0 -256.5 31t-181.5 75l67 352q68 -59 164 -94t186 -35q99 0 151 45t52 150v256q-10 -70 -27.5 -121.5t-51 -99t-91.5 -72.5t-139 -25zM416 547q0 -97 41 -152t125 -55q70 0 109.5 44.5t39.5 158.5v8q0 114 -39.5 158.5t-109.5 44.5
q-84 0 -125 -55t-41 -152z" />
    <glyph glyph-name="gcircumflex.ss05" horiz-adv-x="1181" 
d="M524 1120h-282l186 252h326l186 -252h-283l-65 123zM422 61q-179 0 -280 125.5t-101 360.5q0 233 103.5 359t277.5 126q76 0 133 -25.5t91.5 -72t54 -99.5t30.5 -122v299h369v-875q0 -97 -15 -174.5t-53.5 -147t-100 -116t-158 -73.5t-224.5 -27q-136 0 -256.5 31
t-181.5 75l67 352q68 -59 164 -94t186 -35q99 0 151 45t52 150v256q-10 -70 -27.5 -121.5t-51 -99t-91.5 -72.5t-139 -25zM416 547q0 -97 41 -152t125 -55q70 0 109.5 44.5t39.5 158.5v8q0 114 -39.5 158.5t-109.5 44.5q-84 0 -125 -55t-41 -152z" />
    <glyph glyph-name="gcommaaccent.ss05" horiz-adv-x="1181" 
d="M768 1120h-354v209q0 123 76 189t215 77l57 -157q-73 0 -109.5 -13t-36.5 -53v-4h152v-248zM422 61q-179 0 -280 125.5t-101 360.5q0 233 103.5 359t277.5 126q76 0 133 -25.5t91.5 -72t54 -99.5t30.5 -122v299h369v-875q0 -97 -15 -174.5t-53.5 -147t-100 -116
t-158 -73.5t-224.5 -27q-136 0 -256.5 31t-181.5 75l67 352q68 -59 164 -94t186 -35q99 0 151 45t52 150v256q-10 -70 -27.5 -121.5t-51 -99t-91.5 -72.5t-139 -25zM416 547q0 -97 41 -152t125 -55q70 0 109.5 44.5t39.5 158.5v8q0 114 -39.5 158.5t-109.5 44.5
q-84 0 -125 -55t-41 -152z" />
    <glyph glyph-name="gdotaccent.ss05" horiz-adv-x="1181" 
d="M776 1104h-368v268h368v-268zM422 61q-179 0 -280 125.5t-101 360.5q0 233 103.5 359t277.5 126q76 0 133 -25.5t91.5 -72t54 -99.5t30.5 -122v299h369v-875q0 -97 -15 -174.5t-53.5 -147t-100 -116t-158 -73.5t-224.5 -27q-136 0 -256.5 31t-181.5 75l67 352
q68 -59 164 -94t186 -35q99 0 151 45t52 150v256q-10 -70 -27.5 -121.5t-51 -99t-91.5 -72.5t-139 -25zM416 547q0 -97 41 -152t125 -55q70 0 109.5 44.5t39.5 158.5v8q0 114 -39.5 158.5t-109.5 44.5q-84 0 -125 -55t-41 -152z" />
    <glyph glyph-name="idotaccent" horiz-adv-x="532" 
d="M451 1104h-369v268h369v-268zM451 0h-369v1012h369v-1012z" />
    <glyph glyph-name="ijacute" horiz-adv-x="1120" 
d="M412 1120h-281l125 252h408zM979 1120h-281l125 252h408zM451 0h-369v1012h369v-1012zM614 -422q-194 0 -321 123l182 240q38 -58 100 -58q74 0 74 80v1049h369v-1032q0 -84 -23.5 -155t-70.5 -127t-126.5 -88t-183.5 -32z" />
    <glyph glyph-name="acutecomb.case" 
d="M618 1501h-280l145 221h408z" />
    <glyph glyph-name="brevecomb.case" 
d="M614 1481q-272 0 -272 235v37h203v-37q0 -35 15 -50t54 -15t54.5 15t15.5 50v37h203v-35q0 -237 -273 -237z" />
    <glyph glyph-name="caroncomb.alt" 
d="M500 897l-58 158q74 0 110 13t36 52v4h-152v248h355v-209q0 -123 -76 -189t-215 -77z" />
    <glyph glyph-name="caroncomb.alt.case" 
d="M500 897l-58 158q74 0 110 13t36 52v4h-152v248h355v-209q0 -123 -76 -189t-215 -77z" />
    <glyph glyph-name="caroncomb.case" 
d="M776 1501h-325l-187 221h283l67 -92l66 92h283z" />
    <glyph glyph-name="cedillacomb.case" 
d="M584 -401q-130 0 -217 75l57 144q27 -31 64 -52.5t73 -21.5q51 0 51 33q0 39 -53 39q-19 0 -59 -9l-54 60l93 133h151l-69 -88q83 1 125 -39t42 -109q0 -73 -52 -119t-152 -46z" />
    <glyph glyph-name="circumflexcomb.case" 
d="M547 1501h-283l187 221h325l187 -221h-283l-66 92z" />
    <glyph glyph-name="commaaccentcomb.case" 
d="M500 -557l-58 158q74 0 110 13t36 52v4h-152v248h355v-209q0 -125 -71 -189.5t-220 -76.5z" />
    <glyph glyph-name="dieresiscomb.case" 
d="M956 1501h-297v221h297v-221zM567 1501h-297v221h297v-221z" />
    <glyph glyph-name="dotaccentcomb.case" 
d="M799 1501h-369v221h369v-221z" />
    <glyph glyph-name="gravecomb.case" 
d="M891 1501h-281l-272 221h407z" />
    <glyph glyph-name="hungarumlautcomb.case" 
d="M852 1501h-281l166 252h367zM406 1501h-281l166 252h366z" />
    <glyph glyph-name="macroncomb.case" 
d="M899 1509h-571v207h571v-207z" />
    <glyph glyph-name="ogonekcomb.case" 
d="M582 -401q-123 0 -165.5 83.5t29.5 202.5l72 115h187l-70 -133q-15 -31 -4.5 -49.5t37.5 -18.5q24 0 42.5 17t49.5 59l67 -156q-33 -47 -98 -83.5t-147 -36.5z" />
    <glyph glyph-name="ringcomb.case" 
d="M614 1481q-83 0 -137.5 37.5t-54.5 107.5t54.5 108t137.5 38t138 -38t55 -108t-55 -107.5t-138 -37.5zM614 1593q18 0 28.5 9.5t10.5 23.5t-10.5 23.5t-28.5 9.5t-28.5 -9.5t-10.5 -23.5t10.5 -23.5t28.5 -9.5z" />
    <glyph glyph-name="slashlongcomb.case" 
d="M1386 1186l-1316 -1239l-230 237l1317 1239z" />
    <glyph glyph-name="slashshortcomb.case" 
d="M1034 748l-839 -205v286l839 205v-286z" />
    <glyph glyph-name="strokelongcomb.case" 
d="M1370 971h-1515v286h1515v-286z" />
    <glyph glyph-name="strokeshortcomb.case" 
d="M1034 522h-839v307h839v-307z" />
    <glyph glyph-name="tildecomb.case" 
d="M543 1501h-183q-17 22 -27.5 60.5t-10.5 70.5q0 65 40 100t103 35q32 0 63.5 -9.5t49 -19t45.5 -26.5q56 -31 71 -31q21 0 21 21q0 25 -31 59h182q39 -63 39 -131q0 -65 -37.5 -100t-95.5 -35q-11 0 -22.5 1.5t-19.5 3.5t-21 7t-18 7t-19.5 9.5t-17 9t-18.5 10.5l-15 9
q-56 35 -74 35q-25 0 -25 -24q0 -22 21 -62z" />
    <glyph glyph-name="g.component" horiz-adv-x="1118" 
d="M561 283q-145 0 -256 51q-14 -28 -14 -55q0 -70 90 -70h389q180 0 262 -67t82 -183q0 -73 -36.5 -136.5t-109.5 -114.5t-196 -80t-283 -29q-250 0 -379.5 59t-129.5 149q0 72 72.5 110t193.5 40q-189 30 -189 164q0 78 59.5 141t141.5 98q-80 50 -124 126.5t-44 170.5
q0 168 129.5 271.5t341.5 103.5t341.5 -103.5t129.5 -271.5t-129.5 -271t-341.5 -103zM561 516q59 0 95 35.5t36 105.5t-36 106t-95 36t-95 -36t-36 -106t36 -105.5t95 -35.5zM530 -154q275 0 275 70q0 24 -22 32.5t-70 8.5h-437q-4 -12 -4 -27q0 -43 61.5 -63.5
t196.5 -20.5z" />
    <glyph glyph-name="ITF" horiz-adv-x="3356" 
d="M123 0v1434h442v-1434h-442zM657 1016v418h443v-418h-443zM1190 0v1434h444v-1434h-444zM1724 1016v418h443v-418h-443zM2257 0v1434h444v-1434h-444zM2791 1016v418h443v-418h-443zM2791 506v420h443v-420h-443z" />
    </font>
</defs>
</svg>
